<?xml version="1.0" standalone="no"?>
<!DOCTYPE svg PUBLIC "-//W3C//DTD SVG 1.1//EN" "http://www.w3.org/Graphics/SVG/1.1/DTD/svg11.dtd" >
<svg xmlns="http://www.w3.org/2000/svg" xmlns:xlink="http://www.w3.org/1999/xlink" version="1.1">
<metadata></metadata>
<defs>
<font id="easyreadingbold" horiz-adv-x="1118" >
<font-face units-per-em="2048" ascent="1638" descent="-410" />
<missing-glyph horiz-adv-x="798" />
<glyph unicode="&#xfb01;" horiz-adv-x="1507" d="M98 797v186h156v299q0 59 9 121.5t41 114t94.5 84t166.5 32.5q53 0 101.5 -12t85.5 -29q43 -18 82 -39l-72 -161q-41 12 -78 22q-33 8 -67.5 15.5t-57.5 7.5q-59 0 -75.5 -44t-16.5 -114v-297h295v-186h-295v-797h-213v797h-156zM1016 1464q0 63 44 106.5t107 43.5 q61 0 105.5 -44.5t44.5 -105.5t-44 -106t-106 -45q-63 0 -107 44t-44 107zM1059 0v983h217v-983h-217z" />
<glyph unicode="&#xfb02;" horiz-adv-x="1675" d="M98 797v186h156v299q0 59 9 121.5t41 114t94.5 84t166.5 32.5q53 0 101.5 -12t85.5 -29q43 -18 82 -39l-72 -161q-41 12 -78 22q-33 8 -67.5 15.5t-57.5 7.5q-59 0 -75.5 -44t-16.5 -114v-297h295v-186h-295v-797h-213v797h-156zM1135 264v1364h213v-1425q0 -14 13 -28.5 t38 -14.5q16 0 39.5 6t44.5 14q23 8 49 21l59 -160q-2 -2 -20.5 -12.5t-47 -22.5t-66.5 -22.5t-79 -10.5q-74 0 -122 15.5t-74.5 50.5t-36.5 90t-10 135z" />
<glyph horiz-adv-x="0" />
<glyph unicode="&#xd;" horiz-adv-x="1265" />
<glyph unicode=" "  horiz-adv-x="798" />
<glyph unicode="&#x09;" horiz-adv-x="798" />
<glyph unicode="&#xa0;" horiz-adv-x="798" />
<glyph unicode="!" horiz-adv-x="978" d="M369 141q0 35 13 66t36.5 53.5t55.5 35.5t69 13q72 0 123 -48t51 -120t-51.5 -120t-122.5 -48q-37 0 -69 13.5t-55.5 36t-36.5 53t-13 65.5zM401 1548h287l-59 -1056h-170z" />
<glyph unicode="&#x22;" horiz-adv-x="1120" d="M283 1612h237l-37 -723h-157zM600 1612h238l-37 -723h-158z" />
<glyph unicode="#" horiz-adv-x="1179" d="M109 260v209h159q8 94 18.5 174t20.5 180h-151v209h170q10 111 25.5 230.5t25.5 228.5h203l-50 -459h193q12 111 26.5 230.5t24.5 228.5h203l-47 -459h141v-209h-162q-10 -92 -17 -174t-18 -180h150v-209h-172q-10 -98 -21.5 -206.5t-21.5 -200.5h-203l41 407h-194 q-10 -98 -21.5 -206.5t-19.5 -200.5h-205l43 407h-141zM473 469h193l39 354h-195q-8 -92 -17.5 -174t-19.5 -180z" />
<glyph unicode="$" horiz-adv-x="1067" d="M70 94l98 248q2 -4 32.5 -26.5t74.5 -50t96.5 -51.5t97.5 -30v504q-43 25 -102.5 65t-114.5 96t-94 130t-39 168t38 162.5t92 114.5t114.5 72t105.5 34v172h182v-172q33 -4 75 -12.5t87 -22.5t89 -33.5t79 -42.5l-94 -186q-37 20 -100.5 45t-135.5 39v-463 q45 -27 105.5 -65.5t114 -94t90 -130.5t36.5 -173q0 -104 -36.5 -177t-90 -121t-114 -73.5t-105.5 -37.5v-168h-182v155q-88 8 -160.5 27.5t-126.5 42.5q-63 25 -112 55zM360 1163q0 -68 36 -123t73 -88v357q-39 -14 -74 -47t-35 -99zM651 201q41 18 74 58t33 116 q0 78 -34 130t-73 87v-391z" />
<glyph unicode="%" horiz-adv-x="1968" d="M266 1120q0 92 25.5 162t70 117t104.5 70.5t132 23.5q147 0 231 -92t84 -252q0 -94 -25.5 -164t-69.5 -117t-104.5 -70.5t-129.5 -23.5q-152 0 -235 92t-83 254zM473 1126q0 -33 6 -65.5t18.5 -58t34 -41t52.5 -15.5q63 0 92 55.5t29 137.5q0 35 -5.5 67.5t-18.5 58 t-33.5 41t-51.5 15.5q-63 0 -93 -56.5t-30 -138.5zM754 41l458 1452h179l-459 -1452h-178zM1225 385q0 92 25.5 161.5t69.5 117t104 71t132 23.5q147 0 231.5 -92.5t84.5 -251.5q0 -94 -25.5 -164t-69.5 -117t-104.5 -70.5t-130.5 -23.5q-152 0 -234.5 92t-82.5 254z M1432 391q0 -33 6 -65.5t18 -58t33.5 -41t52.5 -15.5q63 0 92 55.5t29 136.5q0 35 -5 68t-18.5 58.5t-34 41t-51.5 15.5q-63 0 -92.5 -56.5t-29.5 -138.5z" />
<glyph unicode="&#x26;" horiz-adv-x="1425" d="M123 375q0 82 27.5 145.5t67.5 110.5t84 78.5t79 52.5q-23 25 -50.5 60.5t-52 80.5t-41 94.5t-16.5 102.5q0 90 37 156.5t95.5 109.5t131 63.5t142.5 20.5q68 0 131 -19.5t112.5 -58.5t79 -100.5t29.5 -143.5q0 -78 -27.5 -139t-68.5 -109.5t-87 -82t-83 -58.5l286 -305 q12 27 23.5 69t11.5 99v84h221v-63q0 -61 -11 -114.5t-28.5 -97.5t-37 -78t-35.5 -59l160 -170l-183 -143l-141 156q-25 -18 -60.5 -41t-83 -42.5t-108.5 -32.5t-137 -13q-111 0 -197 29.5t-146.5 82t-92 123t-31.5 152.5zM365 387q0 -92 66.5 -145.5t178.5 -53.5 q84 0 142.5 26t93.5 50l-332 365q-20 -14 -46 -37t-49.5 -53.5t-38.5 -68.5t-15 -83zM449 1116q0 -35 14 -69.5t34.5 -67.5t43 -59.5t39.5 -42.5q23 16 52.5 38.5t55 53t44 67.5t18.5 80q0 70 -42 107t-100 37q-31 0 -59.5 -10.5t-51 -29t-35.5 -45t-13 -59.5z" />
<glyph unicode="'" horiz-adv-x="933" d="M301 1612h240l-39 -723h-156z" />
<glyph unicode="(" horiz-adv-x="1015" d="M193 516q0 125 17 240.5t46 218t64.5 192.5t74.5 164q90 172 205 311q41 -29 78 -53q31 -23 59.5 -43t42.5 -28q-98 -109 -176 -256q-33 -63 -64.5 -142.5t-56 -172.5t-40 -200.5t-15.5 -230.5t15.5 -230.5t40 -199.5t56 -171t64.5 -142q78 -150 176 -258 q-14 -10 -42.5 -30t-59.5 -40q-37 -23 -78 -51q-115 137 -205 309q-39 74 -74.5 163t-64.5 191.5t-46 217t-17 241.5z" />
<glyph unicode=")" horiz-adv-x="1015" d="M236 -485q98 109 176 258q33 63 64.5 142t56 171t40 199.5t15.5 230.5t-15.5 230.5t-40 200.5t-56.5 172t-64 143q-78 147 -176 256q12 8 41.5 28.5t60.5 42.5q37 25 78 53q113 -139 202 -311q39 -74 76 -164t65.5 -192.5t46 -218t17.5 -240.5q0 -127 -17.5 -241.5 t-46 -217t-65.5 -191.5t-76 -163q-90 -172 -202 -309q-41 29 -78 51q-31 20 -60.5 39.5t-41.5 30.5z" />
<glyph unicode="*" horiz-adv-x="1026" d="M184 1204l58 201l229 -92l-20 231h217l-21 -231l225 90l62 -199l-232 -51q39 -45 81 -91t75 -85l-172 -119l-127 199l-129 -199l-170 117l156 178z" />
<glyph unicode="+" horiz-adv-x="1837" d="M430 387v207h387v385h205v-385h385v-207h-385v-387h-205v387h-387z" />
<glyph unicode="," horiz-adv-x="753" d="M195 -285l176 559h305l-344 -600z" />
<glyph unicode="-" horiz-adv-x="958" d="M184 418v211h590v-211h-590z" />
<glyph unicode="." horiz-adv-x="1032" d="M348 141q0 72 50.5 120t119.5 48q72 0 119 -48t47 -120t-47 -120t-119 -48q-70 0 -120 48.5t-50 119.5z" />
<glyph unicode="/" horiz-adv-x="1216" d="M82 -565l819 2195h234l-820 -2195h-233z" />
<glyph unicode="0" horiz-adv-x="1306" d="M188 692q0 160 30 295t89.5 234.5t148.5 156t210 56.5q129 0 216 -59.5t139 -158t74.5 -227.5t22.5 -270q0 -158 -24.5 -294t-81 -236.5t-145.5 -159t-218 -58.5q-119 0 -206 54.5t-143 150.5t-84 228t-28 288zM430 707q0 -113 11.5 -208.5t37 -165t68.5 -109.5t106 -40 q68 0 111 41t68.5 113t35 169t9.5 212q0 92 -9.5 182t-33 161t-65 114t-107.5 43q-63 0 -107.5 -42t-72 -113t-40 -163t-12.5 -194z" />
<glyph unicode="1" horiz-adv-x="1218" d="M199 1040l428 381h180v-1218h213v-203h-655v203h213v905q-66 -53 -136.5 -112.5t-130.5 -110.5z" />
<glyph unicode="2" horiz-adv-x="1183" d="M176 1030q0 55 23.5 126t75 132.5t134.5 104.5t199 43q94 0 168 -31t125 -85t79 -127t28 -159q0 -82 -26 -144.5t-69 -113.5t-97 -93t-111 -81l-101 -74q-104 -80 -142 -167t-42 -158h586v-203h-828v72q0 147 34 256.5t88 189.5t119.5 136.5t129.5 99.5q43 29 83 57.5 t69.5 63t48 76.5t18.5 98q0 35 -10 68.5t-30.5 59t-53.5 42t-76 16.5q-78 0 -138.5 -57.5t-82.5 -147.5h-201z" />
<glyph unicode="3" horiz-adv-x="1214" d="M178 113l119 190q29 -35 68 -61q35 -23 85 -41.5t115 -18.5q117 0 173.5 59.5t56.5 170.5q0 68 -26 111.5t-63.5 69t-84 35t-86.5 9.5h-113v203h113q37 0 79.5 11t77.5 37.5t58.5 67.5t23.5 103q0 72 -46 119t-122 51h-18q-47 0 -79 -10.5t-54.5 -29t-41 -44t-38.5 -58.5 l-168 84q6 29 29.5 74t70.5 87t120 73t181 31q80 0 153 -28t126 -77t85 -117.5t32 -150.5q0 -61 -14.5 -109.5t-38 -85.5t-53.5 -63.5t-60 -44.5q33 -18 68.5 -47t64 -72t47 -101.5t18.5 -133.5q0 -98 -31.5 -177t-93 -136.5t-149.5 -88.5t-199 -31q-96 0 -166.5 21.5 t-120.5 48.5q-57 31 -98 70z" />
<glyph unicode="4" horiz-adv-x="1339" d="M150 340v186l581 895h234v-878h174v-203h-174v-340h-213v340h-602zM397 543h355v559z" />
<glyph unicode="5" horiz-adv-x="1286" d="M266 27v227q53 -20 107 -35q45 -14 97 -24.5t97 -10.5q162 0 227.5 78t65.5 211q0 106 -46 172t-134 66q-49 0 -95 -21.5t-81 -46.5q-41 -31 -78 -68l-160 52v796h742v-215h-527v-358q41 25 95.5 49.5t134.5 24.5q88 0 159.5 -34t122.5 -93.5t80 -141.5t29 -178 q0 -109 -33 -201t-98.5 -159.5t-162.5 -105.5t-224 -38q-43 0 -98.5 8.5t-104.5 18.5q-57 10 -115 27z" />
<glyph unicode="6" horiz-adv-x="1261" d="M188 686v45q2 123 18.5 247t64.5 224.5t135.5 165t232.5 68.5h23q113 -2 185.5 -39t115.5 -92.5t60 -121t21 -122.5h-188q-4 23 -14.5 50.5t-32 52t-56 42t-89.5 19.5h-17q-78 -2 -126 -35t-74.5 -83t-35 -107.5t-8.5 -108.5v-23q43 35 110 64t155 33h16q78 0 145.5 -32 t116.5 -91.5t78 -145.5t29 -198v-31q0 -104 -30 -193.5t-85 -156t-132 -104.5t-169 -40h-19q-123 2 -205.5 54.5t-132 145.5t-71 223t-21.5 290zM412 465q4 -133 65.5 -204t147.5 -73h12q35 0 69.5 16.5t62.5 50.5t44 84t16 120v28q0 115 -49 181.5t-135 68.5h-10 q-104 -4 -161.5 -71.5t-61.5 -184.5v-16z" />
<glyph unicode="7" horiz-adv-x="1093" d="M102 1214v207h889l-553 -1421h-239l473 1214h-570z" />
<glyph unicode="8" horiz-adv-x="1308" d="M178 362q0 74 22.5 134.5t59.5 107.5t82 82t90 57q-35 23 -71.5 54.5t-65.5 73.5t-47.5 95.5t-18.5 116.5q0 72 30 136.5t85 112.5t134 76t177 28q104 0 183.5 -29t132.5 -75t80.5 -106.5t27.5 -123.5q0 -68 -18.5 -123t-47 -99t-63.5 -77t-69 -55q43 -23 87 -59 t79.5 -84t59 -108.5t23.5 -131.5q0 -72 -29.5 -141.5t-89 -125t-147.5 -90.5t-207 -35q-113 0 -201.5 29t-150 80t-94.5 122.5t-33 157.5zM422 354q0 -45 19.5 -78.5t53 -55t75.5 -33t89 -11.5q45 0 87 12.5t74 35t51.5 55t19.5 75.5q0 59 -23.5 108.5t-58.5 84.5t-78 54.5 t-80 19.5q-35 0 -75.5 -18.5t-74.5 -52.5t-56.5 -83t-22.5 -113zM465 1090q0 -49 17.5 -92.5t45 -77t63.5 -53t71 -19.5t67.5 18.5t58 50t41 74.5t15.5 94q0 68 -54.5 108t-136.5 40q-74 0 -131 -37.5t-57 -105.5z" />
<glyph unicode="9" horiz-adv-x="1236" d="M170 940q0 106 30.5 196.5t88 156t138.5 103.5t183 38q115 0 196 -41t131 -117t72.5 -183.5t22.5 -238.5q0 -82 -10 -187.5t-34.5 -215t-66.5 -214t-103.5 -185.5t-146.5 -131t-198 -50q-37 0 -79 6t-77 17q-41 10 -81 24v227q37 -18 73 -30q31 -10 68 -19.5t65 -9.5 q84 0 143.5 48t99.5 119t63.5 151.5t33.5 146.5q-35 -29 -90 -51.5t-135 -22.5q-86 0 -156.5 31t-122 90t-80 145t-28.5 197zM410 946q0 -117 45 -190.5t141 -73.5q106 0 151.5 77t45.5 197q0 131 -48.5 200t-136.5 69q-82 0 -140 -66.5t-58 -212.5z" />
<glyph unicode=":" horiz-adv-x="1030" d="M348 141q0 72 50.5 120t117.5 48q72 0 119 -48t47 -120t-47 -120t-119 -48q-68 0 -118 48.5t-50 119.5zM348 817q0 70 50.5 118t117.5 48q72 0 119 -49t47 -117q0 -72 -47 -120t-119 -48q-70 0 -119 48t-49 120z" />
<glyph unicode=";" horiz-adv-x="753" d="M195 -279l178 560h303l-340 -603zM322 811q0 68 48 117t119 49q72 0 120 -49t48 -117q0 -70 -48 -119t-120 -49t-119.5 48t-47.5 120z" />
<glyph unicode="&#x3c;" horiz-adv-x="1687" d="M348 408v182l916 346l75 -203l-620 -233l620 -238l-75 -201z" />
<glyph unicode="=" horiz-adv-x="1837" d="M430 244v215h977v-215h-977zM430 592v217h977v-217h-977z" />
<glyph unicode="&#x3e;" horiz-adv-x="1687" d="M348 262l621 238l-621 233l74 203l917 -346v-182l-917 -347z" />
<glyph unicode="?" horiz-adv-x="1112" d="M215 1454q55 33 117 59q53 23 117.5 41.5t134.5 18.5h21.5t21.5 -2q76 -6 147.5 -37t126.5 -85t89 -133t34 -183q0 -96 -35 -161t-85 -106t-105.5 -62.5t-98.5 -31.5v-242h-211v402h58q25 2 61.5 13t73.5 35t65.5 61.5t34.5 91.5v16q0 45 -13 86t-38.5 72.5t-65.5 50 t-94 18.5q-47 0 -95 -14t-87 -31q-45 -20 -88 -45zM426 143q0 72 50 121t122 49q33 0 63.5 -13t54 -36.5t37 -54.5t13.5 -66t-13.5 -66.5t-37 -54t-54 -36t-63.5 -13.5q-72 0 -122 49.5t-50 120.5z" />
<glyph unicode="@" horiz-adv-x="2058" d="M182 750q0 170 66.5 325.5t181.5 275t267.5 190.5t324.5 71h43q147 0 291.5 -38t260.5 -115t187.5 -191.5t71.5 -268.5q0 -123 -51 -240.5t-130 -208.5t-172 -146.5t-175 -55.5q-94 0 -136.5 39t-54.5 90q-43 -47 -103.5 -87t-152.5 -40q-98 0 -152.5 71t-54.5 189 q0 72 9.5 167t42 181t95 145.5t167.5 59.5q43 0 74.5 -14t54.5 -31v31h176q-2 -152 -2 -272v-289q0 -31 16 -45.5t39 -14.5q49 0 104.5 37t101.5 99.5t75.5 143.5t29.5 171v14q-8 104 -64.5 186.5t-141.5 137.5t-190 85t-212 30q-139 0 -262 -54.5t-216 -146.5t-147.5 -216 t-54.5 -263t51.5 -260t139.5 -210t207.5 -141.5t259.5 -52.5q92 0 194 26.5t193 61.5q104 37 206 88l74 -174q-121 -53 -244 -92q-53 -18 -110 -34.5t-116.5 -29t-117 -20.5t-108.5 -8q-172 0 -323.5 63.5t-265.5 177t-180.5 267t-66.5 336.5zM907 614q0 -29 7.5 -50 t31.5 -21q20 0 43 12t44.5 30.5t42 40.5t34.5 40q6 6 8 34.5t4 66.5t2 78v70v37q-16 8 -49 18.5t-74 10.5q-33 0 -51 -27.5t-27.5 -70.5t-12.5 -92.5t-3 -92.5v-84z" />
<glyph unicode="A" horiz-adv-x="1413" d="M92 0l473 1548h240l473 -1548h-246l-119 416h-458l-119 -416h-244zM516 627h334q-23 74 -45 145q-18 61 -39 128t-33 118q-10 37 -17 83t-13.5 91t-10.5 84t-6 61h-4q-2 -23 -6 -61.5t-10.5 -83.5t-14.5 -91t-16 -83q-14 -51 -34.5 -117.5t-39.5 -128.5q-23 -72 -45 -145 z" />
<glyph unicode="B" horiz-adv-x="1280" d="M182 0v1548h451q66 0 146.5 -8t151 -46t118 -116t47.5 -215q0 -70 -15.5 -125t-40 -96t-54.5 -70.5t-58 -50.5q41 -18 80 -45.5t69.5 -72t50 -108t19.5 -151.5q0 -74 -16.5 -131t-40 -100t-49 -72.5t-46.5 -48.5v2q-72 -61 -169 -77.5t-232 -16.5h-412zM412 201h227 q45 0 95 13t90 42t67 77t27 120q0 68 -27 112.5t-69 72.5t-93 39t-100 11h-217v-487zM412 897h172q41 0 90 7t91 33t70.5 74t28.5 132q0 61 -21.5 101t-55 62.5t-75.5 32t-83 9.5h-217v-451z" />
<glyph unicode="C" horiz-adv-x="1351" d="M117 774v23q2 160 46 301t127 246.5t205.5 167t286.5 61.5h9q115 -2 196.5 -39t134.5 -82q63 -53 105 -117l-178 -131q-12 16 -35 42t-55.5 51.5t-77.5 44t-103 18.5q-88 0 -163.5 -38t-132 -109.5t-88.5 -174t-32 -229.5v-21q0 -135 35 -246.5t93.5 -190.5t134 -122 t159.5 -43q53 0 108.5 26t98.5 58q51 37 99 86l165 -153q-72 -63 -151 -115q-70 -43 -156 -79t-178 -36q-158 0 -279.5 61.5t-204.5 169t-126 254t-43 316.5z" />
<glyph unicode="D" horiz-adv-x="1423" d="M170 0v201h117v1147h-117v200h471q70 0 144.5 -9t145 -36.5t133 -80t109 -137.5t74 -209t27.5 -294q0 -403 -172 -592.5t-488 -189.5h-444zM518 199h129q96 0 168 43t119 121.5t70.5 187t23.5 240.5q0 166 -31.5 273t-86 169.5t-126 87.5t-151.5 25h-115v-1147z" />
<glyph unicode="E" horiz-adv-x="1095" d="M164 0v1548h850v-200h-619v-437h457v-200h-457v-510h619v-201h-850z" />
<glyph unicode="F" horiz-adv-x="1083" d="M164 0v1548h837v-200h-608v-445h475v-201h-475v-702h-229z" />
<glyph unicode="G" horiz-adv-x="1402" d="M129 786q0 160 33 303.5t106.5 251t189 170t281.5 62.5q92 0 160 -19.5t118 -52.5t83 -74t53 -84q49 -100 49 -227h-225q-8 68 -35 121q-23 45 -71 84t-132 39q-82 0 -148.5 -40t-114.5 -112.5t-73.5 -175t-25.5 -229.5q0 -141 23.5 -255t69.5 -195t113.5 -124t155.5 -43 q33 0 68 3.5t67.5 8.5t62.5 11t50 12v379h-332v201h564v-717q-70 -33 -148 -55q-66 -23 -148.5 -39.5t-166.5 -16.5h-21q-168 4 -283.5 66.5t-187 171t-103.5 255t-32 320.5z" />
<glyph unicode="H" horiz-adv-x="1456" d="M217 0v1548h232v-645h559v645h231v-1548h-231v702h-559v-702h-232z" />
<glyph unicode="I" horiz-adv-x="1003" d="M180 0v201h205v1149h-205v198h643v-198h-207v-1149h207v-201h-643z" />
<glyph unicode="J" horiz-adv-x="1216" d="M31 432v64h235v-52q0 -14 5 -56t25.5 -86t60.5 -79t108 -35q47 0 89 13.5t72.5 39t49 65.5t18.5 95v949h-207v200h648v-200h-209v-947q0 -104 -35 -184t-96.5 -135t-146.5 -83t-185 -28q-96 0 -166 27t-118 69t-77.5 94t-45 103t-20.5 95.5t-5 70.5z" />
<glyph unicode="K" horiz-adv-x="1228" d="M156 0v1548h231v-671l588 716l190 -125l-600 -700q150 -166 306.5 -338t304.5 -338l-203 -145l-586 694v-641h-231z" />
<glyph unicode="L" horiz-adv-x="1124" d="M184 0v1548h232v-1347h626v-201h-858z" />
<glyph unicode="M" horiz-adv-x="1660" d="M207 0v1548h248q82 -190 151 -356q31 -72 60.5 -143.5t55.5 -135t46 -113.5t33 -79q12 -35 18 -81t10 -87q4 41 10.5 87t20.5 81q10 29 30.5 79t47.5 113.5t56.5 135t60.5 143.5q70 166 151 356h248v-1548h-223v913v90.5t8 118.5q-6 -23 -16.5 -54.5t-22.5 -62t-23.5 -56 t-15.5 -36.5l-252 -567h-159l-250 567q-4 10 -15.5 36t-23.5 56.5t-22.5 62.5t-16.5 54q8 -66 8 -119v-90v-913h-223z" />
<glyph unicode="N" horiz-adv-x="1411" d="M221 0v1548h228l442 -854l20 -39q23 -43 44.5 -94t31.5 -98q-18 135 -18 205v26v854h221v-1548h-176l-506 958l-10 19q-23 43 -43.5 96t-30.5 101q18 -135 18 -205v-11v-958h-221z" />
<glyph unicode="O" horiz-adv-x="1507" d="M145 774q0 180 38 327.5t115 252t190.5 162t265.5 57.5q150 0 264.5 -57.5t190 -162t114.5 -252t39 -327.5t-38 -327.5t-114.5 -253t-190.5 -163t-265 -57.5q-152 0 -266.5 57.5t-190.5 163t-114 253t-38 327.5zM393 774q0 -133 22.5 -241.5t67.5 -185.5t113 -119 t158 -42q92 0 159.5 42t112.5 119t66.5 185.5t21.5 241.5q0 131 -22.5 239.5t-67.5 185.5t-112.5 119t-157.5 42t-157 -42t-113 -119t-68.5 -185.5t-22.5 -239.5z" />
<glyph unicode="P" horiz-adv-x="1204" d="M182 0v1548h434q68 0 151 -8t154.5 -49t121 -127t49.5 -242q0 -147 -44 -242.5t-116 -150.5t-162 -76.5t-182 -21.5h-174v-631h-232zM414 829h159q53 0 105.5 11.5t92.5 44.5t64.5 88t24.5 145q0 76 -25.5 122t-63.5 69.5t-84 31t-85 7.5h-188v-519z" />
<glyph unicode="Q" horiz-adv-x="1540" d="M121 774q0 180 38 327.5t114.5 252t190.5 162t265 57.5q150 0 264.5 -57.5t190.5 -162t114.5 -252t38.5 -327.5q0 -188 -44 -345t-130 -261q51 -43 104.5 -84t96.5 -72q51 -37 98 -69l-241 -136q-45 35 -91 72q-39 31 -82.5 69t-80.5 72q-104 -47 -238 -47 q-152 0 -266.5 57.5t-190 163t-113.5 253t-38 327.5zM369 774q0 -133 23.5 -241.5t69.5 -185.5t114.5 -119t158.5 -42q20 0 35.5 1t32.5 6q-25 29 -51.5 55t-49.5 49q-27 25 -51 51l144 184q20 -23 51 -53q25 -27 61.5 -63.5l83.5 -83.5q51 82 75 194.5t24 247.5 q0 131 -21.5 239.5t-66 185.5t-111 119t-156.5 42t-157.5 -42t-114.5 -119t-70.5 -185.5t-23.5 -239.5z" />
<glyph unicode="R" horiz-adv-x="1269" d="M178 2v1546h438q68 0 151 -8t154.5 -48t121 -127t49.5 -243q0 -90 -27 -157.5t-68 -117.5t-90 -84t-96 -52l377 -699l-238 -53l-379 721h-161v-678h-232zM410 879h163q53 0 105.5 9t92.5 34.5t64.5 72.5t24.5 123t-25.5 122t-63.5 69.5t-84 31t-85 7.5h-192v-469z" />
<glyph unicode="S" horiz-adv-x="1202" d="M123 113l86 211q72 -37 141 -64q59 -23 130 -42q64 -17 120 -17h12q51 0 98.5 15t83 42t57 64.5t21.5 85.5q0 57 -25.5 101t-67.5 79t-97 63.5t-113 57.5q-72 35 -141.5 72.5t-124.5 89t-89 120t-34 162.5q0 100 42 179t110.5 132.5t155.5 81t178 27.5q86 0 161.5 -20.5 t135.5 -45.5q68 -29 129 -65l-88 -205q-51 31 -107 53q-47 20 -109.5 38t-128.5 18q-41 0 -82.5 -10.5t-74.5 -32t-53.5 -53t-20.5 -76.5q0 -47 23.5 -83t61.5 -67t86 -56.5t97 -49.5q55 -29 109.5 -59t101.5 -66q94 -76 152.5 -162t58.5 -203q0 -106 -41 -190 t-110.5 -142.5t-163.5 -90.5t-201 -32q-88 0 -173 21.5t-153 48.5q-80 31 -153 70z" />
<glyph unicode="T" horiz-adv-x="1243" d="M129 1348v200h985v-200h-379v-1348h-229v1348h-377z" />
<glyph unicode="U" horiz-adv-x="1437" d="M199 434v1112h231v-1108q0 -117 71.5 -184.5t207.5 -67.5q133 0 215 61.5t82 190.5v1108h233v-1112q0 -209 -134 -335t-398 -126q-262 0 -385 125t-123 336z" />
<glyph unicode="V" horiz-adv-x="1433" d="M102 1548h242l295 -905l33 -113l8 -28q8 -31 19.5 -82t15.5 -94h4q4 43 15 94t20 82l8 28l33 113l295 905h241l-510 -1550h-209z" />
<glyph unicode="W" horiz-adv-x="1769" d="M115 1550h229l193 -907l4 -25q2 -16 5 -44.5t6 -62.5t6 -66.5t7 -55.5q5 57 5 102v15v7q0 48 12 105l4 25l166 760h133h133l166 -760l4 -25q11 -56 11 -104v-8v-15q0 -46 5 -102q2 23 6 55.5t7.5 66.5t6.5 62.5t5 44.5l4 25l192 907h230l-340 -1550h-221l-140 680l-4 22 l-39 197l-4 25q-2 14 -4 40.5t-5 59.5t-6 67.5t-7 67.5q-4 -33 -7.5 -67.5t-6.5 -67.5t-5 -59.5t-4 -40.5l-4 -25l-39 -197l-4 -22l-139 -680h-221z" />
<glyph unicode="X" horiz-adv-x="1458" d="M109 0l479 807l-449 741h275l317 -532q78 133 158 267t158 265h272l-447 -739l478 -809h-277l-342 592l-346 -592h-276z" />
<glyph unicode="Y" horiz-adv-x="1431" d="M72 1548h284l361 -671l360 671h283l-526 -907v-641h-232v643q-61 106 -128.5 221t-136.5 231.5t-136.5 231.5t-128.5 221z" />
<glyph unicode="Z" horiz-adv-x="1249" d="M133 0v176l660 1172h-627v200h921v-166l-661 -1181h690v-201h-983z" />
<glyph unicode="[" horiz-adv-x="919" d="M129 -563v2152h469v-182h-248v-1784h248v-186h-469z" />
<glyph unicode="\" horiz-adv-x="1216" d="M82 1630h233l820 -2195h-234z" />
<glyph unicode="]" horiz-adv-x="919" d="M322 -377h247v1784h-247v182h469v-2152h-469v186z" />
<glyph unicode="^" horiz-adv-x="1128" d="M96 590l371 960h195l370 -956h-237l-230 637q-57 -160 -116.5 -323t-116.5 -318h-236z" />
<glyph unicode="_" horiz-adv-x="1683" d="M307 -109h1069v-206h-1069v206z" />
<glyph unicode="`" horiz-adv-x="643" d="M63 1413l132 191l385 -383l-84 -125z" />
<glyph unicode="a" d="M119 283q0 82 28.5 140t74.5 98t104.5 63.5t118 37t113.5 18.5t93 7v41q0 137 -133 137q-57 0 -107.5 -13t-91.5 -30q-47 -18 -88 -41l-61 152q39 35 92 63q47 23 115.5 43.5t161.5 22.5h12q88 0 148.5 -21.5t97.5 -61.5t53 -95.5t16 -122.5v-494q0 -16 13.5 -29.5 t29.5 -13.5h82v-184h-172q-57 0 -94 24.5t-53 63.5q-20 -16 -47 -35.5t-60 -37t-70.5 -30t-80.5 -12.5q-63 0 -117.5 21.5t-93.5 61.5t-61.5 97.5t-22.5 129.5zM330 293q0 -45 28.5 -86t112.5 -41q29 0 58.5 19.5t58.5 43.5q31 27 63 64v168q-39 -2 -94 -7t-105.5 -22.5 t-86 -50.5t-35.5 -88z" />
<glyph unicode="b" horiz-adv-x="1107" d="M162 233v1395h213v-694q57 37 134.5 63.5t149.5 26.5q86 0 147.5 -38t101.5 -102.5t59.5 -150.5t19.5 -182q0 -109 -33.5 -213.5t-93 -185t-138.5 -130t-169 -49.5q-29 0 -64.5 3.5t-73.5 9.5t-73 16t-59 27q-25 16 -47.5 37.5t-38.5 48.5q-20 29 -27.5 56.5t-7.5 61.5z M377 217q0 -6 15.5 -13t39 -14.5t51 -12.5t52.5 -5q53 0 96 35t72.5 90t45 121.5t15.5 130.5q0 53 -3 103t-16.5 90t-39 64.5t-70.5 24.5q-33 0 -71 -10t-72.5 -25.5t-65.5 -33t-49 -29.5v-516z" />
<glyph unicode="c" horiz-adv-x="1067" d="M143 465q0 96 22.5 195.5t74 179.5t132.5 131t197 51q78 0 142.5 -23.5t111.5 -52.5q55 -33 101 -74l-90 -165q-41 33 -84 59q-37 23 -83 41t-89 18q-61 0 -102.5 -24.5t-66 -68.5t-36 -105.5t-11.5 -134.5q0 -59 8.5 -117t30 -104t58.5 -73.5t96 -27.5q41 0 92 14.5 t96 32.5q53 23 105 49l70 -174q-57 -33 -121 -57q-53 -23 -122 -41.5t-138 -20.5h-7q-92 0 -163.5 35t-121.5 99.5t-76 155.5t-26 202z" />
<glyph unicode="d" horiz-adv-x="1204" d="M115 432q0 66 13 139.5t38 133.5q47 121 139 210h-2q57 55 120.5 81t129.5 26h10q59 0 95 -9t71 -20v453h-125v182h340v-1399q0 -16 13.5 -29.5t29.5 -17.5h82v-182h-170q-29 0 -49.5 10t-34.5 26.5t-23.5 35t-17.5 34.5q-25 -16 -57.5 -38.5t-73.5 -44t-91 -36 t-112 -14.5q-154 0 -239.5 122t-85.5 337zM336 434q0 -55 4 -103t18.5 -85t41 -57.5t71.5 -20.5q61 0 135 35t129 71v519q0 2 -38 15t-111 13q-55 0 -100.5 -38t-79 -96t-52 -125.5t-18.5 -127.5z" />
<glyph unicode="e" horiz-adv-x="1116" d="M143 500q0 111 32 206t89.5 165.5t137 110.5t176.5 40h14q133 -4 210 -64.5t114.5 -143.5t47 -173t9.5 -156v-65h-604q8 -39 27.5 -82t51 -80t77.5 -61.5t108 -24.5q35 0 80 14.5t86 30.5q47 20 94 47l72 -176q-57 -33 -117 -57q-51 -23 -112.5 -40.5t-119.5 -17.5 q-102 0 -189 38t-149.5 106.5t-98.5 166t-36 216.5zM369 608h395q-2 33 -11.5 73t-31 75t-55 57.5t-84.5 22.5q-57 0 -96.5 -22.5t-64 -56.5t-36.5 -74t-16 -75z" />
<glyph unicode="f" horiz-adv-x="858" d="M98 797v186h154v299q0 59 9 121.5t42 114t95.5 84t166.5 32.5q53 0 100.5 -12t84.5 -29q43 -18 81 -39l-69 -161q-39 14 -76 24q-31 10 -65.5 18.5t-57.5 8.5q-59 0 -77.5 -47t-18.5 -117v-297h295v-186h-295v-797h-215v797h-154z" />
<glyph unicode="g" horiz-adv-x="1155" d="M94 -465l111 160q49 -43 104 -78q47 -29 106.5 -53.5t121.5 -24.5q57 0 95 16.5t60.5 42t31.5 58.5t9 65v65t-1 86t-2 91t-1 76v20q-29 -14 -64.5 -29.5t-74.5 -27.5t-80 -20.5t-78 -8.5q-147 0 -237.5 122t-90.5 341q0 119 24 225.5t73 186.5t122.5 127t174.5 47 q41 0 83 -11.5t78.5 -27.5t69.5 -34.5t55 -35.5q16 25 43 47.5t62 22.5h172v-184h-45q-12 0 -26.5 -3t-26 -12.5t-19.5 -30t-8 -53.5v-976q0 -72 -21.5 -140.5t-68.5 -122t-121 -86t-180 -32.5q-104 0 -186.5 29.5t-141.5 66.5q-68 41 -123 96zM330 473q0 -68 6 -124 t21.5 -96t40 -61.5t63.5 -21.5q31 0 67.5 11.5t72.5 27.5t66.5 33.5t51.5 29.5v465q-45 33 -104.5 60.5t-106.5 27.5q-45 0 -79 -28.5t-55.5 -77.5t-32.5 -112.5t-11 -133.5z" />
<glyph unicode="h" d="M180 0v1628h215v-700q55 35 131 65.5t162 30.5q92 0 144.5 -30.5t79 -78t33.5 -106.5t7 -117v-692h-213v696q0 49 -21.5 90t-62.5 41q-37 0 -74.5 -11t-72.5 -27.5t-63.5 -36t-49.5 -35.5v-717h-215z" />
<glyph unicode="i" horiz-adv-x="663" d="M158 1454q0 66 45 112t112 46q68 0 113 -46t45 -112t-45 -113t-113 -47t-112.5 46t-44.5 114zM199 0v983h223v-983h-223z" />
<glyph unicode="j" horiz-adv-x="776" d="M-106 -573l79 184q39 -20 76 -37q33 -14 70 -24.5t67 -10.5q33 0 52.5 14.5t27.5 38t10.5 54t2.5 65.5v1086h-173v186h560v-186h-172v-1121q0 -66 -14.5 -125t-51.5 -106t-101.5 -74.5t-162.5 -27.5q-43 0 -90 12t-88 29q-47 18 -92 43zM225 1454q0 66 45 112t113 46 t113 -46t45 -112t-45 -113t-113 -47t-113 46t-45 114z" />
<glyph unicode="k" horiz-adv-x="993" d="M170 0v1628h211v-979q90 96 182 193.5t178 191.5l166 -116l-350 -365l358 -477l-163 -115l-371 477v-438h-211z" />
<glyph unicode="l" horiz-adv-x="733" d="M190 264v1364h213v-1425q0 -14 13.5 -28.5t38.5 -14.5q16 0 39.5 6t44.5 14q23 8 49 21l59 -160q-31 -20 -65 -35q-29 -12 -68 -22.5t-80 -10.5q-74 0 -122 15.5t-74.5 50.5t-37 90t-10.5 135z" />
<glyph unicode="m" horiz-adv-x="1587" d="M98 799v184h172q25 0 45.5 -11t37 -27.5t27.5 -35t19 -37.5q25 23 57.5 47.5t66.5 44t66 33t58 13.5q92 0 142.5 -34t76.5 -83q27 16 61 36.5t69.5 38t71.5 30t67 12.5q92 0 144 -29t77.5 -74t33 -102t7.5 -115v-690h-213v694q0 47 -17.5 83t-70.5 36t-101.5 -21.5 t-79.5 -39.5v-752h-213v694q0 47 -19 83t-79 36q-33 0 -63.5 -20.5t-53.5 -44.5q-27 -29 -51 -64v-684h-213v625v87t-12 60q-14 27 -47 27h-66z" />
<glyph unicode="n" horiz-adv-x="1175" d="M168 -2v983h217v-84q27 16 57.5 35.5t66.5 37t75 29t82 11.5q92 0 145 -29t81 -75t36 -103.5t8 -116.5v-467q0 -16 10 -26.5t27 -10.5h88v-184h-160q-74 0 -127 52t-53 126v514q0 49 -19.5 86t-76.5 37q-80 0 -143.5 -35t-98.5 -65v-715h-215z" />
<glyph unicode="o" horiz-adv-x="1165" d="M150 489q0 106 24.5 204t77.5 169.5t136 114.5t202 43q113 0 192.5 -40t132 -109.5t77 -163.5t24.5 -203t-25.5 -206t-79 -169t-137.5 -114t-203 -42q-111 0 -190.5 40t-130.5 110t-75.5 164t-24.5 202zM383 512q0 -76 9 -140.5t31.5 -110.5t62 -72.5t98.5 -26.5 q57 0 95 25.5t60.5 70.5t32.5 108.5t10 139.5q0 63 -10 121.5t-32.5 103.5t-61.5 71.5t-96 26.5t-95 -25.5t-62 -69.5t-33 -101.5t-9 -120.5z" />
<glyph unicode="p" horiz-adv-x="1140" d="M72 801v184h170q45 0 73.5 -30.5t44.5 -61.5q18 18 49 41.5t73 43t97.5 34t122.5 14.5q152 0 238 -122t86 -337q0 -66 -12.5 -137.5t-36.5 -130.5q-25 -59 -59.5 -115.5t-79.5 -99.5h2q-59 -55 -122 -81t-128 -26h-12q-41 0 -86.5 7.5t-79.5 17.5v-637h-213v1206 q0 57 -4.5 119t-16.5 82q-8 16 -22.5 22.5t-26.5 6.5h-57zM406 211q0 -6 14 -11t35.5 -10.5t48 -8.5t53.5 -3h14q55 6 97.5 44t72 94.5t45 123t15.5 125.5q0 55 -3 103.5t-16.5 84t-39 57t-70.5 21.5q-43 0 -84 -16t-77 -37.5t-63.5 -44t-41.5 -35.5v-487z" />
<glyph unicode="q" horiz-adv-x="1169" d="M135 444q0 109 38 213.5t102.5 185.5t146.5 130t172 49q76 0 137.5 -13.5t110.5 -45.5q25 -16 47 -39t41 -45q35 -49 35 -119v-1213h98v-184h-410v184h99v508q-51 -27 -122 -54.5t-145 -27.5q-86 0 -150.5 38t-109.5 102.5t-67.5 149.5t-22.5 181zM358 446 q0 -53 6.5 -103t24 -89t47 -62.5t76.5 -23.5q33 0 67.5 9t67.5 22.5t59.5 30t45.5 28.5v533q0 10 -15.5 21t-56.5 15q-16 2 -30.5 2t-39.5 -4q-57 -6 -104 -43t-80 -90t-50.5 -117.5t-17.5 -128.5z" />
<glyph unicode="r" horiz-adv-x="927" d="M150 0v184h77v619h-73v180h266v-168h16q45 51 99 92q45 35 103 64.5t124 29.5q49 0 77.5 -7t30.5 -7l13 -4v-215l-25 8q-18 6 -51 9t-68 3q-63 0 -114.5 -21.5t-91 -50t-68.5 -60t-45 -52.5v-420h80v-184h-350z" />
<glyph unicode="s" horiz-adv-x="985" d="M135 80l88 172q49 -25 99 -43q41 -16 90 -28.5t92 -12.5q49 0 87 41t38 96q0 27 -14.5 45.5t-38 32.5t-53 26.5t-62.5 24.5q-47 18 -96.5 40t-89 54.5t-65.5 78.5t-26 114q0 66 26 122t71 97q45 40 107 62q57 20 122 20h12q59 -4 115.5 -18.5t99.5 -30.5q51 -20 97 -45 l-91 -172q-39 20 -75 37q-33 14 -73 24t-77 10q-47 -2 -79.5 -22.5t-32.5 -69.5q0 -53 51 -80.5t118 -52.5q49 -18 98.5 -38.5t88.5 -52.5t63.5 -79t24.5 -117q0 -76 -28.5 -139t-77 -108t-113 -70t-135.5 -25q-66 0 -128.5 16.5t-115.5 37.5q-61 23 -117 53z" />
<glyph unicode="t" horiz-adv-x="833" d="M82 797v188h160v436h211v-436h319v-188h-319v-797h-211v797h-160z" />
<glyph unicode="u" horiz-adv-x="1140" d="M188 293v690h215v-692q0 -47 39 -84t113 -37h47q72 0 104.5 36t32.5 85v692h213v-690q0 -57 -12 -114.5t-47 -102.5t-99.5 -74t-170.5 -29h-103q-104 0 -169.5 29t-101.5 74t-48.5 102.5t-12.5 114.5z" />
<glyph unicode="v" horiz-adv-x="1130" d="M90 983h242l231 -684q27 80 57.5 168t60.5 177t59.5 175t56.5 164h243l-391 -983h-170z" />
<glyph unicode="w" horiz-adv-x="1468" d="M98 985h242l143 -647q37 137 75 267t73 263h205l149 -528l143 645h242l-297 -985h-170l-170 588l-168 -588h-170z" />
<glyph unicode="x" horiz-adv-x="1187" d="M119 59l362 453l-317 424l221 84l221 -342q59 86 122 173t118 167l211 -84l-332 -412l344 -465l-213 -77l-252 368q-66 -86 -137.5 -184t-132.5 -184z" />
<glyph unicode="y" horiz-adv-x="1081" d="M37 -575l82 184q39 -20 76 -37q33 -14 69.5 -25.5t67.5 -11.5q41 0 58.5 36t33.5 91l82 352q-47 16 -85 61.5t-63 104.5l-2 6q-14 37 -33.5 90.5t-41 114t-44 126t-42.5 126.5q-51 145 -107 307l199 76l270 -790q0 -4 2 -7q0 -4 1 -5t1 -3l221 805l201 -78l-367 -1362 q-14 -49 -36.5 -94t-57.5 -79t-83 -53t-111 -19q-45 0 -95.5 12t-93.5 29q-51 18 -102 43z" />
<glyph unicode="z" horiz-adv-x="1101" d="M158 0v147l473 644h-432v192h716v-145l-469 -645h498v-193h-786z" />
<glyph unicode="{" horiz-adv-x="976" d="M76 430v184h100q78 0 110.5 27t32.5 92v535q0 94 27 155.5t74 98.5t114.5 52t151.5 15h102v-184h-98q-84 0 -116.5 -29.5t-32.5 -105.5v-535q0 -88 -30 -136t-71 -77q47 -33 74 -82t27 -145v-537q0 -68 30.5 -99.5t108.5 -31.5h108v-184h-102q-86 0 -153.5 15.5 t-114.5 52t-73 98t-26 151.5v537q0 68 -31.5 100.5t-109.5 32.5h-102z" />
<glyph unicode="|" horiz-adv-x="1030" d="M410 -612v2261h211v-2261h-211z" />
<glyph unicode="}" horiz-adv-x="976" d="M188 -373h109q78 0 108.5 32t30.5 99v537q0 96 26.5 145t74.5 82q-41 29 -71 77t-30 136v535q0 76 -32.5 105.5t-116.5 29.5h-99v184h103q82 0 150.5 -15t115.5 -52t73.5 -98.5t26.5 -155.5v-535q0 -66 33 -92.5t111 -26.5h100v-184h-102q-78 0 -110 -32.5t-32 -100.5 v-537q0 -90 -25.5 -151.5t-72.5 -98t-114.5 -52t-153.5 -15.5h-103v184z" />
<glyph unicode="~" horiz-adv-x="1937" d="M410 352v45q0 41 13 99.5t46 113.5q82 143 246 144q84 0 165 -38t156 -81q59 -35 113.5 -61.5t91.5 -26.5q35 0 54.5 16.5t29.5 42t13 55t5 56.5h185v-43q0 -74 -22.5 -138.5t-62.5 -112.5t-95.5 -76t-122.5 -28q-78 0 -144.5 29t-115.5 55l-39 25q-70 41 -127.5 68.5 t-102.5 27.5q-27 0 -45 -11t-28.5 -29.5t-16.5 -40t-8 -42.5q0 -10 -1 -28.5t-1 -20.5h-186z" />
<glyph unicode="&#xa1;" horiz-adv-x="978" d="M262 813q0 72 51.5 120t122.5 48q37 0 69 -13.5t55.5 -36t36.5 -53t13 -65.5t-13 -65.5t-36.5 -53t-55.5 -36t-69 -13.5q-72 0 -123 48t-51 120zM291 -594l59 1057h170l58 -1057h-287z" />
<glyph unicode="&#xa2;" horiz-adv-x="954" d="M70 627q0 117 26.5 212t73.5 165.5t112.5 114.5t145.5 59v165h178v-165q53 -12 101.5 -35t83.5 -45q41 -25 75 -54l-96 -135q-18 12 -41 25q-20 10 -51 21.5t-72 19.5v-629q33 10 66 23.5t59 25.5q31 14 60 31l51 -174q-31 -25 -68 -47q-33 -18 -75 -35.5t-93 -28.5v-194 h-178v180q-84 6 -149.5 46t-112.5 105.5t-71.5 153.5t-24.5 195zM287 655q0 -49 8 -99t25.5 -92t44 -75t63.5 -49v631q-72 -33 -106.5 -115t-34.5 -201z" />
<glyph unicode="&#xa3;" horiz-adv-x="1265" d="M109 672v217h182q-8 41 -15.5 104.5t-7.5 130.5q0 98 35 176t98.5 132.5t151.5 83t195 28.5q66 0 131 -16.5t116 -36.5q59 -23 113 -53l-96 -187q-47 23 -94 41q-41 16 -89.5 28.5t-95.5 12.5q-109 0 -170 -55t-65 -150v-22q0 -47 5 -107.5t13 -109.5h318v-217h-273 q10 -45 19.5 -114t9.5 -140q0 -61 -6 -110.5t-17 -90.5h590v-217h-1034v217h215q10 41 16 89t6 118q0 80 -8 141.5t-18 106.5h-225z" />
<glyph unicode="&#xa4;" horiz-adv-x="1388" d="M156 389l135 127q-76 111 -76 246q0 147 84 262q-35 31 -75 68.5t-68 66.5l129 135l151 -143q115 72 258 72q76 0 140.5 -19.5t123.5 -54.5l154 145l127 -135l-145 -137q43 -59 62.5 -122.5t19.5 -137.5q0 -137 -76 -244q35 -33 72.5 -66.5t66.5 -62.5l-127 -137 l-141 135q-117 -84 -277 -84q-74 0 -143.5 21.5t-126.5 60.5l-139 -133zM395 762q0 -59 23.5 -110.5t64.5 -90.5t95.5 -61.5t115.5 -22.5t116.5 22.5t96.5 61.5t64.5 90.5t23.5 110.5t-23.5 111.5t-64.5 91.5t-96 61.5t-117 22.5q-61 0 -115.5 -22.5t-95.5 -61.5 t-64.5 -91.5t-23.5 -111.5z" />
<glyph unicode="&#xa5;" horiz-adv-x="1845" d="M279 1550h284l361 -671l360 671h283l-389 -673h274v-164h-371l-41 -70v-51h412v-164h-412v-426h-231v426h-416v164h416v53q-10 16 -19.5 33.5t-19.5 34.5h-377v164h281q-100 170 -201.5 343t-193.5 330z" />
<glyph unicode="&#xa6;" horiz-adv-x="790" d="M289 391h213v-880h-213v880zM289 666v880h213v-880h-213z" />
<glyph unicode="&#xa7;" horiz-adv-x="1107" d="M150 -174l94 205q51 -41 104 -72q45 -27 96.5 -48.5t94.5 -21.5h4q57 4 95 38t38 91q0 41 -17.5 73t-47 58.5t-67.5 48t-79 44.5q-55 29 -108.5 61.5t-95.5 75.5t-68.5 101.5t-26.5 140.5q0 72 20.5 129t51 102t67.5 77t70 54q-27 16 -54.5 38.5t-51 55.5t-38 77 t-14.5 103q0 72 26.5 135.5t76 110.5t118 74t152.5 27q68 0 126 -21.5t99 -46.5q49 -29 90 -66l-94 -217q-53 55 -119.5 89t-124.5 34q-45 0 -84 -27.5t-39 -82.5q0 -27 15.5 -49.5t42 -44t61.5 -42t72 -40.5q57 -31 114.5 -68t103.5 -83t75.5 -107.5t29.5 -141.5 q0 -70 -21.5 -125t-54 -99t-71.5 -77t-72 -57q29 -18 60.5 -45t57.5 -62t43.5 -82t17.5 -108q0 -80 -31 -148.5t-83 -118t-123 -78t-149 -28.5q-72 0 -140 25.5t-122 56.5q-63 37 -120 82zM395 643q0 -39 14.5 -68.5t38 -52t53 -41t60.5 -32.5q23 12 52.5 32.5t55 48 t44 61.5t18.5 77q0 39 -19.5 71.5t-48 59t-60.5 45t-54 30.5q-20 -12 -47 -32.5t-50.5 -48t-40 -64.5t-16.5 -86z" />
<glyph unicode="&#xa8;" horiz-adv-x="1024" d="M150 1378q0 59 43 101.5t102 42.5q61 0 103 -42.5t42 -101.5q0 -61 -42 -103t-103 -42q-59 0 -102 42t-43 103zM584 1378q0 59 43 101.5t102 42.5t102 -42t43 -102q0 -61 -43 -103t-102 -42t-102 42t-43 103z" />
<glyph unicode="&#xa9;" horiz-adv-x="1652" d="M258 1024q0 117 45 219.5t123 180t181.5 122.5t219.5 45q115 0 217.5 -42t184.5 -124q82 -80 124 -183t42 -218q0 -117 -45 -220.5t-123 -181t-180.5 -123.5t-219.5 -46t-220 45t-181 123.5t-123 182t-45 220.5zM418 1024q0 -84 32.5 -158.5t88 -130t130 -88.5t158.5 -33 q78 0 153 31t134 90q57 59 89 133t32 156t-33 156.5t-89 130t-130 88.5t-156 33q-84 0 -158.5 -32t-130 -87.5t-88 -130t-32.5 -158.5zM563 1004q0 141 71.5 223t194.5 82q43 0 80 -10.5t64.5 -23.5t45 -25.5t21.5 -16.5l23 -19l-74 -120l-47 28q-2 2 -33.5 17.5t-72.5 15.5 q-90 0 -91 -135q0 -137 76 -137q45 0 89 19.5t91 39.5l60 -139q-33 -16 -39 -19q-6 -4 -8 -4q-31 -16 -66 -26q-29 -10 -64.5 -18.5t-70.5 -8.5q-119 0 -184.5 76t-65.5 201z" />
<glyph unicode="&#xaa;" horiz-adv-x="989" d="M205 1026q0 98 47 154.5t111.5 84t132 35t110.5 7.5v18q0 92 -92 92q-41 0 -80 -10t-69 -23q-37 -14 -70 -30l-51 121q0 2 17.5 18t53 35.5t89 36t124.5 18.5h11q135 0 185 -64.5t50 -168.5v-344q0 -23 1 -33.5t5 -18.5q2 -4 4 -6q2 -6 13 -6h80v-156h-138 q-41 0 -70.5 21.5t-43.5 50.5q-31 -23 -79 -47.5t-110 -24.5q-102 0 -166.5 64.5t-64.5 175.5zM381 1034q0 -29 18.5 -57.5t77.5 -28.5q23 0 46.5 10.5t41.5 24.5q23 16 41 37v133q-31 0 -69.5 -5t-73.5 -18.5t-58.5 -36t-23.5 -59.5z" />
<glyph unicode="&#xab;" horiz-adv-x="1646" d="M111 489l397 484l164 -80l-285 -404l287 -397l-166 -82zM571 489l400 484l164 -80l-287 -404l287 -397l-164 -82z" />
<glyph unicode="&#xac;" horiz-adv-x="1611" d="M317 547v207h977v-467h-211v260h-766z" />
<glyph unicode="&#xad;" horiz-adv-x="1449" d="M430 418v211h590v-211h-590z" />
<glyph unicode="&#xae;" horiz-adv-x="1652" d="M258 1024q0 117 45 219.5t123 180t181.5 122.5t219.5 45q115 0 217.5 -42t184.5 -124q82 -80 124 -183t42 -218q0 -117 -45 -220.5t-123 -181t-180.5 -123.5t-219.5 -46t-220 45t-181 123.5t-123 182t-45 220.5zM418 1024q0 -84 32.5 -158.5t88 -130t130 -88.5t158.5 -33 q78 0 153 31t134 90q57 59 89 133t32 156t-33 156.5t-89 130t-130 88.5t-156 33q-84 0 -158.5 -32t-130 -87.5t-88 -130t-32.5 -158.5zM616 760v543h177q43 0 84 -6.5t72.5 -25t51 -51t19.5 -83.5q0 -49 -26.5 -85t-63.5 -57q20 -29 45.5 -67.5t48.5 -73.5q27 -41 53 -84 l-159 -18q-27 49 -50 94q-20 39 -40.5 75.5t-36.5 59.5h-33v-221h-142zM758 1090q29 0 53.5 -1.5t42.5 3t29.5 14.5t11.5 33q0 35 -35 42t-76 7h-26v-98z" />
<glyph unicode="&#xaf;" horiz-adv-x="952" d="M172 1274v199h608v-199h-608z" />
<glyph unicode="&#xb0;" horiz-adv-x="1003" d="M205 1225q0 70 26.5 129t71.5 104t104.5 70.5t127.5 25.5t127 -25.5t103 -70.5t70.5 -104t26.5 -129q0 -68 -26.5 -127.5t-70.5 -104.5t-103.5 -70.5t-126.5 -25.5q-68 0 -127.5 25.5t-104.5 70.5t-71.5 104.5t-26.5 127.5zM385 1225q0 -72 42 -117t108 -45t107.5 45 t41.5 117t-42 115.5t-107 43.5q-66 0 -108 -43t-42 -116z" />
<glyph unicode="&#xb1;" horiz-adv-x="1837" d="M430 0v207h977v-207h-977zM430 702v205h387v385h205v-385h385v-205h-385v-387h-205v387h-387z" />
<glyph unicode="&#xb2;" horiz-adv-x="903" d="M152 463v53q0 106 25.5 186t64.5 138.5t87 99.5t93 72q31 20 60.5 41.5t51 46t35 55.5t13.5 72q0 53 -30 95t-93 42q-57 0 -101.5 -42t-60.5 -108h-145q0 39 17 90.5t54 97.5t97.5 76.5t146.5 30.5q68 0 122 -22.5t91 -61.5t57.5 -93t20.5 -115q0 -59 -19.5 -105.5 t-50.5 -83.5t-70.5 -67.5t-80.5 -59.5l-74 -53q-76 -59 -103.5 -121.5t-31.5 -116.5h428v-147h-604z" />
<glyph unicode="&#xb3;" horiz-adv-x="888" d="M109 557l88 139q20 -25 49 -45q25 -16 61.5 -29.5t83.5 -13.5q168 0 168 168q0 49 -18.5 81t-47 50.5t-61.5 25.5t-63 7h-82v147h82q27 0 58.5 8.5t57 27t43 49t17.5 75.5q0 51 -34 86t-89 37h-14q-68 0 -96.5 -27.5t-59.5 -74.5l-121 61q4 20 21.5 53t51.5 64t87 53.5 t133 22.5q57 0 109.5 -20.5t92.5 -56.5t62.5 -86t22.5 -110q0 -88 -38 -140t-83 -81q25 -12 50.5 -33.5t47 -52.5t34.5 -74t13 -98q0 -141 -91 -227t-255 -86q-70 0 -122 15t-87 34q-41 23 -71 51z" />
<glyph unicode="&#xb4;" horiz-adv-x="643" d="M63 1221l388 383l131 -191l-435 -317z" />
<glyph unicode="&#xb5;" horiz-adv-x="1138" d="M188 -539v1522h213v-692q0 -47 39 -84t113 -37h47q72 0 104.5 36t32.5 85v692h213v-690q0 -57 -12 -114.5t-47 -102.5t-99.5 -74t-170.5 -29h-101q-35 0 -63.5 6.5t-55.5 12.5v-531h-213z" />
<glyph unicode="&#xb6;" horiz-adv-x="1419" d="M111 891q0 127 24.5 215t65.5 145.5t95 90t112.5 48t118 18.5t112.5 3h670v-192h-162v-1837h-209v1837h-100v-1837h-207v980q-27 -4 -56.5 -6t-56.5 -2q-199 0 -303 131t-104 406zM354 889q0 -162 45 -252t174 -90q12 0 28.5 1t29.5 3v668q-78 -2 -130 -12.5t-85 -45.5 t-47.5 -99.5t-14.5 -172.5z" />
<glyph unicode="&#xb7;" horiz-adv-x="1001" d="M348 543q0 63 44 108t110 45q63 0 107 -45t44 -108q0 -66 -44 -109t-107 -43q-66 0 -110 44t-44 108z" />
<glyph unicode="&#xb8;" horiz-adv-x="651" d="M113 -500l32 170q31 -29 64 -40t72 -11q12 0 28.5 1t29.5 6t22.5 16.5t9.5 29.5q0 41 -22.5 54.5t-65.5 13.5h-113l53 287l189 -11l-29 -151q25 -6 52.5 -17.5t51 -33t38 -53t14.5 -78.5v-9q0 -57 -22.5 -99t-57.5 -69.5t-77 -41t-81 -13.5q-29 0 -61.5 7t-61.5 18 q-33 10 -65 24z" />
<glyph unicode="&#xb9;" horiz-adv-x="792" d="M115 1217l311 278h131v-889h156v-147h-477v147h155v660q-47 -39 -99 -82t-95 -80z" />
<glyph unicode="&#xba;" horiz-adv-x="993" d="M205 1178q0 82 18.5 155.5t58.5 129t104.5 88t154.5 32.5q86 0 146.5 -30.5t100 -84t58 -125t18.5 -153.5q0 -84 -19.5 -156.5t-60.5 -128t-104.5 -87.5t-153.5 -32q-86 0 -146.5 30t-99 83t-57 124t-18.5 155zM383 1196q0 -59 7 -107.5t24.5 -84t46.5 -55t74 -19.5 q88 0 119.5 72.5t31.5 189.5q0 49 -7 93t-24.5 78t-47 54.5t-72.5 20.5q-45 0 -74 -19.5t-46.5 -53.5t-24.5 -77t-7 -92z" />
<glyph unicode="&#xbb;" horiz-adv-x="1644" d="M512 92l287 397q-66 96 -143.5 204t-143.5 200l164 80l399 -484l-399 -479zM971 92l286 397l-284 404l164 80l397 -484l-397 -479z" />
<glyph unicode="&#xbc;" horiz-adv-x="2156" d="M190 1212l312 279h131v-889h155v-147h-477v147h156v660q-47 -39 -99.5 -82t-95.5 -80zM807 41l459 1452h178l-459 -1452h-178zM1278 289v135l424 653h170v-641h127v-147h-127v-248h-154v248h-440zM1458 436h260v408z" />
<glyph unicode="&#xbd;" horiz-adv-x="2263" d="M190 1217l312 278h131v-889h155v-147h-477v147h156v660q-47 -39 -99.5 -82t-95.5 -80zM829 41l459 1452h178l-458 -1452h-179zM1454 47v53q0 106 25.5 186.5t64.5 138.5t87 99t93 72q31 20 61 41.5t51.5 46.5t34.5 55.5t13 71.5q0 53 -29.5 95t-93.5 42q-57 0 -101 -42 t-61 -107h-145q0 39 17.5 90t54.5 97t97 77t146 31q68 0 122.5 -22.5t91 -61.5t57 -93.5t20.5 -115.5q0 -59 -19.5 -105.5t-50 -83.5t-70.5 -67.5t-81 -59.5l-74 -53q-76 -59 -103.5 -121.5t-31.5 -115.5h428v-148h-604z" />
<glyph unicode="&#xbe;" horiz-adv-x="1935" d="M109 539l88 139q20 -25 49 -45q25 -16 61.5 -29.5t83.5 -13.5q168 0 168 168q0 49 -18.5 80.5t-47 50t-61.5 26t-63 7.5h-82v147h82q27 0 58.5 8t57 26.5t43 49.5t17.5 76q0 51 -34 86t-89 37h-14q-68 0 -96.5 -28t-59.5 -75l-121 62q4 20 21.5 53t51.5 63.5t87 53 t133 22.5q57 0 109.5 -20.5t92.5 -56t62.5 -86t22.5 -109.5q0 -88 -38 -140.5t-83 -80.5q25 -12 50.5 -34t47 -52.5t34.5 -73.5t13 -98q0 -141 -91 -227.5t-255 -86.5q-70 0 -122 15.5t-87 33.5q-41 23 -71 52zM662 41l458 1452h178l-458 -1452h-178zM1118 289v135l424 653 h170v-641h127v-147h-127v-248h-153v248h-441zM1298 436h261v408z" />
<glyph unicode="&#xbf;" horiz-adv-x="1112" d="M88 -127q0 96 35 160.5t86 105.5t106.5 62.5t98.5 31.5v242h209v-399h-58q-25 -2 -61.5 -13.5t-73.5 -35t-64.5 -61.5t-33.5 -91v-16q0 -45 12 -86t38 -73t65.5 -50.5t93.5 -18.5q47 0 95 14.5t87 30.5q45 20 88 45l86 -167q-53 -35 -115 -60q-53 -23 -118.5 -41 t-135.5 -18h-21.5t-19.5 2q-76 6 -147.5 36.5t-127.5 85t-90 133.5t-34 181zM348 815q0 70 49 119t119 49t121 -49t51 -119q0 -37 -14.5 -67.5t-38 -53t-54 -36t-65.5 -13.5q-70 0 -119 49t-49 121z" />
<glyph unicode="&#xc0;" horiz-adv-x="1413" d="M92 0l473 1548h240l473 -1548h-246l-119 416h-458l-119 -416h-244zM465 1964l131 190l385 -382l-84 -125zM516 627h334q-23 74 -45 145q-18 61 -39 128t-33 118q-10 37 -17 83t-13.5 91t-10.5 84t-6 61h-4q-2 -23 -6 -61.5t-10.5 -83.5t-14.5 -91t-16 -83 q-14 -51 -34.5 -117.5t-39.5 -128.5q-23 -72 -45 -145z" />
<glyph unicode="&#xc1;" horiz-adv-x="1413" d="M92 0l473 1548h240l473 -1548h-246l-119 416h-458l-119 -416h-244zM461 1772l387 382l131 -190l-434 -317zM516 627h334q-23 74 -45 145q-18 61 -39 128t-33 118q-10 37 -17 83t-13.5 91t-10.5 84t-6 61h-4q-2 -23 -6 -61.5t-10.5 -83.5t-14.5 -91t-16 -83 q-14 -51 -34.5 -117.5t-39.5 -128.5q-23 -72 -45 -145z" />
<glyph unicode="&#xc2;" horiz-adv-x="1413" d="M92 0l473 1548h240l473 -1548h-246l-119 416h-458l-119 -416h-244zM305 1847l383 303l383 -303l-115 -143l-268 221l-268 -221zM516 627h334q-23 74 -45 145q-18 61 -39 128t-33 118q-10 37 -17 83t-13.5 91t-10.5 84t-6 61h-4q-2 -23 -6 -61.5t-10.5 -83.5t-14.5 -91 t-16 -83q-14 -51 -34.5 -117.5t-39.5 -128.5q-23 -72 -45 -145z" />
<glyph unicode="&#xc3;" horiz-adv-x="1413" d="M92 0l473 1548h240l473 -1548h-246l-119 416h-458l-119 -416h-244zM336 1833q27 72 63 127q31 47 77 87t110 40q37 0 69.5 -16.5t61.5 -34.5l59 -41q23 -12 44.5 -25.5t43.5 -13.5q23 0 46.5 20.5t41.5 44.5q23 29 39 68l129 -57q-27 -72 -63 -127q-31 -47 -78 -87 t-109 -40q-37 0 -69.5 16t-61.5 35l-59 39q-23 14 -44.5 26.5t-43.5 12.5q-25 0 -47.5 -20.5t-40.5 -45.5q-23 -29 -39 -65zM516 627h334q-23 74 -45 145q-18 61 -39 128t-33 118q-10 37 -17 83t-13.5 91t-10.5 84t-6 61h-4q-2 -23 -6 -61.5t-10.5 -83.5t-14.5 -91t-16 -83 q-14 -51 -34.5 -117.5t-39.5 -128.5q-23 -72 -45 -145z" />
<glyph unicode="&#xc4;" horiz-adv-x="1413" d="M92 0l473 1548h240l473 -1548h-246l-119 416h-458l-119 -416h-244zM328 1921q0 59 43 101t102 42q61 0 103 -42t42 -101q0 -61 -41.5 -103t-103.5 -42q-59 0 -102 42t-43 103zM516 627h334q-23 74 -45 145q-18 61 -39 128t-33 118q-10 37 -17 83t-13.5 91t-10.5 84t-6 61 h-4q-2 -23 -6 -61.5t-10.5 -83.5t-14.5 -91t-16 -83q-14 -51 -34.5 -117.5t-39.5 -128.5q-23 -72 -45 -145zM762 1921q0 59 43 101t102 42t102.5 -42t43.5 -101q0 -61 -43 -103t-103 -42q-59 0 -102 42t-43 103z" />
<glyph unicode="&#xc5;" horiz-adv-x="1413" d="M92 0l473 1548h240l473 -1548h-246l-119 416h-458l-119 -416h-244zM481 1946q0 41 16.5 78.5t44 65.5t64.5 44t80 16t80 -16t64.5 -44t44 -64.5t16.5 -79.5t-16.5 -80t-44 -64.5t-64.5 -43t-80 -15.5q-86 0 -145.5 58.5t-59.5 144.5zM516 627h334q-23 74 -45 145 q-18 61 -39 128t-33 118q-10 37 -17 83t-13.5 91t-10.5 84t-6 61h-4q-2 -23 -6 -61.5t-10.5 -83.5t-14.5 -91t-16 -83q-14 -51 -34.5 -117.5t-39.5 -128.5q-23 -72 -45 -145zM594 1946q0 -37 28.5 -65t63.5 -28q39 0 64.5 29t25.5 64t-25.5 62.5t-64.5 27.5q-35 0 -63.5 -28 t-28.5 -62z" />
<glyph unicode="&#xc6;" horiz-adv-x="1677" d="M-41 0l725 1548h909v-209h-598v-424h447v-210h-447v-496h598v-209h-827v426h-354l-193 -426h-260zM504 639h262v573z" />
<glyph unicode="&#xc7;" horiz-adv-x="1351" d="M117 774v23q2 160 46 301t127 246.5t205.5 167t286.5 61.5h9q115 -2 196.5 -39t134.5 -82q63 -53 105 -117l-178 -131q-12 16 -35 42t-55.5 51.5t-77.5 44t-103 18.5q-88 0 -163.5 -38t-132 -109.5t-88.5 -174t-32 -229.5v-21q0 -135 35 -246.5t93.5 -190.5t134 -122 t159.5 -43q53 0 108.5 26t98.5 58q51 37 99 86l165 -153q-72 -63 -151 -115q-70 -43 -156 -79t-178 -36q-158 0 -279.5 61.5t-204.5 169t-126 254t-43 316.5zM524 -500l33 170q31 -29 63.5 -40t71.5 -11q12 0 28.5 1t30 6t22.5 16.5t9 29.5q0 41 -22.5 54.5t-65.5 13.5h-112 l53 287l188 -11l-28 -151q25 -6 52 -17.5t51 -33t38 -53t14 -78.5v-9q0 -57 -22.5 -99t-57 -69.5t-76.5 -41t-81 -13.5q-29 0 -62 7t-61 18q-33 10 -66 24z" />
<glyph unicode="&#xc8;" horiz-adv-x="1095" d="M164 0v1548h850v-200h-619v-437h457v-200h-457v-510h619v-201h-850zM354 1964l131 190l385 -382l-84 -125z" />
<glyph unicode="&#xc9;" horiz-adv-x="1095" d="M164 0v1548h850v-200h-619v-437h457v-200h-457v-510h619v-201h-850zM358 1772l387 382l132 -190l-435 -317z" />
<glyph unicode="&#xca;" horiz-adv-x="1095" d="M164 0v1548h850v-200h-619v-437h457v-200h-457v-510h619v-201h-850zM209 1847l383 303l383 -303l-115 -143l-268 221l-268 -221z" />
<glyph unicode="&#xcb;" horiz-adv-x="1095" d="M164 0v1548h850v-200h-619v-437h457v-200h-457v-510h619v-201h-850zM254 1921q0 59 43 101t102 42q61 0 103.5 -42t42.5 -101q0 -61 -42 -103t-104 -42q-59 0 -102 42t-43 103zM688 1921q0 59 43 101t103 42q59 0 102 -42t43 -101q0 -61 -43 -103t-102 -42t-102.5 42 t-43.5 103z" />
<glyph unicode="&#xcc;" horiz-adv-x="1003" d="M180 0v201h205v1149h-205v198h643v-198h-207v-1149h207v-201h-643zM242 1964l131 190l385 -382l-84 -125z" />
<glyph unicode="&#xcd;" horiz-adv-x="1003" d="M180 0v201h205v1149h-205v198h643v-198h-207v-1149h207v-201h-643zM244 1772l387 382l131 -190l-434 -317z" />
<glyph unicode="&#xce;" horiz-adv-x="1003" d="M119 1847l383 303l383 -303l-115 -143l-268 221l-269 -221zM176 0v201h205v1149h-205v198h643v-198h-207v-1149h207v-201h-643z" />
<glyph unicode="&#xcf;" horiz-adv-x="1003" d="M139 1921q0 59 43 101t103 42q61 0 103 -42t42 -101q0 -61 -42 -103t-103 -42q-59 0 -102.5 42t-43.5 103zM182 0v201h205v1149h-205v198h643v-198h-207v-1149h207v-201h-643zM573 1921q0 59 43 101t103 42q59 0 102 -42t43 -101q0 -61 -43 -103t-102 -42t-102.5 42 t-43.5 103z" />
<glyph unicode="&#xd0;" horiz-adv-x="1423" d="M123 676v196h164v469h-117v207h471q70 0 144.5 -9t145 -36.5t133 -80t109 -137.5t74 -209t27.5 -294q0 -403 -172 -592.5t-488 -189.5h-444v211h117v465h-164zM518 209h129q96 0 168 42t119 118.5t70.5 183t23.5 238.5q0 166 -31.5 272t-86 167.5t-126 85t-151.5 23.5 h-115v-467h303v-196h-303v-467z" />
<glyph unicode="&#xd1;" horiz-adv-x="1411" d="M221 0v1548h228l442 -854l20 -39q23 -43 44.5 -94t31.5 -98q-18 135 -18 205v26v854h221v-1548h-176l-506 958l-10 19q-23 43 -43.5 96t-30.5 101q18 -135 18 -205v-11v-958h-221zM311 1837q27 72 64 127q31 47 77 87t109 40q37 0 70 -16.5t61 -34.5l60 -41 q23 -12 44 -25.5t44 -13.5t46 20.5t42 44.5q23 29 39 68l129 -57q-27 -72 -64 -127q-31 -47 -78 -87t-108 -40q-37 0 -70 16.5t-61 34.5l-60 39q-23 14 -44 26.5t-44 12.5q-25 0 -47 -20.5t-41 -45.5q-23 -29 -39 -65z" />
<glyph unicode="&#xd2;" horiz-adv-x="1507" d="M145 774q0 180 38 327.5t115 252t190.5 162t265.5 57.5q150 0 264.5 -57.5t190 -162t114.5 -252t39 -327.5t-38 -327.5t-114.5 -253t-190.5 -163t-265 -57.5q-152 0 -266.5 57.5t-190.5 163t-114 253t-38 327.5zM393 774q0 -133 22.5 -241.5t67.5 -185.5t113 -119 t158 -42q92 0 159.5 42t112.5 119t66.5 185.5t21.5 241.5q0 131 -22.5 239.5t-67.5 185.5t-112.5 119t-157.5 42t-157 -42t-113 -119t-68.5 -185.5t-22.5 -239.5zM500 1964l131 190l385 -382l-84 -125z" />
<glyph unicode="&#xd3;" horiz-adv-x="1507" d="M145 774q0 180 38 327.5t115 252t190.5 162t265.5 57.5q150 0 264.5 -57.5t190 -162t114.5 -252t39 -327.5t-38 -327.5t-114.5 -253t-190.5 -163t-265 -57.5q-152 0 -266.5 57.5t-190.5 163t-114 253t-38 327.5zM393 774q0 -133 22.5 -241.5t67.5 -185.5t113 -119 t158 -42q92 0 159.5 42t112.5 119t66.5 185.5t21.5 241.5q0 131 -22.5 239.5t-67.5 185.5t-112.5 119t-157.5 42t-157 -42t-113 -119t-68.5 -185.5t-22.5 -239.5zM498 1772l387 382l131 -190l-434 -317z" />
<glyph unicode="&#xd4;" horiz-adv-x="1507" d="M145 774q0 180 38 327.5t115 252t190.5 162t265.5 57.5q150 0 264.5 -57.5t190 -162t114.5 -252t39 -327.5t-38 -327.5t-114.5 -253t-190.5 -163t-265 -57.5q-152 0 -266.5 57.5t-190.5 163t-114 253t-38 327.5zM371 1847l383 303l383 -303l-115 -143l-268 221l-269 -221 zM393 774q0 -133 22.5 -241.5t67.5 -185.5t113 -119t158 -42q92 0 159.5 42t112.5 119t66.5 185.5t21.5 241.5q0 131 -22.5 239.5t-67.5 185.5t-112.5 119t-157.5 42t-157 -42t-113 -119t-68.5 -185.5t-22.5 -239.5z" />
<glyph unicode="&#xd5;" horiz-adv-x="1507" d="M145 774q0 180 38 327.5t115 252t190.5 162t265.5 57.5q150 0 264.5 -57.5t190 -162t114.5 -252t39 -327.5t-38 -327.5t-114.5 -253t-190.5 -163t-265 -57.5q-152 0 -266.5 57.5t-190.5 163t-114 253t-38 327.5zM367 1837q27 72 63 127q31 47 77 87t109 40q37 0 70 -16.5 t62 -34.5l59 -41q23 -12 44 -25.5t44 -13.5t46.5 20.5t41.5 44.5q23 29 39 68l129 -57q-27 -72 -64 -127q-31 -47 -77.5 -87t-108.5 -40q-37 0 -69.5 16.5t-61.5 34.5l-59 39q-23 14 -44.5 26.5t-43.5 12.5q-25 0 -47.5 -20.5t-40.5 -45.5q-23 -29 -39 -65zM393 774 q0 -133 22.5 -241.5t67.5 -185.5t113 -119t158 -42q92 0 159.5 42t112.5 119t66.5 185.5t21.5 241.5q0 131 -22.5 239.5t-67.5 185.5t-112.5 119t-157.5 42t-157 -42t-113 -119t-68.5 -185.5t-22.5 -239.5z" />
<glyph unicode="&#xd6;" horiz-adv-x="1507" d="M145 774q0 180 38 327.5t115 252t190.5 162t265.5 57.5q150 0 264.5 -57.5t190 -162t114.5 -252t39 -327.5t-38 -327.5t-114.5 -253t-190.5 -163t-265 -57.5q-152 0 -266.5 57.5t-190.5 163t-114 253t-38 327.5zM389 1921q0 59 43 101t103 42q61 0 103 -42t42 -101 q0 -61 -42 -103t-103 -42q-59 0 -102.5 42t-43.5 103zM393 774q0 -133 22.5 -241.5t67.5 -185.5t113 -119t158 -42q92 0 159.5 42t112.5 119t66.5 185.5t21.5 241.5q0 131 -22.5 239.5t-67.5 185.5t-112.5 119t-157.5 42t-157 -42t-113 -119t-68.5 -185.5t-22.5 -239.5z M823 1921q0 59 43 101t103 42q59 0 102 -42t43 -101q0 -61 -43 -103t-102 -42t-102.5 42t-43.5 103z" />
<glyph unicode="&#xd7;" horiz-adv-x="2134" d="M645 250l270 268l-262 262l142 158l272 -270l266 264l156 -146l-270 -270q63 -63 134.5 -131t131.5 -127l-139 -164l-277 277l-272 -273z" />
<glyph unicode="&#xd8;" horiz-adv-x="1507" d="M145 774q0 180 38 327.5t115 252t190.5 162t265.5 57.5q150 0 264.5 -57.5t190 -162t114.5 -252t39 -327.5t-38 -327.5t-114.5 -253t-190.5 -163t-265 -57.5q-152 0 -266.5 57.5t-190.5 163t-114 253t-38 327.5zM162 -88l979 1720h211l-979 -1720h-211zM393 774 q0 -133 22.5 -241.5t67.5 -185.5t113 -119t158 -42q92 0 159.5 42t112.5 119t66.5 185.5t21.5 241.5q0 131 -22.5 239.5t-67.5 185.5t-112.5 119t-157.5 42t-157 -42t-113 -119t-68.5 -185.5t-22.5 -239.5z" />
<glyph unicode="&#xd9;" horiz-adv-x="1437" d="M199 434v1112h231v-1108q0 -117 71.5 -184.5t207.5 -67.5q133 0 215 61.5t82 190.5v1108h233v-1112q0 -209 -134 -335t-398 -126q-262 0 -385 125t-123 336zM455 1964l131 190l385 -382l-84 -125z" />
<glyph unicode="&#xda;" horiz-adv-x="1437" d="M199 434v1112h231v-1108q0 -117 71.5 -184.5t207.5 -67.5q133 0 215 61.5t82 190.5v1108h233v-1112q0 -209 -134 -335t-398 -126q-262 0 -385 125t-123 336zM502 1772l387 382l131 -190l-434 -317z" />
<glyph unicode="&#xdb;" horiz-adv-x="1437" d="M199 434v1112h231v-1108q0 -117 71.5 -184.5t207.5 -67.5q133 0 215 61.5t82 190.5v1108h233v-1112q0 -209 -134 -335t-398 -126q-262 0 -385 125t-123 336zM342 1847l383 303l383 -303l-115 -143l-268 221l-268 -221z" />
<glyph unicode="&#xdc;" horiz-adv-x="1437" d="M199 434v1112h231v-1108q0 -117 71.5 -184.5t207.5 -67.5q133 0 215 61.5t82 190.5v1108h233v-1112q0 -209 -134 -335t-398 -126q-262 0 -385 125t-123 336zM348 1921q0 59 43 101t103 42q61 0 103 -42t42 -101q0 -61 -42 -103t-103 -42q-59 0 -102.5 42t-43.5 103z M782 1921q0 59 43 101t103 42q59 0 102 -42t43 -101q0 -61 -43 -103t-102 -42t-102.5 42t-43.5 103z" />
<glyph unicode="&#xdd;" horiz-adv-x="1431" d="M72 1548h284l361 -671l360 671h283l-526 -907v-641h-232v643q-61 106 -128.5 221t-136.5 231.5t-136.5 231.5t-128.5 221zM459 1772l387 382l131 -190l-434 -317z" />
<glyph unicode="&#xde;" horiz-adv-x="1234" d="M231 0v1546h220v-264h137q63 0 142 -8t148.5 -46t115.5 -116t46 -215q0 -133 -42 -220t-109.5 -138.5t-153.5 -72t-174 -20.5h-110v-446h-220zM451 653h96q51 0 99 8.5t85 35t59.5 72.5t22.5 124q0 66 -23.5 102.5t-59.5 54t-78 21.5t-81 4h-120v-422z" />
<glyph unicode="&#xdf;" horiz-adv-x="1314" d="M156 2v1018q0 195 27.5 315.5t105.5 192.5q131 119 332 119q84 0 158.5 -26t131 -77t90 -127t33.5 -176q0 -66 -14 -111t-41 -88q-16 -27 -38.5 -46t-45.5 -35q-25 -18 -43 -37t-18 -37q0 -49 37.5 -96.5t91.5 -94.5q35 -33 70.5 -68.5t63 -75.5t45 -88t17.5 -106 q0 -86 -28.5 -156.5t-82 -121.5t-130 -79t-173.5 -28q-55 0 -112.5 10.5t-112.5 32.5v242q61 -33 114.5 -64.5t96.5 -31.5q55 0 95 16.5t67 43t40 57t13 61.5q0 53 -45 100t-96 99q-35 33 -67.5 67.5t-60.5 73.5t-45.5 83t-19.5 97v12q0 33 7.5 56.5t19.5 41t28.5 31 t34.5 27.5q25 18 52.5 45t48.5 70q16 39 16 80q0 49 -18.5 92t-49 73.5t-69.5 49t-80 18.5q-74 0 -120 -23.5t-72.5 -73.5t-37 -131t-10.5 -194v-1032h-206z" />
<glyph unicode="&#xe0;" d="M119 283q0 82 28.5 140t74.5 98t104.5 63.5t118 37t113.5 18.5t93 7v41q0 137 -133 137q-57 0 -107.5 -13t-91.5 -30q-47 -18 -88 -41l-61 152q39 35 92 63q47 23 115.5 43.5t161.5 22.5h12q88 0 148.5 -21.5t97.5 -61.5t53 -95.5t16 -122.5v-494q0 -16 13.5 -29.5 t29.5 -13.5h82v-184h-172q-57 0 -94 24.5t-53 63.5q-20 -16 -47 -35.5t-60 -37t-70.5 -30t-80.5 -12.5q-63 0 -117.5 21.5t-93.5 61.5t-61.5 97.5t-22.5 129.5zM326 1413l131 191l385 -383l-84 -125zM330 293q0 -45 28.5 -86t112.5 -41q29 0 58.5 19.5t58.5 43.5 q31 27 63 64v168q-39 -2 -94 -7t-105.5 -22.5t-86 -50.5t-35.5 -88z" />
<glyph unicode="&#xe1;" d="M119 283q0 82 28.5 140t74.5 98t104.5 63.5t118 37t113.5 18.5t93 7v41q0 137 -133 137q-57 0 -107.5 -13t-91.5 -30q-47 -18 -88 -41l-61 152q39 35 92 63q47 23 115.5 43.5t161.5 22.5h12q88 0 148.5 -21.5t97.5 -61.5t53 -95.5t16 -122.5v-494q0 -16 13.5 -29.5 t29.5 -13.5h82v-184h-172q-57 0 -94 24.5t-53 63.5q-20 -16 -47 -35.5t-60 -37t-70.5 -30t-80.5 -12.5q-63 0 -117.5 21.5t-93.5 61.5t-61.5 97.5t-22.5 129.5zM322 1221l387 383l131 -191l-434 -317zM330 293q0 -45 28.5 -86t112.5 -41q29 0 58.5 19.5t58.5 43.5 q31 27 63 64v168q-39 -2 -94 -7t-105.5 -22.5t-86 -50.5t-35.5 -88z" />
<glyph unicode="&#xe2;" d="M119 283q0 82 28.5 140t74.5 98t104.5 63.5t118 37t113.5 18.5t93 7v41q0 137 -133 137q-57 0 -107.5 -13t-91.5 -30q-47 -18 -88 -41l-61 152q39 35 92 63q47 23 115.5 43.5t161.5 22.5h12q88 0 148.5 -21.5t97.5 -61.5t53 -95.5t16 -122.5v-494q0 -16 13.5 -29.5 t29.5 -13.5h82v-184h-172q-57 0 -94 24.5t-53 63.5q-20 -16 -47 -35.5t-60 -37t-70.5 -30t-80.5 -12.5q-63 0 -117.5 21.5t-93.5 61.5t-61.5 97.5t-22.5 129.5zM166 1327l383 303l383 -303l-115 -143l-268 221l-268 -221zM330 293q0 -45 28.5 -86t112.5 -41q29 0 58.5 19.5 t58.5 43.5q31 27 63 64v168q-39 -2 -94 -7t-105.5 -22.5t-86 -50.5t-35.5 -88z" />
<glyph unicode="&#xe3;" d="M119 283q0 82 28.5 140t74.5 98t104.5 63.5t118 37t113.5 18.5t93 7v41q0 137 -133 137q-57 0 -107.5 -13t-91.5 -30q-47 -18 -88 -41l-61 152q39 35 92 63q47 23 115.5 43.5t161.5 22.5h12q88 0 148.5 -21.5t97.5 -61.5t53 -95.5t16 -122.5v-494q0 -16 13.5 -29.5 t29.5 -13.5h82v-184h-172q-57 0 -94 24.5t-53 63.5q-20 -16 -47 -35.5t-60 -37t-70.5 -30t-80.5 -12.5q-63 0 -117.5 21.5t-93.5 61.5t-61.5 97.5t-22.5 129.5zM193 1268q27 72 63 127q31 47 77 87t109 40q37 0 70 -16.5t61 -35.5l60 -40q23 -12 44 -25.5t44 -13.5 t46.5 20.5t41.5 44.5q23 29 39 68l129 -58q-27 -72 -64 -127q-31 -47 -78 -87t-108 -40q-37 0 -69.5 16.5t-61.5 35.5l-59 39q-23 14 -44.5 26t-43.5 12q-25 0 -47.5 -20.5t-41.5 -44.5q-23 -29 -38 -66zM330 293q0 -45 28.5 -86t112.5 -41q29 0 58.5 19.5t58.5 43.5 q31 27 63 64v168q-39 -2 -94 -7t-105.5 -22.5t-86 -50.5t-35.5 -88z" />
<glyph unicode="&#xe4;" d="M119 283q0 82 28.5 140t74.5 98t104.5 63.5t118 37t113.5 18.5t93 7v41q0 137 -133 137q-57 0 -107.5 -13t-91.5 -30q-47 -18 -88 -41l-61 152q39 35 92 63q47 23 115.5 43.5t161.5 22.5h12q88 0 148.5 -21.5t97.5 -61.5t53 -95.5t16 -122.5v-494q0 -16 13.5 -29.5 t29.5 -13.5h82v-184h-172q-57 0 -94 24.5t-53 63.5q-20 -16 -47 -35.5t-60 -37t-70.5 -30t-80.5 -12.5q-63 0 -117.5 21.5t-93.5 61.5t-61.5 97.5t-22.5 129.5zM213 1378q0 59 43 101.5t102 42.5q61 0 103.5 -42.5t42.5 -101.5q0 -61 -42 -103t-104 -42q-59 0 -102 42 t-43 103zM330 293q0 -45 28.5 -86t112.5 -41q29 0 58.5 19.5t58.5 43.5q31 27 63 64v168q-39 -2 -94 -7t-105.5 -22.5t-86 -50.5t-35.5 -88zM647 1378q0 59 43 101.5t103 42.5q59 0 102 -42t43 -102q0 -61 -43 -103t-102 -42t-102.5 42t-43.5 103z" />
<glyph unicode="&#xe5;" d="M119 283q0 82 28.5 140t74.5 98t104.5 63.5t118 37t113.5 18.5t93 7v41q0 137 -133 137q-57 0 -107.5 -13t-91.5 -30q-47 -18 -88 -41l-61 152q39 35 92 63q47 23 115.5 43.5t161.5 22.5h12q88 0 148.5 -21.5t97.5 -61.5t53 -95.5t16 -122.5v-494q0 -16 13.5 -29.5 t29.5 -13.5h82v-184h-172q-57 0 -94 24.5t-53 63.5q-20 -16 -47 -35.5t-60 -37t-70.5 -30t-80.5 -12.5q-63 0 -117.5 21.5t-93.5 61.5t-61.5 97.5t-22.5 129.5zM330 293q0 -45 28.5 -86t112.5 -41q29 0 58.5 19.5t58.5 43.5q31 27 63 64v168q-39 -2 -94 -7t-105.5 -22.5 t-86 -50.5t-35.5 -88zM354 1423q0 41 16.5 79t44 65.5t64.5 44t80 16.5t80 -16.5t64.5 -44t44 -64.5t16.5 -80t-16.5 -79.5t-44 -64.5t-64.5 -43t-80 -15q-86 0 -145.5 58t-59.5 144zM467 1423q0 -37 28.5 -64.5t63.5 -27.5q39 0 64.5 29t25.5 63q0 35 -25.5 62.5 t-64.5 27.5q-35 0 -63.5 -27.5t-28.5 -62.5z" />
<glyph unicode="&#xe6;" horiz-adv-x="1599" d="M119 283q0 82 28.5 140t74.5 98t104.5 63.5t118 37t114.5 18.5t94 7v31q0 66 -35.5 101.5t-99.5 35.5q-53 0 -104.5 -13.5t-91.5 -29.5q-47 -18 -91 -41l-69 174q43 29 100 51q49 20 118 37t159 19h16q92 0 157.5 -24.5t104.5 -69.5q53 45 116.5 69.5t141.5 24.5h15 q131 -4 206.5 -61.5t114.5 -138.5t49 -169t10 -154v-75h-602q6 -39 23.5 -82t49.5 -79t79 -59.5t110 -23.5q37 0 81 14.5t85 30.5q45 20 93 47l73 -176q-57 -33 -116 -57q-51 -23 -113 -39.5t-119 -16.5q-106 0 -196.5 43t-153.5 115q-8 -6 -18.5 -14t-16.5 -13 q-6 -6 -33.5 -26.5t-70.5 -44t-97.5 -42t-113.5 -18.5q-63 0 -117.5 21.5t-93.5 62.5t-61.5 97.5t-22.5 128.5zM330 293q0 -23 6 -44.5t21.5 -40t43 -29.5t68.5 -11q59 0 100 34t84 68v189q-39 0 -94 -6.5t-106.5 -23.5t-87 -49t-35.5 -87zM868 600h396q-4 33 -13.5 73 t-31 73.5t-55.5 56t-85 22.5q-57 0 -95 -21.5t-62.5 -55t-37 -73.5t-16.5 -75z" />
<glyph unicode="&#xe7;" horiz-adv-x="1067" d="M143 465q0 96 22.5 195.5t74 179.5t132.5 131t197 51q78 0 142.5 -23.5t111.5 -52.5q55 -33 101 -74l-90 -165q-41 33 -84 59q-37 23 -83 41t-89 18q-61 0 -102.5 -24.5t-66 -68.5t-36 -105.5t-11.5 -134.5q0 -59 8.5 -117t30 -104t58.5 -73.5t96 -27.5q41 0 92 14.5 t96 32.5q53 23 105 49l70 -174q-57 -33 -121 -57q-53 -23 -122 -41.5t-138 -20.5h-7q-92 0 -163.5 35t-121.5 99.5t-76 155.5t-26 202zM322 -500l32 170q31 -29 64 -40t71 -11q12 0 29 1t30 6t22.5 16.5t9.5 29.5q0 41 -22.5 54.5t-65.5 13.5h-113l53 287l189 -11l-29 -151 q25 -6 52.5 -17.5t51 -33t38 -53t14.5 -78.5v-9q0 -57 -23 -99t-57.5 -69.5t-76.5 -41t-81 -13.5q-29 0 -61.5 7t-61.5 18q-33 10 -65 24z" />
<glyph unicode="&#xe8;" horiz-adv-x="1116" d="M143 500q0 111 32 206t89.5 165.5t137 110.5t176.5 40h14q133 -4 210 -64.5t114.5 -143.5t47 -173t9.5 -156v-65h-604q8 -39 27.5 -82t51 -80t77.5 -61.5t108 -24.5q35 0 80 14.5t86 30.5q47 20 94 47l72 -176q-57 -33 -117 -57q-51 -23 -112.5 -40.5t-119.5 -17.5 q-102 0 -189 38t-149.5 106.5t-98.5 166t-36 216.5zM317 1413l132 191l385 -383l-84 -125zM369 608h395q-2 33 -11.5 73t-31 75t-55 57.5t-84.5 22.5q-57 0 -96.5 -22.5t-64 -56.5t-36.5 -74t-16 -75z" />
<glyph unicode="&#xe9;" horiz-adv-x="1116" d="M143 500q0 111 32 206t89.5 165.5t137 110.5t176.5 40h14q133 -4 210 -64.5t114.5 -143.5t47 -173t9.5 -156v-65h-604q8 -39 27.5 -82t51 -80t77.5 -61.5t108 -24.5q35 0 80 14.5t86 30.5q47 20 94 47l72 -176q-57 -33 -117 -57q-51 -23 -112.5 -40.5t-119.5 -17.5 q-102 0 -189 38t-149.5 106.5t-98.5 166t-36 216.5zM322 1221l387 383l131 -191l-434 -317zM369 608h395q-2 33 -11.5 73t-31 75t-55 57.5t-84.5 22.5q-57 0 -96.5 -22.5t-64 -56.5t-36.5 -74t-16 -75z" />
<glyph unicode="&#xea;" horiz-adv-x="1122" d="M143 500q0 111 32 206t89.5 165.5t137 110.5t176.5 40h14q133 -4 210 -64.5t114.5 -143.5t47 -173t9.5 -156v-65h-604q8 -39 27.5 -82t51 -80t77.5 -61.5t108 -24.5q35 0 80 14.5t86 30.5q47 20 94 47l72 -176q-57 -33 -117 -57q-51 -23 -112.5 -40.5t-119.5 -17.5 q-102 0 -189 38t-149.5 106.5t-98.5 166t-36 216.5zM197 1327l383 303l383 -303l-115 -143l-268 221l-269 -221zM369 608h395q-2 33 -11.5 73t-31 75t-55 57.5t-84.5 22.5q-57 0 -96.5 -22.5t-64 -56.5t-36.5 -74t-16 -75z" />
<glyph unicode="&#xeb;" horiz-adv-x="1124" d="M143 500q0 111 32 206t89.5 165.5t137 110.5t176.5 40h14q133 -4 210 -64.5t114.5 -143.5t47 -173t9.5 -156v-65h-604q8 -39 27.5 -82t51 -80t77.5 -61.5t108 -24.5q35 0 80 14.5t86 30.5q47 20 94 47l72 -176q-57 -33 -117 -57q-51 -23 -112.5 -40.5t-119.5 -17.5 q-102 0 -189 38t-149.5 106.5t-98.5 166t-36 216.5zM215 1378q0 59 43 101.5t102 42.5q61 0 103.5 -42.5t42.5 -101.5q0 -61 -42 -103t-104 -42q-59 0 -102 42t-43 103zM369 608h395q-2 33 -11.5 73t-31 75t-55 57.5t-84.5 22.5q-57 0 -96.5 -22.5t-64 -56.5t-36.5 -74 t-16 -75zM649 1378q0 59 43 101.5t103 42.5q59 0 102 -42t43 -102q0 -61 -43 -103t-102 -42t-102.5 42t-43.5 103z" />
<glyph unicode="&#xec;" horiz-adv-x="665" d="M59 1413l131 191l385 -383l-83 -125zM201 0v983h223v-983h-223z" />
<glyph unicode="&#xed;" horiz-adv-x="663" d="M94 1221l387 383l131 -191l-434 -317zM201 0v983h223v-983h-223z" />
<glyph unicode="&#xee;" horiz-adv-x="665" d="M-80 1323l383 303l383 -303l-115 -143l-268 221l-268 -221zM201 0v983h223v-983h-223z" />
<glyph unicode="&#xef;" horiz-adv-x="663" d="M-47 1378q0 59 43 101.5t102 42.5q61 0 103.5 -42.5t42.5 -101.5q0 -61 -42 -103t-104 -42q-59 0 -102 42t-43 103zM201 0v983h223v-983h-223zM387 1378q0 59 43 101.5t102 42.5t102.5 -42t43.5 -102q0 -61 -43 -103t-103 -42q-59 0 -102 42t-43 103z" />
<glyph unicode="&#xf0;" horiz-adv-x="1114" d="M123 487q0 106 24.5 201.5t78 167.5t137 114t200.5 42q33 0 54.5 -1t44.5 -5q2 -2 -5.5 29.5t-21.5 68.5q-12 31 -32.5 68.5t-29.5 50.5l-178 -86l-65 123l162 83l-146 213l236 68l73 -108q20 -31 29.5 -44.5t15.5 -19.5q41 20 86 46t82 42l68 -123l-158 -84 q16 -27 41 -80t50.5 -117.5t48 -135t34.5 -134.5v2q16 -78 27.5 -155.5t11.5 -161.5q0 -117 -21.5 -221.5t-72.5 -183t-137 -126t-215 -47.5q-111 0 -191 39t-131 108.5t-75.5 164t-24.5 202.5zM354 451q0 -61 9.5 -112.5t30 -89.5t55 -60.5t86.5 -26.5h18q51 0 88 23.5 t61.5 66.5t37 102.5t18.5 130.5v2v54q0 55 -8.5 104t-29 88t-55 62.5t-85.5 27.5h-17q-61 0 -101 -30.5t-63.5 -83t-34 -120t-10.5 -138.5z" />
<glyph unicode="&#xf1;" horiz-adv-x="1175" d="M168 -2v983h217v-84q27 16 57.5 35.5t66.5 37t75 29t82 11.5q92 0 145 -29t81 -75t36 -103.5t8 -116.5v-467q0 -16 10 -26.5t27 -10.5h88v-184h-160q-74 0 -127 52t-53 126v514q0 49 -19.5 86t-76.5 37q-80 0 -143.5 -35t-98.5 -65v-715h-215zM195 1268q27 72 63 127 q31 47 77 87t109 40q37 0 70 -16.5t61 -35.5l60 -40q23 -12 44 -25.5t44 -13.5t46.5 20.5t41.5 44.5q23 29 39 68l129 -58q-27 -72 -64 -127q-31 -47 -77.5 -87t-108.5 -40q-37 0 -69.5 16.5t-61.5 35.5l-59 39q-23 14 -44.5 26t-43.5 12q-25 0 -47.5 -20.5t-41.5 -44.5 q-23 -29 -38 -66z" />
<glyph unicode="&#xf2;" horiz-adv-x="1165" d="M150 489q0 106 24.5 204t77.5 169.5t136 114.5t202 43q113 0 192.5 -40t132 -109.5t77 -163.5t24.5 -203t-25.5 -206t-79 -169t-137.5 -114t-203 -42q-111 0 -190.5 40t-130.5 110t-75.5 164t-24.5 202zM330 1413l131 191l385 -383l-84 -125zM383 512q0 -76 9 -140.5 t31.5 -110.5t62 -72.5t98.5 -26.5q57 0 95 25.5t60.5 70.5t32.5 108.5t10 139.5q0 63 -10 121.5t-32.5 103.5t-61.5 71.5t-96 26.5t-95 -25.5t-62 -69.5t-33 -101.5t-9 -120.5z" />
<glyph unicode="&#xf3;" horiz-adv-x="1165" d="M150 489q0 106 24.5 204t77.5 169.5t136 114.5t202 43q113 0 192.5 -40t132 -109.5t77 -163.5t24.5 -203t-25.5 -206t-79 -169t-137.5 -114t-203 -42q-111 0 -190.5 40t-130.5 110t-75.5 164t-24.5 202zM326 1221l387 383l131 -191l-434 -317zM383 512q0 -76 9 -140.5 t31.5 -110.5t62 -72.5t98.5 -26.5q57 0 95 25.5t60.5 70.5t32.5 108.5t10 139.5q0 63 -10 121.5t-32.5 103.5t-61.5 71.5t-96 26.5t-95 -25.5t-62 -69.5t-33 -101.5t-9 -120.5z" />
<glyph unicode="&#xf4;" horiz-adv-x="1165" d="M150 489q0 106 24.5 204t77.5 169.5t136 114.5t202 43q113 0 192.5 -40t132 -109.5t77 -163.5t24.5 -203t-25.5 -206t-79 -169t-137.5 -114t-203 -42q-111 0 -190.5 40t-130.5 110t-75.5 164t-24.5 202zM205 1325l383 303l383 -303l-115 -143l-268 221l-269 -221z M383 512q0 -76 9 -140.5t31.5 -110.5t62 -72.5t98.5 -26.5q57 0 95 25.5t60.5 70.5t32.5 108.5t10 139.5q0 63 -10 121.5t-32.5 103.5t-61.5 71.5t-96 26.5t-95 -25.5t-62 -69.5t-33 -101.5t-9 -120.5z" />
<glyph unicode="&#xf5;" horiz-adv-x="1165" d="M150 489q0 106 24.5 204t77.5 169.5t136 114.5t202 43q113 0 192.5 -40t132 -109.5t77 -163.5t24.5 -203t-25.5 -206t-79 -169t-137.5 -114t-203 -42q-111 0 -190.5 40t-130.5 110t-75.5 164t-24.5 202zM193 1268q27 72 63 127q31 47 77 87t109 40q37 0 70 -16.5 t61 -35.5l60 -40q23 -12 44 -25.5t44 -13.5t46.5 20.5t41.5 44.5q23 29 39 68l129 -58q-27 -72 -64 -127q-31 -47 -78 -87t-108 -40q-37 0 -69.5 16.5t-61.5 35.5l-59 39q-23 14 -44.5 26t-43.5 12q-25 0 -47.5 -20.5t-41.5 -44.5q-23 -29 -38 -66zM383 512q0 -76 9 -140.5 t31.5 -110.5t62 -72.5t98.5 -26.5q57 0 95 25.5t60.5 70.5t32.5 108.5t10 139.5q0 63 -10 121.5t-32.5 103.5t-61.5 71.5t-96 26.5t-95 -25.5t-62 -69.5t-33 -101.5t-9 -120.5z" />
<glyph unicode="&#xf6;" horiz-adv-x="1165" d="M150 489q0 106 24.5 204t77.5 169.5t136 114.5t202 43q113 0 192.5 -40t132 -109.5t77 -163.5t24.5 -203t-25.5 -206t-79 -169t-137.5 -114t-203 -42q-111 0 -190.5 40t-130.5 110t-75.5 164t-24.5 202zM217 1378q0 59 43 101.5t102 42.5q61 0 103.5 -42.5t42.5 -101.5 q0 -61 -42 -103t-104 -42q-59 0 -102 42t-43 103zM383 512q0 -76 9 -140.5t31.5 -110.5t62 -72.5t98.5 -26.5q57 0 95 25.5t60.5 70.5t32.5 108.5t10 139.5q0 63 -10 121.5t-32.5 103.5t-61.5 71.5t-96 26.5t-95 -25.5t-62 -69.5t-33 -101.5t-9 -120.5zM651 1378 q0 59 43 101.5t103 42.5q59 0 102 -42t43 -102q0 -61 -43 -103t-102 -42t-102.5 42t-43.5 103z" />
<glyph unicode="&#xf7;" horiz-adv-x="1837" d="M430 432v207h977v-207h-977zM776 174q0 59 41 100t101 41q59 0 100 -41t41 -100t-41 -100t-100 -41t-100.5 41t-41.5 100zM776 897q0 59 41 99t101 40q59 0 100 -40t41 -99t-41 -100t-100 -41t-100.5 41t-41.5 100z" />
<glyph unicode="&#xf8;" horiz-adv-x="1165" d="M135 -63l776 1132h123l-778 -1132h-121zM150 489q0 106 24.5 204t77.5 169.5t136 114.5t202 43q113 0 192.5 -40t132 -109.5t77 -163.5t24.5 -203t-25.5 -206t-79 -169t-137.5 -114t-203 -42q-111 0 -190.5 40t-130.5 110t-75.5 164t-24.5 202zM383 512q0 -76 9 -140.5 t31.5 -110.5t62 -72.5t98.5 -26.5q57 0 95 25.5t60.5 70.5t32.5 108.5t10 139.5q0 63 -10 121.5t-32.5 103.5t-61.5 71.5t-96 26.5t-95 -25.5t-62 -69.5t-33 -101.5t-9 -120.5z" />
<glyph unicode="&#xf9;" horiz-adv-x="1140" d="M188 293v690h215v-692q0 -47 39 -84t113 -37h47q72 0 104.5 36t32.5 85v692h213v-690q0 -57 -12 -114.5t-47 -102.5t-99.5 -74t-170.5 -29h-103q-104 0 -169.5 29t-101.5 74t-48.5 102.5t-12.5 114.5zM313 1413l131 191l385 -383l-84 -125z" />
<glyph unicode="&#xfa;" horiz-adv-x="1140" d="M188 293v690h215v-692q0 -47 39 -84t113 -37h47q72 0 104.5 36t32.5 85v692h213v-690q0 -57 -12 -114.5t-47 -102.5t-99.5 -74t-170.5 -29h-103q-104 0 -169.5 29t-101.5 74t-48.5 102.5t-12.5 114.5zM324 1221l387 383l131 -191l-434 -317z" />
<glyph unicode="&#xfb;" horiz-adv-x="1161" d="M209 293v690h215v-692q0 -47 39 -84t112 -37h48q72 0 104.5 36t32.5 85v692h213v-690q0 -57 -12.5 -114.5t-47 -102.5t-99 -74t-171.5 -29h-102q-104 0 -170 29t-102 74t-48 102.5t-12 114.5zM211 1327l383 303l383 -303l-115 -143l-268 221l-268 -221z" />
<glyph unicode="&#xfc;" horiz-adv-x="1140" d="M188 293v690h215v-692q0 -47 39 -84t113 -37h47q72 0 104.5 36t32.5 85v692h213v-690q0 -57 -12 -114.5t-47 -102.5t-99.5 -74t-170.5 -29h-103q-104 0 -169.5 29t-101.5 74t-48.5 102.5t-12.5 114.5zM209 1378q0 59 43 101.5t102 42.5q61 0 103.5 -42.5t42.5 -101.5 q0 -61 -42 -103t-104 -42q-59 0 -102 42t-43 103zM643 1378q0 59 43 101.5t102 42.5t102.5 -42t43.5 -102q0 -61 -43 -103t-103 -42q-59 0 -102 42t-43 103z" />
<glyph unicode="&#xfd;" horiz-adv-x="1081" d="M37 -575l82 184q39 -20 76 -37q33 -14 69.5 -25.5t67.5 -11.5q41 0 58.5 36t33.5 91l82 352q-47 16 -85 61.5t-63 104.5l-2 6q-14 37 -33.5 90.5t-41 114t-44 126t-42.5 126.5q-51 145 -107 307l199 76l270 -790q0 -4 2 -7q0 -4 1 -5t1 -3l221 805l201 -78l-367 -1362 q-14 -49 -36.5 -94t-57.5 -79t-83 -53t-111 -19q-45 0 -95.5 12t-93.5 29q-51 18 -102 43zM256 1221l387 383l131 -191l-434 -317z" />
<glyph unicode="&#xfe;" horiz-adv-x="1134" d="M223 -563v2175h213v-660q47 20 99.5 30.5t113.5 10.5q76 0 141.5 -31.5t113.5 -92t76 -145.5t28 -192q0 -129 -39 -235.5t-103.5 -182t-146.5 -117.5t-170 -42h-10q-29 2 -53.5 4t-49.5 8v-530h-213zM436 184q10 -10 35.5 -20t54.5 -10q55 0 102.5 36.5t81 92t53 122 t19.5 125.5q0 55 -7 103.5t-25.5 85.5t-49 58.5t-77.5 21.5q-53 0 -104.5 -24.5t-82.5 -49.5v-541z" />
<glyph unicode="&#xff;" horiz-adv-x="1081" d="M37 -575l82 184q39 -20 76 -37q33 -14 69.5 -25.5t67.5 -11.5q41 0 58.5 36t33.5 91l82 352q-47 16 -85 61.5t-63 104.5l-2 6q-14 37 -33.5 90.5t-41 114t-44 126t-42.5 126.5q-51 145 -107 307l199 76l270 -790q0 -4 2 -7q0 -4 1 -5t1 -3l221 805l201 -78l-367 -1362 q-14 -49 -36.5 -94t-57.5 -79t-83 -53t-111 -19q-45 0 -95.5 12t-93.5 29q-51 18 -102 43zM188 1378q0 59 43 101.5t103 42.5q61 0 103 -42.5t42 -101.5q0 -61 -42 -103t-103 -42q-59 0 -102.5 42t-43.5 103zM623 1378q0 59 43 101.5t102 42.5t102 -42t43 -102 q0 -61 -43 -103t-102 -42t-102 42t-43 103z" />
<glyph unicode="&#x152;" horiz-adv-x="1787" d="M39 776q0 180 35 327.5t107.5 252t183 162t262.5 57.5q78 0 147.5 -17.5t128.5 -50.5v41h828v-209h-596v-424h446v-210h-446v-496h596v-209h-828v41q-121 -66 -276 -66q-152 0 -263.5 57.5t-183 163t-106.5 253t-35 327.5zM285 776q0 -133 19.5 -241.5t60.5 -185.5 t105.5 -119t156.5 -42q102 0 168.5 49.5t107.5 141.5v788q-41 92 -108.5 143.5t-167.5 51.5q-90 0 -154.5 -42t-106.5 -119t-61.5 -185.5t-19.5 -239.5z" />
<glyph unicode="&#x153;" horiz-adv-x="1761" d="M150 489q0 106 24.5 204t77.5 169.5t136 114.5t202 43q111 0 189.5 -39t131.5 -107q57 68 136 108t176 40h14q133 -4 210 -64.5t114.5 -143.5t47 -173t9.5 -156v-65h-604q8 -39 27.5 -82t51 -80t78 -61.5t107.5 -24.5q35 0 80 14.5t86 30.5q47 20 94 47l72 -176 q-57 -33 -117 -57q-51 -23 -112.5 -40.5t-118.5 -17.5q-109 0 -197 41t-154 115q-53 -72 -137 -114t-203 -42q-111 0 -190.5 40t-130.5 110t-75.5 164t-24.5 202zM383 512q0 -76 9 -140.5t31.5 -110.5t62 -72.5t98.5 -26.5q57 0 95 25.5t60.5 70.5t32.5 108.5t10 139.5 q0 63 -10 121.5t-32.5 103.5t-61.5 71.5t-96 26.5t-95 -25.5t-62 -69.5t-33 -101.5t-9 -120.5zM1014 608h395q-2 33 -11 73t-30.5 75t-55.5 57.5t-85 22.5q-57 0 -96 -22.5t-64 -56.5t-37 -74t-16 -75z" />
<glyph unicode="&#x178;" horiz-adv-x="1431" d="M72 1548h284l361 -671l360 671h283l-526 -907v-641h-232v643q-61 106 -128.5 221t-136.5 231.5t-136.5 231.5t-128.5 221zM354 1921q0 59 43 101t103 42q61 0 103 -42t42 -101q0 -61 -42 -103t-103 -42q-59 0 -102.5 42t-43.5 103zM788 1921q0 59 43 101t103 42 q59 0 102 -42t43 -101q0 -61 -43 -103t-102 -42t-102.5 42t-43.5 103z" />
<glyph unicode="&#x2c6;" horiz-adv-x="794" d="M14 1362l383 303l383 -303l-114 -143l-269 221l-268 -221z" />
<glyph unicode="&#x2dc;" horiz-adv-x="948" d="M82 1227q27 72 63 127q31 47 77 87t110 40q37 0 69.5 -16.5t61.5 -34.5l59 -41q23 -12 44.5 -25.5t43.5 -13.5q23 0 46.5 20.5t41.5 44.5q23 29 39 68l129 -58q-27 -72 -63 -127q-31 -47 -78 -87t-109 -40q-37 0 -69.5 16.5t-61.5 35.5l-59 39q-23 14 -44.5 26t-43.5 12 q-25 0 -47.5 -20t-40.5 -45q-23 -29 -39 -66z" />
<glyph unicode="&#x2000;" horiz-adv-x="1077" />
<glyph unicode="&#x2001;" horiz-adv-x="2154" />
<glyph unicode="&#x2002;" horiz-adv-x="1077" />
<glyph unicode="&#x2003;" horiz-adv-x="2154" />
<glyph unicode="&#x2004;" horiz-adv-x="718" />
<glyph unicode="&#x2005;" horiz-adv-x="538" />
<glyph unicode="&#x2006;" horiz-adv-x="359" />
<glyph unicode="&#x2007;" horiz-adv-x="359" />
<glyph unicode="&#x2008;" horiz-adv-x="269" />
<glyph unicode="&#x2009;" horiz-adv-x="430" />
<glyph unicode="&#x200a;" horiz-adv-x="119" />
<glyph unicode="&#x2010;" horiz-adv-x="958" d="M184 418v211h590v-211h-590z" />
<glyph unicode="&#x2011;" horiz-adv-x="958" d="M184 418v211h590v-211h-590z" />
<glyph unicode="&#x2012;" horiz-adv-x="958" d="M184 418v211h590v-211h-590z" />
<glyph unicode="&#x2013;" horiz-adv-x="1284" d="M199 428v205h886v-205h-886z" />
<glyph unicode="&#x2014;" horiz-adv-x="2263" d="M199 428v205h1865v-205h-1865z" />
<glyph unicode="&#x2018;" horiz-adv-x="858" d="M121 944l289 668l147 -51l-145 -617h-291z" />
<glyph unicode="&#x2019;" horiz-adv-x="860" d="M301 995l145 617h293l-290 -668z" />
<glyph unicode="&#x201a;" horiz-adv-x="860" d="M301 -371l148 617h290l-290 -668z" />
<glyph unicode="&#x201c;" horiz-adv-x="1302" d="M121 944l289 668l147 -51l-145 -617h-291zM563 944l291 668l147 -51l-145 -617h-293z" />
<glyph unicode="&#x201d;" horiz-adv-x="1302" d="M301 995l145 617h293l-290 -668zM745 995l146 617h291l-289 -668z" />
<glyph unicode="&#x201e;" horiz-adv-x="1308" d="M301 -371l148 617h290l-290 -668zM750 -371l147 617h291l-291 -668z" />
<glyph unicode="&#x2022;" horiz-adv-x="1783" d="M512 557q0 80 29.5 148.5t81 121t121 82t147.5 29.5t147.5 -29.5t121.5 -82t82 -121t30 -148.5q0 -78 -30 -146.5t-82 -119.5t-121.5 -81t-147.5 -30t-147.5 30t-121 81t-81 119.5t-29.5 146.5z" />
<glyph unicode="&#x2026;" horiz-adv-x="2478" d="M410 135q0 70 46 116t117 46q70 0 116 -46t46 -116q0 -72 -46 -117t-116 -45q-72 0 -117.5 46.5t-45.5 115.5zM1077 139q0 70 46 116t118 46q70 0 116 -46t46 -116q0 -72 -46 -117t-116 -45q-72 0 -118 46.5t-46 115.5zM1743 141q0 70 47 116t117 46q72 0 116.5 -46 t44.5 -116q0 -72 -45 -116.5t-116 -44.5q-70 0 -117 46t-47 115z" />
<glyph unicode="&#x202f;" horiz-adv-x="430" />
<glyph unicode="&#x2039;" horiz-adv-x="1177" d="M102 489l398 484l164 -80l-285 -404l287 -397l-166 -82z" />
<glyph unicode="&#x203a;" horiz-adv-x="1177" d="M512 92l287 397l-285 404l164 80l397 -484l-397 -479z" />
<glyph unicode="&#x205f;" horiz-adv-x="538" />
<glyph unicode="&#x20ac;" horiz-adv-x="1478" d="M133 520l76 187h113v77v12.5t2 28.5h-191l76 187h141q66 238 236 374t428 136q37 0 70.5 -2t73.5 -7.5t87 -15.5t113 -27v-237q-92 41 -182.5 63.5t-161.5 22.5q-147 0 -252 -78t-162 -229h655l-71 -187h-627q-2 -18 -3 -33.5t-1 -27.5v-57h580l-74 -187h-471 q53 -174 156.5 -255t246.5 -81h8q37 0 74 6.5t79 17.5t91 28.5t115 39.5v-233q-70 -27 -133.5 -41t-112.5 -20q-57 -8 -111 -9q-262 0 -431 139.5t-224 407.5h-213z" />
<glyph unicode="&#x2122;" horiz-adv-x="1646" d="M262 1462v99h483v-99h-186v-661h-113v661h-184zM836 801v760h127q33 -86 61 -164q25 -66 47.5 -134.5t32.5 -109.5q4 -16 5 -37.5t3 -42.5q4 20 4 42t4 38q8 39 31 108.5t47 135.5q29 78 62 164h126v-760h-108v448v43t4 62q-4 -25 -15.5 -59.5t-15.5 -45.5l-102 -278h-76 l-104 278q-2 4 -5 16.5t-7.5 28t-9.5 30.5t-7 28q4 -33 4 -59.5v-43.5v-448h-108z" />
<glyph unicode="&#x25fc;" horiz-adv-x="1024" d="M0 0v1024h1024v-1024h-1024z" />
</font>
</defs>
</svg>
