<?xml version="1.0" standalone="no"?>
<!DOCTYPE svg PUBLIC "-//W3C//DTD SVG 1.1//EN" "http://www.w3.org/Graphics/SVG/1.1/DTD/svg11.dtd" >
<svg xmlns="http://www.w3.org/2000/svg">
<metadata></metadata>
<defs>
<font id="easyreadingxbregular" horiz-adv-x="1200" >
<font-face units-per-em="2048" ascent="1638" descent="-410" />
<missing-glyph horiz-adv-x="798" />
<glyph unicode="&#xfb01;" horiz-adv-x="1712" d="M98 727v256h154v277q0 59 11 125.5t48 122t107.5 91t187.5 35.5q59 0 114.5 -16t102.5 -35q53 -23 103 -49l-92 -203q-25 18 -56 33q-27 12 -64.5 21.5t-86.5 7.5q-31 -2 -54.5 -30t-23.5 -106v-274h295v-256h-295v-727h-297v727h-154zM1124 1452q0 84 57.5 142.5 t141.5 58.5q41 0 77 -15.5t63.5 -43t43 -64.5t15.5 -78t-15.5 -78t-43 -63.5t-63.5 -42t-77 -15.5q-84 0 -141.5 57.5t-57.5 141.5zM1165 0v983h305v-983h-305z" />
<glyph unicode="&#xfb02;" horiz-adv-x="1773" d="M98 727v256h154v277q0 59 11 125.5t48 122t107.5 91t187.5 35.5q59 0 114.5 -16t102.5 -35q53 -23 103 -49l-92 -203q-25 18 -56 33q-27 12 -64.5 21.5t-86.5 7.5q-31 -2 -54.5 -30t-23.5 -106v-274h295v-256h-295v-727h-297v727h-154zM1141 289v1339h295v-1315 q0 -49 18.5 -64.5t40.5 -15.5q23 0 42 7.5t34 17.5q16 10 31 25l86 -222q-12 -6 -37 -21t-60 -29.5t-76.5 -26t-89.5 -11.5q-67 1 -116 13q-41 8 -73 27.5t-53.5 55t-31.5 89t-10 131.5z" />
<glyph horiz-adv-x="0" />
<glyph unicode="&#xd;" horiz-adv-x="1265" />
<glyph unicode=" "  horiz-adv-x="798" />
<glyph unicode="&#x09;" horiz-adv-x="798" />
<glyph unicode="&#xa0;" horiz-adv-x="798" />
<glyph unicode="!" horiz-adv-x="1007" d="M348 180q0 43 16.5 81t45 66.5t66.5 45t81 16.5t81 -16.5t66.5 -45t45 -66.5t16.5 -81t-16.5 -81t-45 -66.5t-66.5 -45t-81 -16.5t-81 16.5t-66.5 45t-45 66.5t-16.5 81zM371 1554h374l-65 -1097h-246z" />
<glyph unicode="&#x22;" horiz-adv-x="1337" d="M283 1612h323l-41 -805h-235zM731 1612h324l-41 -805h-236z" />
<glyph unicode="#" horiz-adv-x="1230" d="M109 264v279h149l29 258h-162v276h192l45 414h248l-45 -414h189l45 414h250l-45 -414h118v-276h-149l-29 -258h162v-279h-191l-45 -411h-249l45 411h-189l-45 -411h-248l45 411h-120zM508 543h188l29 258h-188z" />
<glyph unicode="$" horiz-adv-x="1222" d="M70 133q23 49 45 98q18 41 37.5 85t33.5 77q47 -25 97.5 -50.5t102.5 -47t105.5 -35.5t108.5 -14q39 0 80 12t74.5 35.5t55 57.5t21.5 77q0 57 -35.5 99t-88 75t-110.5 57.5t-101 45.5q-68 31 -133.5 70.5t-115.5 91t-81 119t-31 153.5q0 98 46 178t121 136t171 88 t197 32q61 -2 125.5 -14.5t127 -32t119 -45t101.5 -51.5q-23 -51 -45 -99q-18 -41 -38 -85t-34 -75q-78 49 -176 91.5t-195 42.5q-37 -2 -70.5 -13.5t-59 -32t-42 -47t-16.5 -57.5q0 -41 22.5 -70.5t56.5 -53t71.5 -41t68.5 -32.5q96 -49 180 -96t156 -119 q66 -68 98.5 -148.5t32.5 -164.5q0 -102 -47 -196.5t-141 -157.5q-78 -55 -169 -78t-186 -25q-90 0 -179 18.5t-171 47.5q-27 10 -58.5 23.5t-59 27.5t-47 25.5t-25.5 17.5zM565 -186v1882h166v-1882h-166z" />
<glyph unicode="%" horiz-adv-x="2226" d="M266 1135q0 193 101.5 301t267.5 108q82 0 146.5 -27.5t110.5 -77.5t70.5 -120t24.5 -156q0 -98 -27.5 -174t-76.5 -129t-116 -80.5t-146 -27.5q-123 0 -211 59q-143 100 -144 324zM530 1141q0 -59 26 -101.5t65 -42.5l34 11q20 10 43 50t23 95q0 61 -26.5 103t-61.5 42 q-47 0 -75 -43t-28 -114zM793 41l510 1450h268l-510 -1450h-268zM1409 391q0 193 101.5 301.5t267.5 108.5q82 0 146.5 -28t110.5 -78t70.5 -119.5t24.5 -155.5q0 -98 -27.5 -174t-77 -129.5t-116 -81t-146.5 -27.5q-123 1 -211 60q-143 100 -143 323zM1673 397 q0 -59 25.5 -101t64.5 -42l35 10q20 10 43 50t23 96q0 61 -27 103t-61 42q-47 0 -75 -43t-28 -115z" />
<glyph unicode="&#x26;" horiz-adv-x="1527" d="M123 406q0 74 22.5 132t57.5 104t77 80t80 60q-23 27 -47 61t-44.5 73.5t-34 83.5t-13.5 92q0 92 40 161.5t104.5 115.5t144.5 69.5t158 23.5q72 0 142.5 -19.5t125.5 -61.5t90 -107.5t35 -155.5q0 -70 -22.5 -126t-58.5 -102t-79 -83t-84 -64l207 -208q10 41 10 86v118 h303v-98q0 -111 -32.5 -191.5t-67.5 -136.5l168 -168l-248 -184l-143 148q-59 -37 -151.5 -73t-231.5 -36q-111 0 -204 28.5t-160.5 82t-105.5 128t-38 167.5zM446 418q0 -72 54.5 -111t150.5 -39q57 0 98.5 12.5t73.5 28.5l-272 285l-37 -31q-29 -31 -48.5 -67.5 t-19.5 -77.5zM530 1108q1 -22 13 -53q10 -29 35.5 -64t48.5 -59q20 14 41.5 32.5t40 40t30 47t11.5 56.5q0 49 -30 72.5t-71 23.5q-49 0 -84 -27.5t-35 -68.5z" />
<glyph unicode="'" horiz-adv-x="1017" d="M301 1612h324l-41 -805h-236z" />
<glyph unicode="(" horiz-adv-x="1085" d="M236 537q0 229 51 420.5t119.5 339t138 245.5t104.5 141l244 -165q-39 -43 -97.5 -124t-112.5 -203t-95 -285t-43 -369q-2 -133 17.5 -252t50 -219.5t70.5 -184.5t80 -148.5t73.5 -108.5t56.5 -68l-244 -162q-35 43 -103.5 144.5t-138 250t-120.5 337.5t-51 411z" />
<glyph unicode=")" horiz-adv-x="1085" d="M193 -444q33 37 92 118.5t117.5 206.5t99.5 290t39 366q-4 207 -44 369.5t-94.5 284.5t-113 203t-96.5 124l243 165q35 -43 104.5 -141t138.5 -245.5t120 -339t51 -420.5q0 -221 -51 -410.5t-121 -338t-138.5 -250t-103.5 -144.5z" />
<glyph unicode="*" horiz-adv-x="1120" d="M184 1141l80 276l215 -90l-22 217h297l-25 -215l213 86l86 -274l-217 -47l147 -160l-235 -164l-117 193l-119 -193l-235 162l147 162z" />
<glyph unicode="+" horiz-adv-x="1910" d="M430 424v278h385v349h279v-349h387v-278h-387v-424h-279v424h-385z" />
<glyph unicode="," horiz-adv-x="837" d="M195 -270l170 544h395l-377 -600z" />
<glyph unicode="-" horiz-adv-x="1032" d="M184 418v284h664v-284h-664z" />
<glyph unicode="." horiz-adv-x="1114" d="M348 180q0 43 16.5 81t45 66.5t66.5 45t81 16.5t81 -16.5t66.5 -45t45 -66.5t16.5 -81t-16.5 -81t-45 -66.5t-66.5 -45t-81 -16.5t-81 16.5t-66.5 45t-45 66.5t-16.5 81z" />
<glyph unicode="/" horiz-adv-x="1296" d="M82 -565l821 2197h311l-819 -2197h-313z" />
<glyph unicode="0" horiz-adv-x="1380" d="M188 707q0 152 29 284.5t89.5 232t155.5 157t228 57.5q139 0 235.5 -62.5t156 -165t85 -234.5t25.5 -269q0 -152 -25.5 -286t-84 -233.5t-155 -156t-237.5 -56.5q-129 0 -223 58.5t-156.5 158t-92.5 232.5t-30 283zM504 707q0 -209 45 -334t141 -125q109 0 148 120.5 t39 338.5q0 82 -8.5 162.5t-30 146t-57.5 106.5t-91 41q-51 0 -86 -36.5t-57.5 -99t-32.5 -145.5t-10 -175z" />
<glyph unicode="1" horiz-adv-x="1304" d="M199 1028l463 393h231v-1159h213v-262h-729v262h213v752q-29 -23 -69 -54.5t-77 -62.5q-43 -37 -90 -74z" />
<glyph unicode="2" horiz-adv-x="1257" d="M176 979v35q0 61 26.5 134t84 137.5t146.5 107.5t212 43q100 0 181 -32t137.5 -88t87 -133t30.5 -165q0 -86 -28.5 -150.5t-73.5 -117t-101.5 -93.5t-113.5 -77l-100 -70q-80 -61 -118 -123.5t-48 -124.5h581v-262h-901v102q0 143 36 252t92 190t125 138t134 98 q43 27 81 52.5t64.5 55.5t42 63.5t15.5 80.5q0 59 -31.5 100.5t-101.5 41.5q-31 0 -62.5 -11.5t-57.5 -33t-44 -53.5t-20 -70l-2 -27h-273z" />
<glyph unicode="3" horiz-adv-x="1298" d="M178 135l160 242q14 -12 36.5 -36t56.5 -45.5t78 -37.5t103 -16q104 0 148.5 47t44.5 135q0 55 -20.5 90t-52.5 54.5t-71.5 27.5t-78.5 8h-125v264h135q35 0 69.5 11.5t62.5 33t44 53t16 74.5q0 53 -36.5 93.5t-96.5 40.5q-63 0 -104 -24t-66 -52q-29 -35 -47 -76 l-223 106q8 39 34.5 92.5t79 101.5t133.5 81t197 33q86 0 165 -29t138.5 -81t94 -124t34.5 -158q0 -104 -41.5 -174.5t-95.5 -111.5q66 -43 118 -127t52 -211q0 -100 -34.5 -183t-101 -141.5t-161 -90.5t-213.5 -32q-100 0 -176 21.5t-129 48.5q-27 12 -50.5 28.5 t-39.5 30.5q-20 16 -37 33z" />
<glyph unicode="4" horiz-adv-x="1413" d="M150 324v221l600 876h288v-835h174v-262h-174v-324h-286v324h-602zM453 586h299v276q0 57 3 114.5t7 119.5h-8q-33 -61 -60.5 -117.5t-62.5 -116.5l-178 -272v-4z" />
<glyph unicode="5" horiz-adv-x="1359" d="M266 33v293q66 -23 129 -41q53 -16 110.5 -28.5t98.5 -12.5q86 0 136.5 21.5t77 56t34.5 76.5t8 85q0 94 -39 143.5t-104 49.5q-41 0 -84 -21.5t-78 -46.5q-41 -31 -82 -67l-207 63v819h815v-274h-526v-246q41 18 87 31.5t106 13.5q94 0 172.5 -34.5t136 -96t88.5 -146.5 t31 -184q0 -109 -36 -201.5t-105.5 -162.5t-173 -110t-240.5 -40q-49 0 -112 9.5t-116 19.5q-63 12 -127 31z" />
<glyph unicode="6" horiz-adv-x="1335" d="M188 686v43q2 111 18.5 234.5t67 227t146.5 172.5t256 73h22q123 -2 204 -32t129 -79t67.5 -113.5t19.5 -136.5h-254q-2 37 -24 64q-18 23 -57.5 40t-110.5 13q-55 -6 -91 -36t-56.5 -73t-30 -93t-15.5 -97q45 25 102.5 49.5t139.5 24.5q104 0 181 -34t126 -95.5 t73.5 -145.5t24.5 -184v-31q0 -104 -31.5 -195.5t-90 -159t-141.5 -107.5t-187 -42h-21q-129 0 -218 52.5t-144 146.5t-80 225t-25 289zM485 455q2 -57 17.5 -97.5t40 -66t55.5 -36.5t64 -11h12q27 0 56.5 9t56 32.5t44 63.5t17.5 102v26q0 100 -50 151.5t-116 51.5h-10 q-78 -6 -130.5 -52t-56.5 -157v-16z" />
<glyph unicode="7" horiz-adv-x="1183" d="M102 1153v268h979l-581 -1421h-320l473 1153h-551z" />
<glyph unicode="8" horiz-adv-x="1382" d="M178 379q0 66 18.5 122t49 101t70.5 81t83 62q-70 53 -120 131t-50 189q0 78 34 145.5t94.5 117.5t145.5 79t189 29q109 0 194 -29t144.5 -78t91 -112.5t31.5 -133.5q0 -121 -53 -202.5t-117 -132.5q39 -25 79 -61t71.5 -82t51 -102.5t19.5 -121.5q0 -76 -32.5 -148.5 t-97 -130t-160 -93.5t-220.5 -36q-115 0 -210 28t-162.5 80t-105.5 128t-38 170zM496 371q0 -68 59 -103t143 -35q82 0 141.5 38t59.5 100q0 51 -20.5 91t-51 68.5t-65.5 44t-64 15.5q-12 0 -33.5 -3.5t-37.5 -11.5q-51 -27 -91 -75.5t-40 -128.5zM539 1071q0 -41 15 -77 t37.5 -61.5t51.5 -40.5t55 -15q25 0 51.5 14t50 39.5t38 61.5t14.5 79q0 51 -44 75.5t-110 24.5t-112.5 -26.5t-46.5 -73.5z" />
<glyph unicode="9" horiz-adv-x="1310" d="M170 928q0 104 33 196.5t94 161t149.5 108.5t200.5 40q119 0 205 -41t142.5 -117t84 -184.5t27.5 -245.5q0 -80 -10.5 -182.5t-36 -211t-69.5 -213t-110.5 -186.5t-157.5 -132t-212 -50q-41 0 -85 9t-81 20.5t-62 20.5l-24 9l-22 9v286q18 -12 50.5 -26.5t68.5 -26.5 t69 -20.5t55 -8.5q61 0 108.5 31t82.5 80t58.5 109.5t37.5 119.5q-33 -16 -77 -24t-95 -8q-92 0 -169 31.5t-134.5 92t-89 149.5t-31.5 204zM483 932q0 -92 33 -151.5t117 -65.5q72 0 116 51t44 176t-44.5 173t-103.5 48q-66 0 -114 -52t-48 -179z" />
<glyph unicode=":" horiz-adv-x="1069" d="M348 180q0 43 16.5 81t45 66.5t66.5 45t81 16.5t81 -16.5t66.5 -45t45 -66.5t16.5 -81t-16.5 -81t-45 -66.5t-66.5 -45t-81 -16.5t-81 16.5t-66.5 45t-45 66.5t-16.5 81zM348 819q0 43 16.5 81t45 66.5t66.5 45t81 16.5t81 -16.5t66.5 -45t45 -66.5t16.5 -81t-16.5 -81 t-45 -66.5t-66.5 -45t-81 -16.5t-81 16.5t-66.5 45t-45 66.5t-16.5 81z" />
<glyph unicode=";" horiz-adv-x="839" d="M195 -270l170 544h395l-377 -600zM336 817q0 43 16.5 81t45 66.5t66.5 45t81 16.5t81 -16.5t66.5 -45t45 -66.5t16.5 -81t-16.5 -81t-45 -66.5t-66.5 -45t-81 -16.5t-81 16.5t-66.5 45t-45 66.5t-16.5 81z" />
<glyph unicode="&#x3c;" horiz-adv-x="1744" d="M348 430v234l950 366l99 -268l-668 -215l668 -215l-99 -271z" />
<glyph unicode="=" horiz-adv-x="1910" d="M430 188v279h1051v-279h-1051zM430 631v278h1051v-278h-1051z" />
<glyph unicode="&#x3e;" horiz-adv-x="1744" d="M348 332l668 215l-668 215l98 268l951 -366v-234l-951 -369z" />
<glyph unicode="?" horiz-adv-x="1206" d="M215 1436q61 39 129 71q59 29 134 51.5t159 22.5q88 0 175 -30.5t154.5 -91t109.5 -150.5t42 -209q0 -96 -32.5 -165t-82 -114t-105.5 -71.5t-103 -40.5v-252h-293v483q86 -10 153 6q29 6 57.5 18.5t50 34t35 52t13.5 73.5q0 39 -14.5 75t-39 62.5t-59 42t-73.5 15.5 q-53 0 -104.5 -20.5t-92.5 -43.5q-47 -27 -90 -61zM438 180q0 43 16.5 81t45 66.5t66.5 45t81 16.5t81 -16.5t66.5 -45t45 -66.5t16.5 -81t-16.5 -81t-45 -66.5t-66.5 -45t-81 -16.5t-81 16.5t-66.5 45t-45 66.5t-16.5 81z" />
<glyph unicode="@" horiz-adv-x="2125" d="M182 731q0 158 42 284t114 223t165 168t194.5 116t204 66.5t192.5 21.5h43q213 -12 365.5 -68.5t250.5 -143.5t144.5 -196.5t46.5 -226.5q0 -123 -43 -240q-51 -139 -129 -220t-155 -122t-141.5 -53t-86.5 -12q-51 0 -88 12t-62 27.5t-38 31t-17 23.5q-39 -27 -78 -47 q-35 -18 -78 -32.5t-86 -14.5q-31 0 -62.5 10t-60 26.5t-50 37t-34.5 42.5q-16 29 -28.5 73t-12.5 118q0 145 24.5 248.5t66.5 169t97.5 96.5t116.5 31q23 0 46.5 -7.5t42 -17.5t30.5 -19.5t15 -15.5h4v49h260v-589q2 0 22.5 1t50 10t64.5 29.5t65.5 60.5t54 103.5 t29.5 155.5v16q0 49 -27.5 119t-95 133.5t-180 108.5t-282.5 45q-127 0 -241 -49t-200 -133t-136 -196t-50 -236q0 -96 36 -201t109.5 -191t187.5 -142t271 -56h30.5t31.5 2q78 6 176 34.5t184 61.5q100 37 205 84l106 -240q-43 -18 -96 -39q-45 -16 -102.5 -37.5 t-120.5 -41.5q-143 -47 -258 -61.5t-170 -14.5q-90 0 -190.5 22.5t-199 66.5t-186.5 112.5t-155.5 159.5t-107.5 207t-40 257zM954 627q0 -31 18.5 -41.5t31.5 -10.5q20 0 39.5 15.5t35 35t25.5 37t12 21.5q0 4 2 20.5t3 38t2 42t1 32.5v101q-18 6 -34 14q-14 4 -31 9t-27 5 q-25 0 -38 -9t-18 -23.5t-6 -33t-3 -36.5q-2 -23 -4 -56.5t-4.5 -67.5t-3.5 -60.5t-1 -32.5z" />
<glyph unicode="A" horiz-adv-x="1503" d="M92 0l473 1548h328l475 -1548h-330q-16 57 -40.5 140t-51.5 179h-432l-92 -319h-330zM590 592h278q-27 96 -47 179t-36.5 160t-29 152.5t-20.5 159.5h-10q-8 -84 -20.5 -160.5t-29 -153.5t-38 -160t-47.5 -177z" />
<glyph unicode="B" horiz-adv-x="1361" d="M182 0v1548h371h178q78 -4 155 -18t142 -60q80 -55 115 -141t35 -184q0 -92 -52.5 -174t-121.5 -144q63 -37 124.5 -92t81.5 -125q18 -68 19 -141q0 -84 -24.5 -157.5t-68.5 -133t-107.5 -100.5t-141.5 -58q-31 -6 -74 -10t-86 -6t-82 -3t-65 -1h-39h-359zM496 272h112 q41 0 86 2t86 14.5t74 38t51 70.5q6 16 9.5 38t3.5 40q0 63 -29 100t-72 56.5t-95 26t-99 6.5h-127v-392zM496 924h129q102 0 170.5 43t68.5 147q0 49 -18.5 81t-47 50.5t-64.5 25.5t-72 7h-166v-354z" />
<glyph unicode="C" horiz-adv-x="1445" d="M117 772q0 164 51 327t170 283q98 100 227 145.5t266 45.5q72 0 145 -18.5t138.5 -54.5t119.5 -87t87 -117l-238 -168q-10 12 -31.5 40t-56 55.5t-82 48t-104.5 20.5q-100 0 -169 -49t-112 -124t-62.5 -162t-19.5 -162q0 -84 21.5 -178.5t67 -174.5t116 -133t168.5 -53 q49 0 98.5 21.5t91.5 50t73.5 57.5t45.5 45l222 -205q-55 -49 -118 -95t-130.5 -81t-140 -55.5t-148.5 -20.5q-78 0 -152.5 14.5t-144.5 47.5q-106 49 -182 129t-124 178t-70.5 209t-22.5 221z" />
<glyph unicode="D" horiz-adv-x="1505" d="M170 0v272h117v1004h-117v272h512q72 0 149.5 -9t152.5 -36.5t142.5 -79t118.5 -136.5t81 -209t30 -296q0 -373 -172 -577.5t-529 -204.5h-485zM600 272h88q166 0 253 138.5t87 380.5q0 156 -31.5 252t-83 147t-115 68.5t-124.5 17.5h-74v-1004z" />
<glyph unicode="E" horiz-adv-x="1177" d="M164 0v1548h932v-272h-619v-338h457v-258h-457v-408h619v-272h-932z" />
<glyph unicode="F" horiz-adv-x="1165" d="M164 0v1548h919v-272h-606v-344h473v-260h-473v-672h-313z" />
<glyph unicode="G" horiz-adv-x="1486" d="M129 784q0 139 30.5 279.5t106.5 254.5t202 185.5t314 71.5q117 0 211 -36t159 -99.5t99.5 -152.5t34.5 -195v-31h-313q0 47 -12.5 89t-36 73.5t-59.5 50t-83 18.5q-98 0 -160.5 -52t-99.5 -130t-51 -167t-14 -163q0 -90 16 -184t55 -170t103.5 -124t163.5 -48 q29 0 63.5 4t64 9t49 10.5t17.5 7.5v284h-311v258h625v-735q-61 -25 -123 -47q-53 -18 -112.5 -35.5t-106.5 -21.5q-47 -6 -91.5 -10.5t-91.5 -4.5q-123 4 -237.5 42t-202.5 124q-63 61 -103 139t-64 162t-33 172t-9 172z" />
<glyph unicode="H" horiz-adv-x="1538" d="M217 0v1548h313v-616h478v616h313v-1548h-313v674h-478v-674h-313z" />
<glyph unicode="I" horiz-adv-x="1118" d="M193 0v272h2h208v1004h-210v272h733v-272h-209v-1004h209v-272h-733z" />
<glyph unicode="J" horiz-adv-x="1296" d="M31 502v45h315q0 -25 1 -74t15.5 -98t49 -85t102.5 -36q92 0 136 53t44 125v846h-207v272h727v-272h-206v-856q0 -88 -31 -171t-96 -147q-74 -72 -173.5 -101.5t-203.5 -29.5q-51 0 -101.5 8.5t-97.5 26.5q-80 31 -132 82t-84 116.5t-45 141.5t-13 154z" />
<glyph unicode="K" horiz-adv-x="1331" d="M156 0v1548h313v-671l539 706l260 -141l-527 -672l537 -649l-270 -184l-539 704v-641h-313z" />
<glyph unicode="L" horiz-adv-x="1206" d="M184 0v1548h314v-1276h626v-272h-940z" />
<glyph unicode="M" horiz-adv-x="1738" d="M225 0v1548h363q14 -33 48 -122t75 -199q12 -33 29.5 -86.5t35 -111.5t32.5 -111.5t26 -86.5q4 -18 11 -64t13 -93q8 -55 12 -121q6 66 15 121q6 47 12 92t12 63q8 33 23.5 87.5t33 112.5t35 111.5t29.5 88.5q41 111 74 199l45 120h364v-1548h-303v913v59.5t2 90.5 t4.5 97t6.5 83q-4 -25 -13.5 -76t-19.5 -106t-18.5 -100.5t-12.5 -55.5l-164 -600h-252l-168 600q-4 10 -11 55.5t-16 99.5t-17.5 105.5t-14.5 73.5q4 -33 7 -81t4 -96t1 -89v-60v-913h-303z" />
<glyph unicode="N" horiz-adv-x="1492" d="M221 0v1548h314l380 -737q12 -23 22.5 -57.5t18 -72.5t13.5 -74t10 -58h6l-2 12q-4 33 -7 75t-5 82t-3 73.5t-1 52.5v704h305v-1548h-264l-430 795q-12 23 -22.5 58.5t-19 73.5t-13.5 72.5t-9 59.5h-6l2 -15q4 -33 7 -74.5t5 -81.5t3 -74t1 -50v-764h-305z" />
<glyph unicode="O" horiz-adv-x="1622" d="M145 768q0 150 43 295t128 258t209 182.5t284 69.5q18 0 38 -1t40 -3q143 -16 252.5 -90t184.5 -185.5t114 -249t39 -276.5q0 -152 -44 -295t-129 -253.5t-209 -178.5t-284 -68q-162 0 -286 69t-209 180.5t-128 253.5t-43 292zM489 768q0 -70 11.5 -159t46.5 -168 t98.5 -133t165.5 -54q96 0 158.5 54t98.5 133t50.5 168t14.5 161q0 68 -13.5 158t-49.5 171t-98.5 137t-160.5 56t-160.5 -55t-98.5 -136t-49.5 -172t-13.5 -161z" />
<glyph unicode="P" horiz-adv-x="1286" d="M182 0v1548h475q47 0 112 -4t130.5 -23.5t124.5 -60t96 -114.5q27 -47 40.5 -98.5t13.5 -129.5q0 -127 -31 -214t-80 -143t-110.5 -88t-122 -46.5t-114.5 -17.5t-87 -3h-133v-606h-314zM496 866h61q76 0 133.5 5.5t95 29t57 72.5t19.5 139q0 80 -34 119t-88 54 q-51 14 -110 14h-8q-64 -1 -126 -1v-432z" />
<glyph unicode="Q" horiz-adv-x="1685" d="M121 768q0 150 43 294t128 258t209 182.5t283 68.5q162 0 287 -69.5t210 -182.5t128 -258.5t43 -294.5q0 -154 -41 -293t-137 -262q35 -29 92 -68t111 -75q63 -43 131 -88l-324 -173q-43 33 -86 70q-37 31 -82 70t-88 76q-109 -49 -242 -50q-162 0 -285.5 69 t-208.5 180.5t-128 253.5t-43 292zM465 768q0 -68 12 -157t47 -169t96.5 -135t157.5 -55q10 0 17.5 1t15.5 1q-23 27 -41 51.5t-35 44.5q-18 23 -33 43l158 201q35 -37 70 -70l58.5 -58.5t47.5 -45.5q41 86 56.5 178t15.5 168q0 70 -14.5 160t-51 171t-99 137t-157.5 56 q-102 0 -164.5 -55t-97.5 -136t-47 -171t-12 -160z" />
<glyph unicode="R" horiz-adv-x="1372" d="M178 0v1546h416h63q88 0 180.5 -13t167 -59.5t122 -134.5t47.5 -237q0 -84 -24 -148.5t-61.5 -115t-85 -86t-96.5 -60.5l383 -672l-321 -69l-381 690h-96v-641h-314zM492 899h122q139 0 192.5 48t53.5 153q0 59 -19.5 94t-51 53.5t-70.5 24.5t-76 6h-151v-379z" />
<glyph unicode="S" horiz-adv-x="1290" d="M123 133q23 49 45 98q18 41 37.5 85t34.5 77q47 -25 97 -50.5t102.5 -47t105.5 -35.5t108 -14q39 0 80 12t75 35.5t55.5 57.5t21.5 77q0 57 -36 99t-88 75t-110.5 57.5t-101.5 45.5q-68 31 -133.5 70.5t-115.5 91t-81 119t-31 153.5q0 98 46.5 178t121 136t171 88 t196.5 32q61 -2 125.5 -14.5t127 -32t119 -45t101.5 -51.5q-23 -51 -45 -99q-18 -41 -37.5 -85t-34.5 -75q-78 49 -176 91.5t-194 42.5q-37 -2 -71 -13.5t-59.5 -32t-42 -47t-16.5 -57.5q0 -41 22.5 -70.5t56.5 -53t72 -41t68 -32.5q96 -49 180.5 -96t155.5 -119 q66 -68 98.5 -148.5t32.5 -164.5q0 -102 -47 -196.5t-141 -157.5q-78 -55 -169 -78t-185 -25q-90 0 -179.5 18.5t-171.5 47.5q-27 10 -58.5 23.5t-59 27.5t-47 25.5t-25.5 17.5z" />
<glyph unicode="T" horiz-adv-x="1327" d="M129 1276v272h1069v-272h-379v-1276h-313v1276h-377z" />
<glyph unicode="U" horiz-adv-x="1519" d="M199 473v1073h313v-1069q0 -98 58.5 -153.5t179.5 -55.5q117 0 186.5 50.5t69.5 158.5v1069h315v-1073q0 -113 -38 -205t-110.5 -157.5t-180 -101.5t-244.5 -36q-143 0 -247 37t-171.5 103.5t-99 159t-31.5 200.5z" />
<glyph unicode="V" horiz-adv-x="1490" d="M102 1550h326q20 -72 54 -185.5t71 -235t69.5 -235.5t53.5 -183q6 -18 13 -46t14.5 -56.5t13.5 -56.5t10 -46q2 -10 3 -43t5 -68q2 -41 6 -90h9q2 49 6 90q2 35 4 68t4 43q2 18 8 46t13.5 56.5t14.5 56t13 46.5l250 839h326l-510 -1550h-269z" />
<glyph unicode="W" horiz-adv-x="1853" d="M115 1550h315q33 -209 64 -397q12 -80 25 -163t25.5 -159.5t23 -140t18.5 -106.5q2 -6 4 -35t4 -45q2 -10 3 -39t3 -60.5t3 -59.5t1 -40h4q0 16 1 45t2 58.5t2 56.5t1 39l7 55q0 14 2 25q6 37 15 94t20.5 124.5t22.5 141.5t24 146q27 168 57 354h330h2q31 -186 57 -354 q12 -72 23.5 -146t21.5 -141.5t20.5 -124.5t16.5 -94q2 -10 2 -15.5v-9.5l6 -55q0 -12 1 -39t2 -56.5t1 -58v-45.5h4q2 12 3 40t3 59.5t3.5 60.5t1.5 39q2 18 5 44.5t5 35.5q6 43 16 106.5t22.5 140t27 159.5t26.5 163q31 188 63 397h314l-338 -1550h-307q-29 162 -56 305 q-12 61 -23 126t-22.5 124t-21.5 112.5t-17 90.5q-2 6 -3 11t-1 11q-4 23 -5 56.5t-5 68.5q0 2 -2 31t-3 64.5t-3 71.5t-2 54h-4q0 -18 -2 -54t-4 -71.5t-4.5 -64.5t-2.5 -31q-2 -35 -4 -68.5t-6 -56.5q0 -6 -1 -11t-3 -11q-6 -37 -16.5 -90.5t-20.5 -112.5t-22.5 -123.5 t-22.5 -126.5q-27 -143 -55 -305h-307z" />
<glyph unicode="X" horiz-adv-x="1552" d="M109 4l479 805l-449 743h371l268 -452q68 113 135.5 226.5t133.5 225.5h368l-446 -741l475 -807h-371l-295 510l-297 -510h-372z" />
<glyph unicode="Y" horiz-adv-x="1525" d="M72 1548h379l313 -585l313 585h377l-532 -917v-631h-314v633z" />
<glyph unicode="Z" horiz-adv-x="1331" d="M133 0v262l612 1014h-579v272h1003v-227l-637 -1049h666v-272h-1065z" />
<glyph unicode="[" horiz-adv-x="993" d="M129 -563v2152h543v-256h-248v-1636h248v-260h-543z" />
<glyph unicode="\" horiz-adv-x="1296" d="M82 1632h311l821 -2197h-313z" />
<glyph unicode="]" horiz-adv-x="993" d="M322 -303h247v1636h-247v256h542v-2152h-542v260z" />
<glyph unicode="^" horiz-adv-x="1249" d="M96 590l404 960h250l403 -956h-326l-200 573l-205 -577h-326z" />
<glyph unicode="_" horiz-adv-x="1757" d="M307 -35h1143v-280h-1143v280z" />
<glyph unicode="`" horiz-adv-x="753" d="M63 1403l181 201l446 -377l-127 -142z" />
<glyph unicode="a" d="M119 297q0 80 27.5 136t73.5 96t103.5 63.5t116 37t114.5 19.5t97 8v2q0 53 -23.5 88t-68.5 35q-68 0 -124 -16t-97 -35q-49 -23 -88 -49l-88 190q45 41 106 74q53 29 129 51.5t181 24.5h14q168 0 262 -79t94 -238v-416q0 -16 13.5 -29.5t29.5 -13.5h82v-248h-213 q-25 0 -49.5 9t-46 24.5t-38.5 34t-26 36.5q-18 -23 -44.5 -46t-58.5 -41.5t-68.5 -30t-75.5 -11.5q-145 0 -240 88q-45 43 -69.5 103.5t-24.5 132.5zM383 309q0 -47 23.5 -72.5t89.5 -25.5q18 0 40.5 9t45 24.5t43 37t32.5 46.5v135q-23 -2 -45 -5t-45 -7 q-80 -14 -132 -52.5t-52 -89.5z" />
<glyph unicode="b" horiz-adv-x="1189" d="M162 260v1368h295v-680q49 37 114.5 55.5t128.5 18.5q94 0 163 -39t115 -106.5t68.5 -156.5t22.5 -188q0 -109 -36 -209t-99.5 -177.5t-150.5 -125t-189 -47.5q-31 0 -71 2t-81 9.5t-77.5 18.5t-63.5 30h-2q-55 41 -96 93t-41 134zM459 233q10 -10 30.5 -14t40.5 -6 q23 -2 50 -2q45 0 79.5 28.5t57 73.5t35 102.5t12.5 114.5q0 106 -16.5 171t-71.5 71q-16 2 -31 2q-53 0 -99 -22q-60 -28 -87 -68v-451z" />
<glyph unicode="c" horiz-adv-x="1159" d="M143 467q0 92 23.5 189.5t79 179.5t144.5 134t220 52q92 0 166 -26.5t127 -59.5q63 -37 113 -84l-129 -219q-45 37 -92 65q-41 25 -88.5 45.5t-88.5 20.5q-96 0 -139 -69.5t-43 -202.5q0 -45 7.5 -91.5t25.5 -84t49 -61.5t78 -24q66 0 123 15.5t100 36.5q49 23 90 53 l101 -232q-70 -35 -142 -63q-61 -25 -138 -45.5t-150 -22.5h-9q-100 0 -182 37q-123 51 -184.5 174t-61.5 283z" />
<glyph unicode="d" horiz-adv-x="1286" d="M115 420q2 100 32.5 207.5t91 194.5t149.5 143.5t206 56.5h10q41 0 74 -12.5t51 -28.5v395h-125v252h422v-1335q0 -16 13.5 -29.5t29.5 -13.5h82v-252h-211q-29 0 -52.5 12.5t-41 28.5t-28.5 33.5t-17 29.5q-23 -18 -55.5 -40.5t-72.5 -42t-88 -33t-104 -13.5 q-178 0 -270 118t-96 329zM418 432q0 -98 30.5 -155.5t75.5 -57.5q47 0 104.5 25.5t106.5 58.5v432q-10 6 -26 13q-14 4 -35 8t-47 6h-6q-53 0 -91 -35q-40 -37 -65 -89t-36 -109.5t-11 -96.5z" />
<glyph unicode="e" d="M143 500q0 104 33 198.5t94.5 167t149.5 114.5t198 42h15q102 -2 173 -34t118 -81t73.5 -107.5t39 -117.5t15.5 -111.5t3 -85.5v-73h-600q0 -33 18.5 -65t49 -57.5t69.5 -41t82 -15.5q53 0 104 13.5t92 29.5q47 18 91 43l96 -219q-66 -37 -133 -63q-59 -25 -131 -44.5 t-138 -19.5q-111 0 -205 38t-161 108q-70 72 -108 168t-38 213zM459 614h327q0 31 -8 64t-26.5 59.5t-50 44t-78.5 17.5q-41 0 -71 -18.5t-51.5 -46t-31.5 -60.5t-10 -60z" />
<glyph unicode="f" horiz-adv-x="952" d="M98 727v256h154v277q0 59 11 125.5t48 122t107.5 91t187.5 35.5q59 0 114.5 -16t102.5 -35q53 -23 103 -49l-92 -203q-25 18 -56 33q-27 12 -64 22q-31 7 -70 7h-17q-31 -2 -54.5 -30t-23.5 -106v-274h295v-256h-295v-727h-297v727h-154z" />
<glyph unicode="g" horiz-adv-x="1249" d="M94 -438l156 215q49 -47 104 -84q47 -33 108.5 -58.5t127.5 -25.5q47 0 77.5 12t48 30.5t23.5 42t6 48.5v291q-59 -23 -126.5 -41.5t-133.5 -18.5q-166 0 -267 114t-101 337q0 121 25.5 229.5t79.5 190.5t136 130t193 48q41 0 81 -12.5t76.5 -30.5t67.5 -39.5t53 -38.5 q10 23 38 53.5t75 30.5h213v-254h-82q-16 0 -29.5 -13t-13.5 -30v-944q0 -74 -24.5 -145.5t-76.5 -129t-134 -92t-197 -34.5q-111 0 -202 33.5t-158 74.5q-80 49 -144 111zM424 459q0 -66 6 -109t17.5 -67.5t28 -34.5t38.5 -10q23 0 51.5 8t57 20.5t57.5 26.5t51 26v371 q-39 25 -88 45.5t-82 20.5q-61 0 -99 -83t-38 -214z" />
<glyph unicode="h" d="M180 0v1628h297v-692q59 33 119.5 59.5t132.5 26.5q106 0 167.5 -36t92.5 -89t38 -115.5t7 -113.5v-668h-295v672q0 35 -23.5 60.5t-58.5 25.5q-41 0 -73.5 -12.5t-55 -28t-36 -29.5t-15.5 -16v-672h-297z" />
<glyph unicode="i" horiz-adv-x="745" d="M174 1452q0 84 57.5 142.5t141.5 58.5q41 0 76.5 -15.5t63.5 -43t43 -64.5t15 -78t-15 -78t-43 -63.5t-63.5 -42t-76.5 -15.5q-84 0 -141.5 57.5t-57.5 141.5zM215 0v983h305v-983h-305z" />
<glyph unicode="j" horiz-adv-x="870" d="M-106 -555l112 244h2q2 -2 22.5 -13.5t51.5 -26t66.5 -26.5t68.5 -14h16q23 0 36.5 15.5t17.5 31.5q6 20 6 47v46t-1 117t-1 164v187v510h-172v256h641v-256h-172v-1028q0 -59 -14.5 -121.5t-55.5 -115t-112.5 -86t-188.5 -33.5q-25 0 -50.5 4t-49.5 10q-35 8 -75 23.5 t-73 29.5q-39 16 -75 35zM244 1395q0 84 57 142t141 58q41 0 77 -15t63.5 -43t43 -64.5t15.5 -77.5t-15.5 -78t-43 -63.5t-63.5 -42t-77 -15.5q-84 0 -141 57.5t-57 141.5z" />
<glyph unicode="k" horiz-adv-x="1091" d="M170 0v1628h293v-952q35 37 89 102.5t103 130.5q57 76 121 162l234 -156l-359 -352l363 -457l-232 -145l-319 440v-401h-293z" />
<glyph unicode="l" horiz-adv-x="823" d="M190 289v1339h295v-1315q0 -49 18.5 -64.5t41.5 -15.5t42 7.5t34 17.5q16 10 30 25l86 -222q-12 -6 -36.5 -21t-59.5 -29.5t-77 -26t-89 -11.5q-68 1 -117 13q-41 8 -72.5 27.5t-53 55t-32 89t-10.5 131.5z" />
<glyph unicode="m" horiz-adv-x="1669" d="M98 727v256h213q25 0 47.5 -10t41 -25.5t31.5 -34t20 -34.5q20 20 49.5 43.5t61.5 43t64.5 32t61.5 12.5q80 0 144.5 -38t87.5 -81q23 18 53.5 38.5t65 38t69.5 30t68 12.5q94 0 153.5 -27t92 -73t45 -106.5t12.5 -127.5v-676h-295v655q0 43 -16.5 57.5t-41.5 14.5 q-35 0 -67.5 -12.5t-61.5 -28.5v-686h-295v655q0 47 -24.5 59.5t-50.5 12.5q-37 0 -62.5 -30.5t-46.5 -61.5v-635h-295v684q0 20 -13 30.5t-31.5 12.5t-40 1t-40.5 -1z" />
<glyph unicode="n" horiz-adv-x="1257" d="M168 0v985h299v-90q20 14 47 34.5t57.5 39t65.5 31t70 12.5q98 0 158.5 -29t94 -76t46 -108.5t12.5 -124.5v-385q0 -16 13 -29.5t30 -13.5h82v-246h-201q-47 0 -87 16.5t-69.5 44t-47 64.5t-17.5 78v448q0 53 -22.5 64.5t-45.5 11.5q-61 0 -107 -23.5t-81 -48.5v-655 h-297z" />
<glyph unicode="o" horiz-adv-x="1247" d="M150 489q0 100 25.5 196.5t82.5 170.5t148.5 119t224.5 45q121 0 209 -40t145 -110.5t85 -165t28 -200.5q0 -102 -25.5 -198.5t-84 -170.5t-151 -118t-225.5 -44q-119 0 -206 40t-144 110t-84.5 164t-27.5 202zM465 510q0 -147 37 -217t123 -70q78 0 117.5 64.5 t39.5 218.5q0 49 -8 96t-26.5 84t-49 59.5t-75.5 22.5q-90 0 -124 -71.5t-34 -186.5z" />
<glyph unicode="p" horiz-adv-x="1222" d="M72 733v254h211q53 0 84.5 -31.5t42.5 -60.5q12 18 42.5 42t75.5 43t99.5 32.5t115.5 13.5q86 0 155 -35t115 -98.5t70.5 -150.5t24.5 -193q0 -111 -35 -219.5t-104 -200.5l-60 -68q-66 -59 -136.5 -85.5t-141.5 -26.5h-13q-29 0 -62.5 5t-61.5 21v-610h-295v1325 q0 16 -13.5 29.5t-29.5 13.5h-84zM487 231l17 -4q45 -10 94 -10h12q43 6 79 40t61.5 81t40 102.5t14.5 106.5q0 215 -103 215q-37 0 -69.5 -11.5t-60 -26.5t-49 -33.5t-36.5 -33.5v-426z" />
<glyph unicode="q" horiz-adv-x="1251" d="M135 434q0 113 42 219.5t111.5 188.5t160 132t186.5 50q57 0 107.5 -6t95.5 -22.5t86 -45t80 -76.5q27 -33 35 -68.5t8 -70.5v-1116h98v-254h-492v254h99v397q-43 -25 -102.5 -47t-123.5 -22q-94 0 -166.5 40t-123 107.5t-76 155.5t-25.5 184zM440 436q0 -102 32 -161.5 t93 -63.5q13 -1 25 -1q61 0 93 18q38 20 69 51v475q-10 2 -19 4q-20 4 -37 4q-47 0 -99 -22.5t-93 -88.5q-63 -98 -64 -215z" />
<glyph unicode="r" horiz-adv-x="1009" d="M150 0v246h77v481h-73v256h348v-154h10q53 74 124 123t167 49q43 0 79 -7t83 -21v-279q-29 8 -60 17q-27 6 -59.5 12t-65.5 6q-51 0 -95 -15.5t-79 -38t-61.5 -48t-42.5 -43.5v-338h80v-246h-432z" />
<glyph unicode="s" horiz-adv-x="1081" d="M135 94l125 225q57 -25 111 -45q47 -16 97 -30.5t91 -14.5q35 0 59.5 27t24.5 61q0 29 -36 44.5t-90 33t-116.5 43t-117.5 76.5q-84 68 -84 191q0 72 29.5 130t80.5 100t120 64.5t149 22.5q66 -4 126 -18.5t105 -31t73 -30.5l27 -14l33 -19l-117 -211q-41 23 -84 43 q-37 16 -81 30.5t-85 14.5q-25 0 -39 -8t-22 -19t-10 -22.5t-2 -19.5q0 -49 137 -96q49 -16 103.5 -36t99.5 -51.5t74.5 -81t29.5 -124.5q0 -80 -32.5 -145.5t-87 -111.5t-126 -72t-149.5 -26q-72 0 -139.5 16t-120.5 36q-55 18 -88 34l-33 17z" />
<glyph unicode="t" horiz-adv-x="915" d="M82 754v254h160v413h293v-413h319v-254h-319v-754h-293v754h-160z" />
<glyph unicode="u" horiz-adv-x="1222" d="M188 307v676h297v-666q0 -14 8.5 -30.5t25 -31.5t39 -25.5t52.5 -10.5q31 0 54.5 10.5t41 25.5t25.5 32.5t8 29.5v666h295v-676q0 -59 -14 -118.5t-54 -106.5t-113 -78t-189 -31h-103q-104 0 -176 26t-116 71t-62.5 106.5t-18.5 130.5z" />
<glyph unicode="v" horiz-adv-x="1249" d="M90 983h330q10 -35 29.5 -88t41 -106.5t40 -99.5t24.5 -68q12 -41 23.5 -87.5t20.5 -89.5t15.5 -81.5t6.5 -63.5h8q-2 25 4 62.5t15 82.5t20.5 90.5t23.5 86.5q6 23 24.5 68.5t40 99t41 106.5t29.5 88h332l-422 -983h-225z" />
<glyph unicode="w" horiz-adv-x="1574" d="M98 983h326q6 -35 18.5 -88t24.5 -106.5t23.5 -99.5t15.5 -68q6 -41 13 -87.5t13.5 -90.5t9.5 -81.5t3 -62.5h6q0 25 3 62.5t8 81.5t12.5 90.5t15.5 87.5q10 45 29.5 113.5t31.5 139.5h273q12 -72 32.5 -140t28.5 -113q6 -41 13.5 -87.5t12.5 -90.5t8 -81.5t3 -62.5h6 q0 25 3 62.5t9.5 81.5t13.5 90.5t13 87.5q4 23 15.5 68.5t23.5 99t24.5 106.5t18.5 88h328l-320 -983h-231q-6 35 -20.5 87t-28 104.5t-25.5 97.5t-16 67q-8 39 -16.5 83t-14.5 85t-10 78t-4 64v14h-7q0 -25 -4 -61.5t-10 -80.5t-14 -91.5t-17 -90.5q-4 -23 -16 -67.5 t-26.5 -97t-28 -104.5t-19.5 -87h-233z" />
<glyph unicode="x" horiz-adv-x="1320" d="M119 80l385 432l-338 403l303 105l205 -318q27 33 64.5 86.5t72.5 104.5q41 59 86 125l293 -107l-354 -391l366 -442l-295 -98l-237 342l-254 -342z" />
<glyph unicode="y" horiz-adv-x="1183" d="M37 -559l117 246q39 -20 75 -37q33 -14 70 -25.5t68 -11.5q41 0 56 38t32 93l57 252q-47 23 -82 66.5t-57 97.5q-20 49 -48 122.5t-57.5 155.5t-60.5 166t-55.5 152.5t-41 115t-20.5 54.5l275 98l245 -711l199 713l276 -102l-376 -1321q-14 -49 -39 -96.5t-64 -84 t-94 -59t-131 -22.5q-49 0 -103.5 13t-99.5 28.5t-74.5 29t-31.5 13.5z" />
<glyph unicode="z" horiz-adv-x="1183" d="M158 0v186l434 543h-393v254h798v-184l-428 -547h457v-252h-868z" />
<glyph unicode="{" horiz-adv-x="1050" d="M76 391v258h137q37 0 58.5 5t32.5 16.5t13 27t2 33.5v498q0 100 29 168.5t82 110.5t128 60.5t165 18.5h139v-258h-135q-78 0 -95.5 -24.5t-17.5 -73.5v-498q0 -72 -31.5 -126t-68.5 -87q41 -35 70.5 -89t29.5 -138v-498q0 -59 21.5 -76.5t81.5 -17.5h145v-258h-139 q-88 0 -162 16.5t-128 57.5t-84 108.5t-30 171.5v498q0 66 -28.5 81t-75.5 15h-139z" />
<glyph unicode="|" horiz-adv-x="1103" d="M410 -612v2261h284v-2261h-284z" />
<glyph unicode="}" horiz-adv-x="1050" d="M188 -299h146q59 0 80.5 17.5t21.5 76.5v498q0 84 30 138t71 89q-37 33 -69 87.5t-32 125.5v498q0 49 -17.5 73.5t-94.5 24.5h-136v258h140q90 0 164.5 -18.5t128 -60.5t82 -110.5t28.5 -168.5v-498q0 -18 2 -33.5t13.5 -27t33 -16.5t58.5 -5h137v-258h-139 q-47 0 -76 -15.5t-29 -80.5v-498q0 -104 -30.5 -171.5t-84 -108.5t-127 -57.5t-161.5 -16.5h-140v258z" />
<glyph unicode="~" horiz-adv-x="2013" d="M410 352v72q0 66 24.5 125t68.5 103t107.5 72t143.5 32q61 4 125.5 -15.5t126.5 -48.5q47 -23 90 -43t82 -37q33 -14 58.5 -23t39.5 -7q35 -4 54.5 17.5t27.5 49.5q8 33 8 76h238v-72q0 -66 -25 -125t-69 -103t-107.5 -71.5t-142.5 -31.5q-61 -4 -126 16t-128 49 q-47 20 -90.5 41t-79.5 37q-33 14 -58.5 23.5t-40.5 7.5q-37 4 -55 -17.5t-27 -50.5q-8 -33 -8 -76h-237z" />
<glyph unicode="&#xa1;" horiz-adv-x="1007" d="M242 819q0 43 16 81t45 66.5t67 45t81 16.5t80.5 -16.5t66.5 -45t45 -66.5t16 -81t-16 -81t-45 -66.5t-66.5 -45t-80.5 -16.5t-81 16.5t-67 45t-45 66.5t-16 81zM262 -598l64 1098h245l66 -1098h-375z" />
<glyph unicode="&#xa2;" horiz-adv-x="1030" d="M70 618q0 92 23.5 189.5t78.5 179.5t144.5 134.5t220.5 52.5q92 0 165.5 -27t126.5 -60q63 -37 113 -83l-129 -220q-45 37 -92 66q-41 25 -88 45t-88 20q-96 0 -139.5 -69.5t-43.5 -202.5q0 -45 7.5 -91t26 -84t49 -61.5t77.5 -23.5q66 0 123 15.5t100 35.5q49 23 91 53 l100 -231q-70 -35 -141 -63q-61 -25 -138 -45.5t-151 -22.5h-8q-101 0 -183 37q-123 51 -184 174t-61 282zM485 -53v1394h177v-1394h-177z" />
<glyph unicode="&#xa3;" horiz-adv-x="1347" d="M109 637v285h176q-6 39 -11.5 87t-5.5 97q0 104 40 186t110.5 137.5t165 85t204.5 29.5q74 0 142.5 -16.5t122 -37t85 -36.5t33.5 -16l33 -19l-133 -245l-37 18l-22 11q-23 11 -58.5 24.5t-83 26t-96.5 12.5q-94 0 -141 -42t-53 -114v-20q0 -35 4 -81t10 -87h321v-285 h-262q8 -43 13.5 -95.5t5.5 -105.5q0 -88 -13 -151h580v-285h-1116v285h223q6 31 10 67.5t4 89.5q0 59 -5 108.5t-13 86.5h-233z" />
<glyph unicode="&#xa4;" horiz-adv-x="1503" d="M156 340l137 129q-63 115 -64 248q0 70 17.5 134t50.5 120l-141 135l180 190l145 -137q121 74 267 74q150 0 272 -76l147 139l181 -190l-148 -139q64 -117 64 -250t-60 -242l144 -135l-181 -193l-141 134q-59 -39 -130 -60.5t-148 -21.5q-76 0 -146 20.5t-129 59.5 l-137 -132zM487 717q0 -53 20.5 -100.5t55.5 -82t83 -55t102 -20.5q53 0 100 20.5t82 55t55.5 82t20.5 100.5t-20.5 100t-55.5 82t-82 55.5t-100 20.5t-101.5 -20.5t-83.5 -55.5t-55.5 -82t-20.5 -100z" />
<glyph unicode="&#xa5;" horiz-adv-x="1939" d="M279 1548h376l316 -585l313 585h377l-340 -585h219v-246h-362l-50 -86v-74h412v-246h-412v-311h-313v311h-416v246h416v76l-51 84h-365v246h222z" />
<glyph unicode="&#xa6;" horiz-adv-x="864" d="M289 428h286v-917h-286v917zM289 629v917h286v-917h-286z" />
<glyph unicode="&#xa7;" horiz-adv-x="1198" d="M150 -152l118 248q53 -41 107 -71q47 -29 103.5 -50.5t109.5 -21.5h4q43 4 67.5 28.5t24.5 61.5q0 59 -51 97t-137 83q-61 31 -119 66t-103 81t-72.5 106.5t-27.5 144.5q0 61 15.5 113t41 95t58.5 78t65 60q-49 37 -89 101.5t-40 164.5q0 78 31 145.5t86 117.5t131 79 t166 29q74 0 140.5 -26t115.5 -54q57 -35 109 -78l-117 -258q-45 39 -92 72q-41 29 -89.5 51t-89.5 22q-61 0 -77.5 -29.5t-6.5 -64.5q2 -10 11.5 -23.5t34.5 -33.5q51 -41 132 -81t155.5 -93.5t129 -129t54.5 -190.5q0 -72 -23.5 -133t-60.5 -104q-25 -33 -52.5 -58.5 t-54.5 -48.5q57 -41 103.5 -109.5t46.5 -175.5q0 -84 -34 -156.5t-92.5 -125.5t-136 -84t-163.5 -31q-80 0 -157 28.5t-138 63.5q-72 41 -137 94zM479 641q0 -59 40 -92t89 -57q31 16 68 47.5t57 66.5q14 33 15 60q0 27 -13.5 50t-35 43.5t-47 38t-52.5 31.5 q-47 -35 -84 -74.5t-37 -113.5z" />
<glyph unicode="&#xa8;" horiz-adv-x="1134" d="M188 1352q0 72 46.5 116.5t115.5 44.5q72 0 117 -44.5t45 -116.5q0 -70 -45 -115t-117 -45q-70 0 -116 45t-46 115zM623 1352q0 72 45 116.5t116 44.5q72 0 117 -44.5t45 -116.5q0 -70 -45 -115t-117 -45t-116.5 45t-44.5 115z" />
<glyph unicode="&#xa9;" horiz-adv-x="1732" d="M299 1112q0 117 45 219.5t123 180t181.5 122.5t219.5 45q115 0 217.5 -42t184.5 -124q82 -80 124 -183t42 -218q0 -117 -45 -220.5t-123 -181t-180.5 -123.5t-219.5 -46t-220 45t-181 123.5t-123 182t-45 220.5zM459 1112q0 -84 32.5 -158.5t88 -130t130 -88.5t158.5 -33 q78 0 153 31t134 90q57 59 89 133t32 156t-33 156.5t-89 130t-130 88.5t-156 33q-84 0 -158.5 -32t-130 -87t-88 -130t-32.5 -159zM627 1102q0 61 19.5 121.5t64.5 105.5q37 39 85 55.5t99 16.5q53 0 105.5 -26.5t76.5 -76.5l-88 -63q-4 4 -12 14.5t-21.5 20.5t-31 18 t-37.5 8q-37 0 -63.5 -18t-42 -46t-22.5 -60.5t-7 -61.5q0 -31 7 -65.5t24.5 -65.5t44 -50.5t63.5 -19.5q18 0 36.5 8.5t34 18.5t26.5 21.5t18 17.5l81 -78q-41 -37 -91 -65.5t-109 -28.5q-56 -1 -111 22q-78 39 -113.5 116t-35.5 161z" />
<glyph unicode="&#xaa;" horiz-adv-x="1050" d="M207 1032q0 92 46 145.5t110.5 82t134 38t116.5 13.5q0 41 -17 67.5t-52 26.5q-53 0 -95 -12.5t-75 -26.5q-37 -16 -68 -37l-67 146q33 33 79 57q41 23 100.5 39t139.5 18h10q129 0 202 -60.5t73 -182.5v-320q0 -12 9 -22.5t24 -10.5h61v-190h-162q-41 0 -74.5 26.5 t-48.5 53.5q-31 -35 -81 -67t-109 -32q-111 0 -184 68q-72 72 -72 180zM410 1042q0 -35 17 -55t69 -20q29 0 66.5 25.5t58.5 64.5v104q-16 -2 -35 -5t-35 -5q-61 -10 -101 -40t-40 -69z" />
<glyph unicode="&#xab;" horiz-adv-x="1855" d="M111 498l440 534l235 -114l-294 -420l296 -412l-237 -119zM666 498l440 534l235 -114l-294 -420l296 -412l-237 -119z" />
<glyph unicode="&#xac;" horiz-adv-x="1693" d="M317 508v246h1059v-467h-293v221h-766z" />
<glyph unicode="&#xad;" horiz-adv-x="1523" d="M430 418v284h664v-284h-664z" />
<glyph unicode="&#xae;" horiz-adv-x="1732" d="M299 1112q0 117 45 219.5t123 180t181.5 122.5t219.5 45q115 0 217.5 -42t184.5 -124q82 -80 124 -183t42 -218q0 -117 -45 -220.5t-123 -181t-180.5 -123.5t-219.5 -46t-220 45t-181 123.5t-123 182t-45 220.5zM459 1112q0 -84 32.5 -158.5t88 -130t130 -88.5t158.5 -33 q78 0 153 31t134 90q57 59 89 133t32 156t-33 156.5t-89 130t-130 88.5t-156 33q-84 0 -158.5 -32t-130 -87t-88 -130t-32.5 -159zM686 823v578h154h24q33 0 68 -5t62.5 -21.5t45 -50.5t17.5 -89q0 -61 -32 -98t-67 -56l144 -250l-121 -26l-143 258h-35v-240h-117zM803 1159 h45q53 0 72.5 17.5t19.5 58.5q0 43 -26.5 54t-55.5 11h-55v-141z" />
<glyph unicode="&#xaf;" horiz-adv-x="952" d="M131 1243v266h690v-266h-690z" />
<glyph unicode="&#xb0;" horiz-adv-x="1003" d="M154 1231q0 72 27.5 135.5t74.5 110.5t110.5 74.5t135.5 27.5t134 -27.5t109.5 -74.5t75 -110.5t27.5 -135.5t-27.5 -134.5t-75 -109.5t-110 -73.5t-133.5 -26.5q-72 0 -135.5 26.5t-110.5 73.5t-74.5 109.5t-27.5 134.5zM362 1231q0 -57 40.5 -96t99.5 -39q57 0 97 39 t40 96q0 59 -40 99t-97 40q-59 0 -99.5 -40t-40.5 -99z" />
<glyph unicode="&#xb1;" horiz-adv-x="1910" d="M430 0v279h1051v-279h-1051zM430 848v278h385v349h279v-349h387v-278h-387v-424h-279v424h-385z" />
<glyph unicode="&#xb2;" horiz-adv-x="956" d="M150 1180v24q0 45 19 98.5t61 99.5t106.5 77.5t155.5 31.5q74 0 132 -23.5t99 -64.5t62.5 -96t21.5 -119q0 -61 -20.5 -109t-53.5 -86t-74 -68t-81 -56l-74 -51q-57 -45 -84 -90.5t-37 -90.5h424v-190h-655v74q0 104 25.5 183t66.5 138.5t91 100.5t97 71q66 41 107 79 t41 106q0 41 -22.5 71.5t-74.5 30.5q-45 0 -87 -33t-46 -90l-2 -18h-198z" />
<glyph unicode="&#xb3;" horiz-adv-x="952" d="M121 565l117 176q10 -10 27.5 -26.5t42 -31.5t56 -27.5t74.5 -12.5q76 0 108 34t32 99q0 39 -14.5 64.5t-38 41t-52.5 20.5t-57 5h-90v193h98q51 0 95 31.5t44 93.5q0 41 -26.5 69.5t-69.5 28.5q-47 0 -77 -17.5t-48 -37.5q-23 -25 -33 -56l-164 78q6 29 25.5 68 t57.5 73.5t97.5 58t143.5 23.5q63 0 120.5 -21.5t100.5 -59t68.5 -90t25.5 -113.5q0 -78 -30.5 -129t-69.5 -80q49 -33 87 -94.5t38 -153.5q0 -147 -99.5 -235t-273.5 -88q-72 0 -128 15.5t-93 33.5q-20 10 -36.5 21t-28.5 22q-14 12 -29 24z" />
<glyph unicode="&#xb4;" horiz-adv-x="753" d="M61 1233l447 377l182 -201l-502 -317z" />
<glyph unicode="&#xb6;" horiz-adv-x="1501" d="M111 872q0 131 27.5 223.5t73.5 152t105.5 92t123 49t126 19.5t113.5 3h711v-264h-142v-1765h-239v1765h-144v-1765h-235v937q-18 -2 -37 -2h-35q-231 0 -339.5 145.5t-108.5 409.5zM391 846q0 -92 11.5 -152.5t38 -97.5t72.5 -52.5t118 -15.5v621q-63 0 -108.5 -9.5 t-75 -40t-43 -91t-13.5 -162.5z" />
<glyph unicode="&#xb7;" horiz-adv-x="1118" d="M373 563q0 43 16.5 81t45 66.5t66.5 45t81 16.5t80.5 -16.5t66.5 -45t45.5 -66.5t16.5 -81t-16.5 -81t-45.5 -66.5t-66.5 -45t-80.5 -16.5t-81 16.5t-66.5 45t-45 66.5t-16.5 81z" />
<glyph unicode="&#xb8;" horiz-adv-x="794" d="M113 -494l49 175q37 -16 74 -29q31 -10 64.5 -19.5t59.5 -9.5q37 0 66 19.5t29 42.5q0 31 -24.5 54t-68.5 23h-184l72 265l278 -13l-30 -131q31 -6 62.5 -19.5t59 -36t45 -55t17.5 -77.5v-8q0 -59 -28.5 -103.5t-75 -73t-101.5 -44t-108 -15.5q-41 0 -82 7.5t-76 17.5 q-18 4 -35.5 10t-32.5 10z" />
<glyph unicode="&#xb9;" horiz-adv-x="858" d="M117 1204l338 287h168v-846h155v-190h-532v190h155v549q-20 -16 -48.5 -40t-57.5 -46q-33 -25 -66 -53z" />
<glyph unicode="&#xba;" horiz-adv-x="1062" d="M205 1188q0 78 19.5 150.5t63.5 130t114.5 91t172.5 33.5q92 0 160 -30.5t112 -85t65.5 -126t21.5 -153.5q0 -80 -20.5 -152.5t-64.5 -130t-116 -91t-172 -33.5q-92 0 -158.5 30.5t-110.5 83.5t-65.5 126t-21.5 157zM446 1202q0 -113 28.5 -166t94.5 -53q59 0 90 49 t31 168q0 39 -6 75t-19.5 63.5t-37 45t-60.5 17.5q-68 0 -94.5 -54.5t-26.5 -144.5z" />
<glyph unicode="&#xbb;" horiz-adv-x="1865" d="M512 82l299 414l-295 417l236 115l438 -534l-438 -531zM1067 82l299 414l-295 417l236 115l438 -534l-438 -531z" />
<glyph unicode="&#xbc;" horiz-adv-x="2428" d="M117 1204l338 287h168v-846h155v-190h-532v190h155v549q-20 -16 -48.5 -40t-57.5 -46q-33 -25 -66 -53zM872 41l510 1450h269l-510 -1450h-269zM1536 279v161l438 639h211v-610h127v-190h-127v-236h-209v236h-440zM1757 469h219v203q0 80 6 170h-6q-23 -45 -43 -86 t-45 -84l-131 -199v-4z" />
<glyph unicode="&#xbd;" horiz-adv-x="2408" d="M117 1206l338 287h168v-846h155v-190h-532v190h155v549q-20 -16 -48.5 -39.5t-57.5 -46.5q-33 -25 -66 -53zM872 43l510 1450h269l-510 -1450h-269zM1632 43v74q0 104 27 184t67.5 138.5t91 100.5t97.5 72q66 41 106.5 79t40.5 104q0 43 -22.5 73.5t-73.5 30.5 q-45 0 -88 -32.5t-47 -90.5v-20h-199v26q0 43 19.5 97.5t60.5 100.5t106.5 78t155.5 32q74 0 132.5 -24t99.5 -64.5t63.5 -97t22.5 -120.5q0 -61 -20.5 -109t-53.5 -86t-75 -67.5t-83 -56.5l-73 -49q-59 -47 -86 -92t-35 -91h424v-190h-658z" />
<glyph unicode="&#xbe;" horiz-adv-x="2322" d="M117 565l116 176q10 -10 28 -26.5t42.5 -31.5t56 -27.5t74.5 -12.5q76 0 107.5 34t31.5 99q0 39 -14 64.5t-37.5 41t-52.5 20.5t-57 5h-90v193h98q51 0 95 31.5t44 93.5q0 41 -26.5 69.5t-69.5 28.5q-47 0 -77 -17.5t-48 -37.5q-23 -25 -33 -56l-164 78q6 29 25.5 68 t57.5 73.5t97.5 58t143.5 23.5q63 0 120.5 -21.5t100.5 -59t68.5 -90t25.5 -113.5q0 -78 -30.5 -129t-69.5 -80q49 -33 87 -94.5t38 -153.5q0 -147 -99.5 -235t-273.5 -88q-72 0 -128 15.5t-93 33.5q-20 10 -36.5 21t-29.5 22zM799 41l510 1450h268l-510 -1450h-268z M1430 276v162l438 639h211v-610h127v-191h-127v-235h-209v235h-440zM1651 467h219v203q0 80 6 170h-6q-23 -45 -43.5 -86t-44.5 -84l-131 -199v-4z" />
<glyph unicode="&#xbf;" horiz-adv-x="1112" d="M51 -113q0 96 33 165t82 114t105.5 71.5t103.5 41.5v251h293v-483q-88 8 -156 -6q-59 -14 -106.5 -53t-47.5 -125q0 -39 14.5 -75t39 -62.5t58.5 -43t75 -16.5q53 0 104 19.5t92 44.5q47 27 90 63l123 -242q-61 -41 -129 -73q-59 -29 -135 -50.5t-158 -21.5 q-90 0 -176 31t-153.5 91t-109.5 150.5t-42 208.5zM311 817q0 43 16.5 81t45 66.5t66.5 45t81 16.5t81 -16.5t66.5 -45t45 -66.5t16.5 -81t-16.5 -81t-45 -66.5t-66.5 -45t-81 -16.5t-81 16.5t-66.5 45t-45 66.5t-16.5 81z" />
<glyph unicode="&#xc0;" horiz-adv-x="1503" d="M92 0l473 1548h328l475 -1548h-330q-16 57 -40.5 140t-51.5 179h-432l-92 -319h-330zM465 1954l180 200l447 -376l-127 -142zM590 592h278q-27 96 -47 179t-36.5 160t-29 152.5t-20.5 159.5h-10q-8 -84 -20.5 -160.5t-29 -153.5t-38 -160t-47.5 -177z" />
<glyph unicode="&#xc1;" horiz-adv-x="1503" d="M92 0l473 1548h328l475 -1548h-330q-16 57 -40.5 140t-51.5 179h-432l-92 -319h-330zM459 1784l446 377l182 -201l-501 -318zM590 592h278q-27 96 -47 179t-36.5 160t-29 152.5t-20.5 159.5h-10q-8 -84 -20.5 -160.5t-29 -153.5t-38 -160t-47.5 -177z" />
<glyph unicode="&#xc2;" horiz-adv-x="1503" d="M92 0l473 1548h328l475 -1548h-330q-16 57 -40.5 140t-51.5 179h-432l-92 -319h-330zM340 1866l391 288l389 -288l-139 -166l-250 205l-250 -205zM590 592h278q-27 96 -47 179t-36.5 160t-29 152.5t-20.5 159.5h-10q-8 -84 -20.5 -160.5t-29 -153.5t-38 -160t-47.5 -177z " />
<glyph unicode="&#xc3;" horiz-adv-x="1503" d="M92 0l473 1548h328l475 -1548h-330q-16 57 -40.5 140t-51.5 179h-432l-92 -319h-330zM301 1858q25 82 66 149q35 57 90 104.5t135 47.5q31 0 63.5 -20.5t66.5 -44t68.5 -44t69.5 -20.5q14 0 31.5 21.5t34.5 49.5q18 31 37 72l190 -84l-10 -33q-27 -76 -66 -135 q-35 -51 -87 -92t-124 -41q-49 0 -85 19.5t-66.5 44t-58 44t-58.5 19.5q-16 0 -33.5 -21.5t-34.5 -48.5q-18 -31 -36 -69zM590 592h278q-27 96 -47 179t-36.5 160t-29 152.5t-20.5 159.5h-10q-8 -84 -20.5 -160.5t-29 -153.5t-38 -160t-47.5 -177z" />
<glyph unicode="&#xc4;" horiz-adv-x="1503" d="M92 0l473 1548h328l475 -1548h-330q-16 57 -40.5 140t-51.5 179h-432l-92 -319h-330zM344 1962q0 72 46 117t116 45q72 0 117 -45t45 -117q0 -70 -45 -115t-117 -45q-70 0 -116 45t-46 115zM590 592h278q-27 96 -47 179t-36.5 160t-29 152.5t-20.5 159.5h-10 q-8 -84 -20.5 -160.5t-29 -153.5t-38 -160t-47.5 -177zM778 1962q0 72 45 117t117 45t117 -45t45 -117q0 -70 -45 -115t-117 -45t-117 45t-45 115z" />
<glyph unicode="&#xc5;" horiz-adv-x="1503" d="M92 0l473 1548h328l475 -1548h-330q-16 57 -40.5 140t-51.5 179h-432l-92 -319h-330zM494 1937q0 49 18 92.5t49 74t73 49t91 18.5t92 -18.5t74 -49t49 -73.5t18 -93q0 -49 -18 -91t-49 -72.5t-74 -49t-92 -18.5t-91 18.5t-73 49t-49 72.5t-18 91zM590 592h278 q-27 96 -47 179t-36.5 160t-29 152.5t-20.5 159.5h-10q-8 -84 -20.5 -160.5t-29 -153.5t-38 -160t-47.5 -177zM637 1937q0 -37 25.5 -62.5t62.5 -25.5q39 0 64.5 26t25.5 62q0 39 -25.5 65t-64.5 26q-37 0 -62.5 -26t-25.5 -65z" />
<glyph unicode="&#xc6;" horiz-adv-x="1943" d="M92 0l670 1548h1100v-272h-619v-338h457v-258h-457v-408h619v-272h-932v319h-379q-47 -109 -82 -193.5t-47 -125.5h-330zM670 592h260v567q-4 -8 -27.5 -58t-59.5 -129t-81 -177.5t-92 -202.5z" />
<glyph unicode="&#xc7;" horiz-adv-x="1445" d="M117 772q0 164 51 327t170 283q98 100 227 145.5t266 45.5q72 0 145 -18.5t138.5 -54.5t119.5 -87t87 -117l-238 -168q-10 12 -31.5 40t-56 55.5t-82 48t-104.5 20.5q-100 0 -169 -49t-112 -124t-62.5 -162t-19.5 -162q0 -84 21.5 -178.5t67 -174.5t116 -133t168.5 -53 q49 0 98.5 21.5t91.5 50t73.5 57.5t45.5 45l222 -205q-55 -49 -118 -95t-130.5 -81t-140 -55.5t-148.5 -20.5q-78 0 -152.5 14.5t-144.5 47.5q-106 49 -182 129t-124 178t-70.5 209t-22.5 221zM461 -494l49 175q37 -16 74 -29q31 -10 64.5 -19.5t60.5 -9.5q37 0 65.5 19.5 t28.5 42.5q0 31 -24.5 54t-67.5 23h-185l72 265l279 -13l-31 -131q31 -6 62.5 -19.5t59 -36t45 -55t17.5 -77.5v-8q0 -59 -28.5 -103.5t-74.5 -73t-101.5 -44t-108.5 -15.5q-41 0 -82 7.5t-76 17.5q-18 4 -35.5 10t-31.5 10z" />
<glyph unicode="&#xc8;" horiz-adv-x="1177" d="M164 0v1548h932v-272h-619v-338h457v-258h-457v-408h619v-272h-932zM354 1954l181 200l446 -376l-127 -142z" />
<glyph unicode="&#xc9;" horiz-adv-x="1177" d="M164 0v1548h932v-272h-619v-338h457v-258h-457v-408h619v-272h-932zM356 1784l447 377l182 -201l-502 -318z" />
<glyph unicode="&#xca;" horiz-adv-x="1177" d="M164 0v1548h932v-272h-619v-338h457v-258h-457v-408h619v-272h-932zM236 1860l391 288l389 -288l-139 -166l-250 204l-250 -204z" />
<glyph unicode="&#xcb;" horiz-adv-x="1177" d="M164 0v1548h932v-272h-619v-338h457v-258h-457v-408h619v-272h-932zM256 1962q0 72 46 117t116 45q72 0 117 -45t45 -117q0 -70 -45.5 -115t-116.5 -45q-70 0 -116 45t-46 115zM690 1962q0 72 45 117t117 45t117 -45t45 -117q0 -70 -45 -115t-117 -45t-117 45t-45 115z " />
<glyph unicode="&#xcc;" horiz-adv-x="1118" d="M193 0v272h2h208v1004h-210v272h733v-272h-209v-1004h209v-272h-733zM268 1954l181 200l446 -376l-127 -142z" />
<glyph unicode="&#xcd;" horiz-adv-x="1118" d="M193 0v272h2h208v1004h-210v272h733v-272h-209v-1004h209v-272h-733zM264 1784l447 377l182 -201l-502 -318z" />
<glyph unicode="&#xce;" horiz-adv-x="1116" d="M168 1862l391 288l389 -288l-139 -166l-250 205l-250 -205zM190 0v272h3h208v1004h-211v272h734v-272h-209v-1004h209v-272h-734z" />
<glyph unicode="&#xcf;" horiz-adv-x="1118" d="M180 1962q0 72 46 117t116 45q72 0 117 -45t45 -117q0 -70 -45 -115t-117 -45q-70 0 -116 45t-46 115zM188 0v272h2h209v1004h-211v272h734v-272h-209v-1004h209v-272h-734zM614 1962q0 72 45.5 117t116.5 45q72 0 117 -45t45 -117q0 -70 -45 -115t-117 -45t-117 45 t-45 115z" />
<glyph unicode="&#xd0;" horiz-adv-x="1505" d="M170 0v272h117v385h-117v267h117v352h-117v272h512q72 0 149.5 -9t152.5 -36.5t142.5 -79t118.5 -136.5t81 -209t30 -296q0 -373 -172 -577.5t-529 -204.5h-485zM600 272h88q166 0 253 138.5t87 380.5q0 156 -31.5 252t-83 147t-115 68.5t-124.5 17.5h-74v-352h260v-267 h-260v-385z" />
<glyph unicode="&#xd1;" horiz-adv-x="1492" d="M199 0v1548h313l381 -737q12 -23 22.5 -57.5t17.5 -72.5t13 -74t10 -58h7l-2 12q-4 33 -7.5 75t-5.5 82t-3 73.5t-1 52.5v704h305v-1548h-264l-430 795q-12 23 -22.5 58.5t-18.5 73.5t-13 72.5t-9 59.5h-7l2 -15q4 -33 7.5 -74.5t5.5 -81.5t3 -74t1 -50v-764h-305z M315 1860q25 82 66 149q35 57 90 104.5t135 47.5q31 0 63.5 -20.5t66.5 -44t69 -44t69 -20.5q14 0 32 21.5t34 49.5q18 31 37 72l190 -84l-10 -33q-27 -76 -65 -135q-35 -51 -87.5 -92t-123.5 -41q-49 0 -85 19.5t-67 44t-58.5 44t-58.5 19.5q-16 0 -33.5 -21.5t-33.5 -48.5 q-18 -31 -37 -69z" />
<glyph unicode="&#xd2;" horiz-adv-x="1622" d="M145 768q0 150 43 295t128 258t209 182.5t284 69.5q18 0 38 -1t40 -3q143 -16 252.5 -90t184.5 -185.5t114 -249t39 -276.5q0 -152 -44 -295t-129 -253.5t-209 -178.5t-284 -68q-162 0 -286 69t-209 180.5t-128 253.5t-43 292zM489 768q0 -70 11.5 -159t46.5 -168 t98.5 -133t165.5 -54q96 0 158.5 54t98.5 133t50.5 168t14.5 161q0 68 -13.5 158t-49.5 171t-98.5 137t-160.5 56t-160.5 -55t-98.5 -136t-49.5 -172t-13.5 -161zM502 1954l180 200l446 -376l-127 -142z" />
<glyph unicode="&#xd3;" horiz-adv-x="1622" d="M145 768q0 150 43 295t128 258t209 182.5t284 69.5q18 0 38 -1t40 -3q143 -16 252.5 -90t184.5 -185.5t114 -249t39 -276.5q0 -152 -44 -295t-129 -253.5t-209 -178.5t-284 -68q-162 0 -286 69t-209 180.5t-128 253.5t-43 292zM489 768q0 -70 11.5 -159t46.5 -168 t98.5 -133t165.5 -54q96 0 158.5 54t98.5 133t50.5 168t14.5 161q0 68 -13.5 158t-49.5 171t-98.5 137t-160.5 56t-160.5 -55t-98.5 -136t-49.5 -172t-13.5 -161zM506 1784l446 377l183 -201l-502 -318z" />
<glyph unicode="&#xd4;" horiz-adv-x="1622" d="M145 768q0 150 43 295t128 258t209 182.5t284 69.5q18 0 38 -1t40 -3q143 -16 252.5 -90t184.5 -185.5t114 -249t39 -276.5q0 -152 -44 -295t-129 -253.5t-209 -178.5t-284 -68q-162 0 -286 69t-209 180.5t-128 253.5t-43 292zM424 1860l391 288l389 -288l-139 -166 l-250 204l-250 -204zM489 768q0 -70 11.5 -159t46.5 -168t98.5 -133t165.5 -54q96 0 158.5 54t98.5 133t50.5 168t14.5 161q0 68 -13.5 158t-49.5 171t-98.5 137t-160.5 56t-160.5 -55t-98.5 -136t-49.5 -172t-13.5 -161z" />
<glyph unicode="&#xd5;" horiz-adv-x="1622" d="M145 768q0 150 43 295t128 258t209 182.5t284 69.5q18 0 38 -1t40 -3q143 -16 252.5 -90t184.5 -185.5t114 -249t39 -276.5q0 -152 -44 -295t-129 -253.5t-209 -178.5t-284 -68q-162 0 -286 69t-209 180.5t-128 253.5t-43 292zM385 1858q25 82 66 149q35 57 90 104.5 t135 47.5q31 0 63.5 -20.5t66.5 -44t68.5 -44t69.5 -20.5q14 0 31.5 21.5t34.5 49.5q18 31 37 72l190 -84l-10 -33q-27 -76 -66 -135q-35 -51 -87 -92t-124 -41q-49 0 -85 19.5t-66.5 44t-58 44t-58.5 19.5q-16 0 -33.5 -21.5t-34.5 -48.5q-18 -31 -36 -69zM489 768 q0 -70 11.5 -159t46.5 -168t98.5 -133t165.5 -54q96 0 158.5 54t98.5 133t50.5 168t14.5 161q0 68 -13.5 158t-49.5 171t-98.5 137t-160.5 56t-160.5 -55t-98.5 -136t-49.5 -172t-13.5 -161z" />
<glyph unicode="&#xd6;" horiz-adv-x="1622" d="M145 768q0 150 43 295t128 258t209 182.5t284 69.5q18 0 38 -1t40 -3q143 -16 252.5 -90t184.5 -185.5t114 -249t39 -276.5q0 -152 -44 -295t-129 -253.5t-209 -178.5t-284 -68q-162 0 -286 69t-209 180.5t-128 253.5t-43 292zM426 1962q0 72 46 117t116 45q72 0 117 -45 t45 -117q0 -70 -45.5 -115t-116.5 -45q-70 0 -116 45t-46 115zM489 768q0 -70 11.5 -159t46.5 -168t98.5 -133t165.5 -54q96 0 158.5 54t98.5 133t50.5 168t14.5 161q0 68 -13.5 158t-49.5 171t-98.5 137t-160.5 56t-160.5 -55t-98.5 -136t-49.5 -172t-13.5 -161zM860 1962 q0 72 45 117t117 45t117 -45t45 -117q0 -70 -45 -115t-117 -45t-117 45t-45 115z" />
<glyph unicode="&#xd7;" horiz-adv-x="2238" d="M645 303l270 268l-262 263l191 210l274 -270l266 262l209 -194l-270 -273q29 -29 74 -71.5t88 -83.5q49 -49 102 -101l-188 -219l-279 279l-272 -273z" />
<glyph unicode="&#xd8;" horiz-adv-x="1622" d="M145 768q0 150 43 295t128 258t209 182.5t284 69.5q18 0 38 -1t40 -3q131 -16 229 -76l78 137h211l-145 -256q106 -117 161.5 -277.5t55.5 -328.5q0 -152 -44 -295t-129 -253.5t-209 -178.5t-284 -68q-88 0 -164 20.5t-141 57.5l-80 -141h-211l145 256 q-106 117 -160.5 274.5t-54.5 327.5zM489 768q0 -63 9.5 -142t36.5 -155l434 764q-31 27 -71 42t-87 15q-98 0 -160.5 -55t-98.5 -136t-49.5 -172t-13.5 -161zM649 303q33 -23 73 -36t89 -13q96 0 158.5 54t98.5 133t50.5 168t14.5 161q0 59 -10.5 138t-39.5 155z" />
<glyph unicode="&#xd9;" horiz-adv-x="1519" d="M199 473v1073h313v-1069q0 -98 58.5 -153.5t179.5 -55.5q117 0 186.5 50.5t69.5 158.5v1069h315v-1073q0 -113 -38 -205t-110.5 -157.5t-180 -101.5t-244.5 -36q-143 0 -247 37t-171.5 103.5t-99 159t-31.5 200.5zM455 1954l180 200l446 -376l-127 -142z" />
<glyph unicode="&#xda;" horiz-adv-x="1519" d="M199 473v1073h313v-1069q0 -98 58.5 -153.5t179.5 -55.5q117 0 186.5 50.5t69.5 158.5v1069h315v-1073q0 -113 -38 -205t-110.5 -157.5t-180 -101.5t-244.5 -36q-143 0 -247 37t-171.5 103.5t-99 159t-31.5 200.5zM500 1784l446 377l182 -201l-501 -318z" />
<glyph unicode="&#xdb;" horiz-adv-x="1519" d="M199 473v1073h313v-1069q0 -98 58.5 -153.5t179.5 -55.5q117 0 186.5 50.5t69.5 158.5v1069h315v-1073q0 -113 -38 -205t-110.5 -157.5t-180 -101.5t-244.5 -36q-143 0 -247 37t-171.5 103.5t-99 159t-31.5 200.5zM365 1855l391 289l389 -289l-139 -165l-250 204 l-250 -204z" />
<glyph unicode="&#xdc;" horiz-adv-x="1519" d="M199 473v1073h313v-1069q0 -98 58.5 -153.5t179.5 -55.5q117 0 186.5 50.5t69.5 158.5v1069h315v-1073q0 -113 -38 -205t-110.5 -157.5t-180 -101.5t-244.5 -36q-143 0 -247 37t-171.5 103.5t-99 159t-31.5 200.5zM383 1962q0 72 46 117t116 45q72 0 117 -45t45 -117 q0 -70 -45.5 -115t-116.5 -45q-70 0 -116 45t-46 115zM817 1962q0 72 45 117t117 45t117 -45t45 -117q0 -70 -45 -115t-117 -45t-117 45t-45 115z" />
<glyph unicode="&#xdd;" horiz-adv-x="1525" d="M72 1548h379l313 -585l313 585h377l-532 -917v-631h-314v633zM461 1784l446 377l183 -201l-502 -318z" />
<glyph unicode="&#xde;" horiz-adv-x="1316" d="M231 0v1546h301v-250h97q41 0 94 -3t107.5 -15t106.5 -38t94 -71t66.5 -113.5t24.5 -164.5q0 -129 -43 -218t-114.5 -144.5t-165.5 -80t-197 -24.5h-70v-424h-301zM532 698h56q49 0 90 7.5t70.5 28t47 57t17.5 96.5q0 51 -19.5 78.5t-50 40t-65.5 14.5t-66 2h-80v-324z " />
<glyph unicode="&#xdf;" horiz-adv-x="1400" d="M182 0v1010q0 123 12.5 221t46 173t94 127t154.5 85q92 31 199 31q86 0 167 -26t145.5 -79t103.5 -133t39 -188q0 -96 -24.5 -142.5t-47.5 -68.5q-18 -18 -39.5 -32.5t-40 -29t-33 -31t-16.5 -34.5t7 -37t25.5 -38.5t38 -38.5t44.5 -38h2q35 -33 71.5 -67.5t67.5 -77.5 t50.5 -93.5t19.5 -113.5q0 -90 -32 -164t-91.5 -128t-143.5 -84t-188 -30q-53 0 -95 8.5t-71 18.5q-35 10 -61 27v321q25 -37 57 -65q29 -25 67 -44.5t89 -19.5q96 0 140 27.5t44 115.5q0 43 -32.5 77t-86.5 85q-35 31 -69.5 66t-63.5 75t-47 87t-18 104v14q0 63 21.5 97 t51 59t61 49.5t54.5 67.5q6 16 9 29.5t3 31.5q0 86 -52 140.5t-144 54.5q-123 0 -171 -90t-48 -285v-1024h-269z" />
<glyph unicode="&#xe0;" d="M119 297q0 80 27.5 136t73.5 96t103.5 63.5t116 37t114.5 19.5t97 8v2q0 53 -23.5 88t-68.5 35q-68 0 -124 -16t-97 -35q-49 -23 -88 -49l-88 190q45 41 106 74q53 29 129 51.5t181 24.5h14q168 0 262 -79t94 -238v-416q0 -16 13.5 -29.5t29.5 -13.5h82v-248h-213 q-25 0 -49.5 9t-46 24.5t-38.5 34t-26 36.5q-18 -23 -44.5 -46t-58.5 -41.5t-68.5 -30t-75.5 -11.5q-145 0 -240 88q-45 43 -69.5 103.5t-24.5 132.5zM309 1403l180 201l447 -377l-127 -142zM383 309q0 -47 23.5 -72.5t89.5 -25.5q18 0 40.5 9t45 24.5t43 37t32.5 46.5v135 q-23 -2 -45 -5t-45 -7q-80 -14 -132 -52.5t-52 -89.5z" />
<glyph unicode="&#xe1;" d="M119 297q0 80 27.5 136t73.5 96t103.5 63.5t116 37t114.5 19.5t97 8v2q0 53 -23.5 88t-68.5 35q-68 0 -124 -16t-97 -35q-49 -23 -88 -49l-88 190q45 41 106 74q53 29 129 51.5t181 24.5h14q168 0 262 -79t94 -238v-416q0 -16 13.5 -29.5t29.5 -13.5h82v-248h-213 q-25 0 -49.5 9t-46 24.5t-38.5 34t-26 36.5q-18 -23 -44.5 -46t-58.5 -41.5t-68.5 -30t-75.5 -11.5q-145 0 -240 88q-45 43 -69.5 103.5t-24.5 132.5zM311 1233l447 377l182 -201l-502 -317zM383 309q0 -47 23.5 -72.5t89.5 -25.5q18 0 40.5 9t45 24.5t43 37t32.5 46.5v135 q-23 -2 -45 -5t-45 -7q-80 -14 -132 -52.5t-52 -89.5z" />
<glyph unicode="&#xe2;" d="M119 297q0 80 27.5 136t73.5 96t103.5 63.5t116 37t114.5 19.5t97 8v2q0 53 -23.5 88t-68.5 35q-68 0 -124 -16t-97 -35q-49 -23 -88 -49l-88 190q45 41 106 74q53 29 129 51.5t181 24.5h14q168 0 262 -79t94 -238v-416q0 -16 13.5 -29.5t29.5 -13.5h82v-248h-213 q-25 0 -49.5 9t-46 24.5t-38.5 34t-26 36.5q-18 -23 -44.5 -46t-58.5 -41.5t-68.5 -30t-75.5 -11.5q-145 0 -240 88q-45 43 -69.5 103.5t-24.5 132.5zM162 1339l391 289l389 -289l-139 -165l-250 204l-250 -204zM383 309q0 -47 23.5 -72.5t89.5 -25.5q18 0 40.5 9t45 24.5 t43 37t32.5 46.5v135q-23 -2 -45 -5t-45 -7q-80 -14 -132 -52.5t-52 -89.5z" />
<glyph unicode="&#xe3;" d="M119 297q0 80 27.5 136t73.5 96t103.5 63.5t116 37t114.5 19.5t97 8v2q0 53 -23.5 88t-68.5 35q-68 0 -124 -16t-97 -35q-49 -23 -88 -49l-88 190q45 41 106 74q53 29 129 51.5t181 24.5h14q168 0 262 -79t94 -238v-416q0 -16 13.5 -29.5t29.5 -13.5h82v-248h-213 q-25 0 -49.5 9t-46 24.5t-38.5 34t-26 36.5q-18 -23 -44.5 -46t-58.5 -41.5t-68.5 -30t-75.5 -11.5q-145 0 -240 88q-45 43 -69.5 103.5t-24.5 132.5zM145 1292q25 82 66 150q35 57 90 104t135 47q31 0 63.5 -20.5t66.5 -44t69 -44t70 -20.5q14 0 31.5 21.5t33.5 50.5 q18 31 37 72l190 -84l-10 -33q-27 -76 -65 -135q-35 -51 -87.5 -92t-123.5 -41q-49 0 -85 19.5t-67 44t-58.5 44t-58.5 19.5q-16 0 -33.5 -21.5t-33.5 -48.5q-18 -31 -37 -70zM383 309q0 -47 23.5 -72.5t89.5 -25.5q18 0 40.5 9t45 24.5t43 37t32.5 46.5v135q-23 -2 -45 -5 t-45 -7q-80 -14 -132 -52.5t-52 -89.5z" />
<glyph unicode="&#xe4;" d="M119 297q0 80 27.5 136t73.5 96t103.5 63.5t116 37t114.5 19.5t97 8v2q0 53 -23.5 88t-68.5 35q-68 0 -124 -16t-97 -35q-49 -23 -88 -49l-88 190q45 41 106 74q53 29 129 51.5t181 24.5h14q168 0 262 -79t94 -238v-416q0 -16 13.5 -29.5t29.5 -13.5h82v-248h-213 q-25 0 -49.5 9t-46 24.5t-38.5 34t-26 36.5q-18 -23 -44.5 -46t-58.5 -41.5t-68.5 -30t-75.5 -11.5q-145 0 -240 88q-45 43 -69.5 103.5t-24.5 132.5zM211 1413q0 72 46 117t116 45q72 0 117 -45t45 -117q0 -70 -45.5 -115t-116.5 -45q-70 0 -116 45t-46 115zM383 309 q0 -47 23.5 -72.5t89.5 -25.5q18 0 40.5 9t45 24.5t43 37t32.5 46.5v135q-23 -2 -45 -5t-45 -7q-80 -14 -132 -52.5t-52 -89.5zM645 1413q0 72 45 117t117 45t117 -45t45 -117q0 -70 -45 -115t-117 -45t-117 45t-45 115z" />
<glyph unicode="&#xe5;" d="M119 297q0 80 27.5 136t73.5 96t103.5 63.5t116 37t114.5 19.5t97 8v2q0 53 -23.5 88t-68.5 35q-68 0 -124 -16t-97 -35q-49 -23 -88 -49l-88 190q45 41 106 74q53 29 129 51.5t181 24.5h14q168 0 262 -79t94 -238v-416q0 -16 13.5 -29.5t29.5 -13.5h82v-248h-213 q-25 0 -49.5 9t-46 24.5t-38.5 34t-26 36.5q-18 -23 -44.5 -46t-58.5 -41.5t-68.5 -30t-75.5 -11.5q-145 0 -240 88q-45 43 -69.5 103.5t-24.5 132.5zM360 1413q0 49 18.5 92t49.5 74t73 49.5t91 18.5t92 -18.5t73.5 -49.5t49 -74t18.5 -92t-18.5 -91t-49 -72.5t-73.5 -49 t-92 -18.5t-91 18.5t-73 49t-49.5 72.5t-18.5 91zM383 309q0 -47 23.5 -72.5t89.5 -25.5q18 0 40.5 9t45 24.5t43 37t32.5 46.5v135q-23 -2 -45 -5t-45 -7q-80 -14 -132 -52.5t-52 -89.5zM504 1413q0 -37 25.5 -62.5t62.5 -25.5q39 0 64.5 25.5t25.5 62.5q0 39 -25.5 64.5 t-64.5 25.5q-37 0 -62.5 -25.5t-25.5 -64.5z" />
<glyph unicode="&#xe6;" horiz-adv-x="1732" d="M119 299q0 80 27.5 137.5t73.5 99.5t103.5 67.5t116 40.5t114.5 22.5t97 9.5v2q0 53 -27.5 75.5t-64.5 22.5q-68 0 -124 -15.5t-97 -31.5q-49 -20 -88 -45l-88 190q45 41 106 74q53 29 129 51.5t181 24.5h14q86 0 162.5 -20.5t122.5 -61.5q55 39 132.5 60.5t155.5 21.5 h15q102 -4 172.5 -35t118 -80t74 -107.5t38.5 -117.5t15.5 -111.5t3.5 -85.5v-79h-601q0 -33 18.5 -67t49.5 -60.5t70 -43t82 -16.5q53 0 104 15.5t92 33.5q47 23 90 52l97 -220q-61 -37 -129 -65q-57 -25 -128 -44.5t-141 -19.5q-80 0 -148.5 21.5t-120.5 49.5t-84 53.5 t-38 31.5q-23 -23 -59.5 -49.5t-84.5 -49t-104.5 -39t-113.5 -16.5q-145 0 -240 88q-45 43 -69.5 103.5t-24.5 132.5zM408 309q0 -41 20.5 -62.5t79.5 -21.5q33 0 77 29t66 70v114q-18 -2 -38.5 -4t-41.5 -6q-72 -10 -117.5 -43t-45.5 -76zM1006 616h305q-4 27 -14.5 54.5 t-28 51t-42 38t-57.5 14.5q-41 0 -70.5 -16.5t-49 -40t-30.5 -51t-13 -50.5z" />
<glyph unicode="&#xe7;" horiz-adv-x="1159" d="M143 467q0 92 23.5 189.5t79 179.5t144.5 134t220 52q92 0 166 -26.5t127 -59.5q63 -37 113 -84l-129 -219q-45 37 -92 65q-41 25 -88.5 45.5t-88.5 20.5q-96 0 -139 -69.5t-43 -202.5q0 -45 7.5 -91.5t25.5 -84t49 -61.5t78 -24q66 0 123 15.5t100 36.5q49 23 90 53 l101 -232q-70 -35 -142 -63q-61 -25 -138 -45.5t-150 -22.5h-9q-100 0 -182 37q-123 51 -184.5 174t-61.5 283zM303 -494l49 175q37 -16 74 -29q31 -10 64.5 -19.5t60.5 -9.5q37 0 65.5 19.5t28.5 42.5q0 31 -24.5 54t-67.5 23h-184l71 265l279 -13l-31 -131 q31 -6 62.5 -19.5t59.5 -36t45 -55t17 -77.5v-8q0 -59 -28.5 -103.5t-74.5 -73t-101.5 -44t-108.5 -15.5q-41 0 -82 7.5t-76 17.5q-18 4 -35.5 10t-31.5 10z" />
<glyph unicode="&#xe8;" d="M143 500q0 104 33 198.5t94.5 167t149.5 114.5t198 42h15q102 -2 173 -34t118 -81t73.5 -107.5t39 -117.5t15.5 -111.5t3 -85.5v-73h-600q0 -33 18.5 -65t49 -57.5t69.5 -41t82 -15.5q53 0 104 13.5t92 29.5q47 18 91 43l96 -219q-66 -37 -133 -63q-59 -25 -131 -44.5 t-138 -19.5q-111 0 -205 38t-161 108q-70 72 -108 168t-38 213zM289 1403l180 201l446 -377l-127 -142zM459 614h327q0 31 -8 64t-26.5 59.5t-50 44t-78.5 17.5q-41 0 -71 -18.5t-51.5 -46t-31.5 -60.5t-10 -60z" />
<glyph unicode="&#xe9;" d="M143 500q0 104 33 198.5t94.5 167t149.5 114.5t198 42h15q102 -2 173 -34t118 -81t73.5 -107.5t39 -117.5t15.5 -111.5t3 -85.5v-73h-600q0 -33 18.5 -65t49 -57.5t69.5 -41t82 -15.5q53 0 104 13.5t92 29.5q47 18 91 43l96 -219q-66 -37 -133 -63q-59 -25 -131 -44.5 t-138 -19.5q-111 0 -205 38t-161 108q-70 72 -108 168t-38 213zM291 1233l446 377l183 -201l-502 -317zM459 614h327q0 31 -8 64t-26.5 59.5t-50 44t-78.5 17.5q-41 0 -71 -18.5t-51.5 -46t-31.5 -60.5t-10 -60z" />
<glyph unicode="&#xea;" d="M143 500q0 104 33 198.5t94.5 167t149.5 114.5t198 42h15q102 -2 173 -34t118 -81t73.5 -107.5t39 -117.5t15.5 -111.5t3 -85.5v-73h-600q0 -33 18.5 -65t49 -57.5t69.5 -41t82 -15.5q53 0 104 13.5t92 29.5q47 18 91 43l96 -219q-66 -37 -133 -63q-59 -25 -131 -44.5 t-138 -19.5q-111 0 -205 38t-161 108q-70 72 -108 168t-38 213zM213 1341l391 289l389 -289l-139 -165l-250 204l-250 -204zM459 614h327q0 31 -8 64t-26.5 59.5t-50 44t-78.5 17.5q-41 0 -71 -18.5t-51.5 -46t-31.5 -60.5t-10 -60z" />
<glyph unicode="&#xeb;" d="M143 500q0 104 33 198.5t94.5 167t149.5 114.5t198 42h15q102 -2 173 -34t118 -81t73.5 -107.5t39 -117.5t15.5 -111.5t3 -85.5v-73h-600q0 -33 18.5 -65t49 -57.5t69.5 -41t82 -15.5q53 0 104 13.5t92 29.5q47 18 91 43l96 -219q-66 -37 -133 -63q-59 -25 -131 -44.5 t-138 -19.5q-111 0 -205 38t-161 108q-70 72 -108 168t-38 213zM217 1413q0 72 46 117t116 45q72 0 117 -45t45 -117q0 -70 -45 -115t-117 -45q-70 0 -116 45t-46 115zM459 614h327q0 31 -8 64t-26.5 59.5t-50 44t-78.5 17.5q-41 0 -71 -18.5t-51.5 -46t-31.5 -60.5t-10 -60 zM651 1413q0 72 45 117t117 45t117 -45t45 -117q0 -70 -45 -115t-117 -45t-117 45t-45 115z" />
<glyph unicode="&#xec;" horiz-adv-x="745" d="M59 1403l181 201l446 -377l-127 -142zM221 0v983h305v-983h-305z" />
<glyph unicode="&#xed;" horiz-adv-x="747" d="M59 1233l447 377l182 -201l-502 -317zM223 0v983h305v-983h-305z" />
<glyph unicode="&#xee;" horiz-adv-x="745" d="M-16 1337l391 289l389 -289l-139 -166l-250 205l-250 -205zM221 0v983h305v-983h-305z" />
<glyph unicode="&#xef;" horiz-adv-x="745" d="M-6 1413q0 72 46 117t116 45q72 0 116.5 -45t44.5 -117q0 -70 -45 -115t-116 -45q-70 0 -116 45t-46 115zM219 0v983h305v-983h-305zM428 1413q0 72 45 117t117 45t117 -45t45 -117q0 -70 -45 -115t-117 -45t-117 45t-45 115z" />
<glyph unicode="&#xf0;" horiz-adv-x="1193" d="M123 500q0 104 25.5 201.5t83 171t149.5 118.5t223 45h45q-4 14 -15 38t-25.5 50.5t-27 51t-20.5 38.5l-188 -84l-76 150l162 76l-137 182l317 86l90 -129q16 6 48 20.5t61 28.5q35 16 71 37l88 -160l-155 -78q35 -72 75.5 -165t75.5 -196t57.5 -211.5t22.5 -209.5 q0 -111 -22.5 -217t-77.5 -188t-149.5 -132.5t-237.5 -50.5q-119 0 -206 41t-144.5 112t-85 167t-27.5 207zM436 465q0 -121 35 -175t107 -59h16q72 0 110.5 59.5t53.5 209.5v51q0 219 -140 229h-14q-47 0 -79.5 -24.5t-52 -67.5t-28 -100.5t-8.5 -122.5z" />
<glyph unicode="&#xf1;" horiz-adv-x="1257" d="M168 0v985h299v-90q20 14 47 34.5t57.5 39t65.5 31t70 12.5q98 0 158.5 -29t94 -76t46 -108.5t12.5 -124.5v-385q0 -16 13 -29.5t30 -13.5h82v-246h-201q-47 0 -87 16.5t-69.5 44t-47 64.5t-17.5 78v448q0 53 -22.5 64.5t-45.5 11.5q-61 0 -107 -23.5t-81 -48.5v-655 h-297zM168 1292q25 82 65 150q35 57 90.5 104t135.5 47q31 0 63.5 -20.5t66.5 -44t68.5 -44t69.5 -20.5q14 0 31.5 21.5t34.5 50.5q18 31 36 72l191 -84l-10 -33q-27 -76 -66 -135q-35 -51 -87 -92t-124 -41q-49 0 -85 19.5t-66.5 44t-58 44t-58.5 19.5q-16 0 -33.5 -21.5 t-34.5 -48.5q-18 -31 -37 -70z" />
<glyph unicode="&#xf2;" horiz-adv-x="1247" d="M150 489q0 100 25.5 196.5t82.5 170.5t148.5 119t224.5 45q121 0 209 -40t145 -110.5t85 -165t28 -200.5q0 -102 -25.5 -198.5t-84 -170.5t-151 -118t-225.5 -44q-119 0 -206 40t-144 110t-84.5 164t-27.5 202zM330 1403l180 201l446 -377l-127 -142zM465 510 q0 -147 37 -217t123 -70q78 0 117.5 64.5t39.5 218.5q0 49 -8 96t-26.5 84t-49 59.5t-75.5 22.5q-90 0 -124 -71.5t-34 -186.5z" />
<glyph unicode="&#xf3;" horiz-adv-x="1247" d="M150 489q0 100 25.5 196.5t82.5 170.5t148.5 119t224.5 45q121 0 209 -40t145 -110.5t85 -165t28 -200.5q0 -102 -25.5 -198.5t-84 -170.5t-151 -118t-225.5 -44q-119 0 -206 40t-144 110t-84.5 164t-27.5 202zM324 1233l446 377l182 -201l-501 -317zM465 510 q0 -147 37 -217t123 -70q78 0 117.5 64.5t39.5 218.5q0 49 -8 96t-26.5 84t-49 59.5t-75.5 22.5q-90 0 -124 -71.5t-34 -186.5z" />
<glyph unicode="&#xf4;" horiz-adv-x="1247" d="M150 489q0 100 25.5 196.5t82.5 170.5t148.5 119t224.5 45q121 0 209 -40t145 -110.5t85 -165t28 -200.5q0 -102 -25.5 -198.5t-84 -170.5t-151 -118t-225.5 -44q-119 0 -206 40t-144 110t-84.5 164t-27.5 202zM238 1339l391 289l389 -289l-139 -165l-250 204l-250 -204z M465 510q0 -147 37 -217t123 -70q78 0 117.5 64.5t39.5 218.5q0 49 -8 96t-26.5 84t-49 59.5t-75.5 22.5q-90 0 -124 -71.5t-34 -186.5z" />
<glyph unicode="&#xf5;" horiz-adv-x="1247" d="M150 489q0 100 25.5 196.5t82.5 170.5t148.5 119t224.5 45q121 0 209 -40t145 -110.5t85 -165t28 -200.5q0 -102 -25.5 -198.5t-84 -170.5t-151 -118t-225.5 -44q-119 0 -206 40t-144 110t-84.5 164t-27.5 202zM197 1292q25 82 65 150q35 57 90.5 104t134.5 47 q31 0 64 -20.5t66.5 -44t68.5 -44t70 -20.5q14 0 31.5 21.5t33.5 50.5q18 31 37 72l191 -84l-11 -33q-27 -76 -65 -135q-35 -51 -87 -92t-124 -41q-49 0 -85 19.5t-66.5 44t-58 44t-58.5 19.5q-16 0 -34 -21.5t-34 -48.5q-18 -31 -37 -70zM465 510q0 -147 37 -217t123 -70 q78 0 117.5 64.5t39.5 218.5q0 49 -8 96t-26.5 84t-49 59.5t-75.5 22.5q-90 0 -124 -71.5t-34 -186.5z" />
<glyph unicode="&#xf6;" horiz-adv-x="1247" d="M150 489q0 100 25.5 196.5t82.5 170.5t148.5 119t224.5 45q121 0 209 -40t145 -110.5t85 -165t28 -200.5q0 -102 -25.5 -198.5t-84 -170.5t-151 -118t-225.5 -44q-119 0 -206 40t-144 110t-84.5 164t-27.5 202zM246 1413q0 72 46 117t116 45q72 0 116.5 -45t44.5 -117 q0 -70 -45 -115t-116 -45q-70 0 -116 45t-46 115zM465 510q0 -147 37 -217t123 -70q78 0 117.5 64.5t39.5 218.5q0 49 -8 96t-26.5 84t-49 59.5t-75.5 22.5q-90 0 -124 -71.5t-34 -186.5zM680 1413q0 72 45 117t117 45t117 -45t45 -117q0 -70 -45.5 -115t-116.5 -45 q-72 0 -117 45t-45 115z" />
<glyph unicode="&#xf7;" horiz-adv-x="1910" d="M430 424v278h1051v-278h-1051zM772 997q0 41 16.5 78t44 64.5t64.5 44t78 16.5t78 -16.5t64.5 -44t44 -64.5t16.5 -78t-16.5 -77.5t-44 -64.5t-64.5 -44t-78 -16t-78 16t-64.5 44t-44 64.5t-16.5 77.5zM774 174q0 41 16.5 78t44 64.5t64.5 44t78 16.5t78 -16.5t64.5 -44 t44 -64.5t16.5 -78t-16.5 -78t-44 -64.5t-64.5 -44t-78 -16.5t-78 16.5t-64.5 44t-44 64.5t-16.5 78z" />
<glyph unicode="&#xf8;" horiz-adv-x="1247" d="M66 -74l174 228q-47 68 -68.5 152.5t-21.5 182.5q0 100 25.5 196.5t82.5 170.5t148.5 119t224.5 45q72 0 131 -14.5t106 -40.5l84 110h236l-62 -82l-118 -153q47 -68 68.5 -153t21.5 -183q0 -102 -25.5 -198.5t-84 -170.5t-151 -118t-225.5 -44q-70 0 -128 14.5 t-107 39.5l-76 -101h-235zM465 478.5q0 -15.5 2 -32.5l231 299q-33 23 -75 23q-90 0 -124 -71.5t-34 -186.5v-31.5zM547 244q35 -20 78 -21q78 0 117.5 64.5t39.5 218.5v20.5t-2 20.5z" />
<glyph unicode="&#xf9;" horiz-adv-x="1222" d="M188 307v676h297v-666q0 -14 8.5 -30.5t25 -31.5t39 -25.5t52.5 -10.5q31 0 54.5 10.5t41 25.5t25.5 32.5t8 29.5v666h295v-676q0 -59 -14 -118.5t-54 -106.5t-113 -78t-189 -31h-103q-104 0 -176 26t-116 71t-62.5 106.5t-18.5 130.5zM313 1485l181 201l446 -377 l-127 -142z" />
<glyph unicode="&#xfa;" horiz-adv-x="1222" d="M188 307v676h297v-666q0 -14 8.5 -30.5t25 -31.5t39 -25.5t52.5 -10.5q31 0 54.5 10.5t41 25.5t25.5 32.5t8 29.5v666h295v-676q0 -59 -14 -118.5t-54 -106.5t-113 -78t-189 -31h-103q-104 0 -176 26t-116 71t-62.5 106.5t-18.5 130.5zM322 1315l446 377l182 -201 l-501 -317z" />
<glyph unicode="&#xfb;" horiz-adv-x="1222" d="M188 307v676h297v-666q0 -14 8.5 -30.5t25 -31.5t39 -25.5t52.5 -10.5q31 0 54.5 10.5t41 25.5t25.5 32.5t8 29.5v666h295v-676q0 -59 -14 -118.5t-54 -106.5t-113 -78t-189 -31h-103q-104 0 -176 26t-116 71t-62.5 106.5t-18.5 130.5zM221 1341l391 289l389 -289 l-139 -165l-250 204l-250 -204z" />
<glyph unicode="&#xfc;" horiz-adv-x="1222" d="M188 307v676h297v-666q0 -14 8.5 -30.5t25 -31.5t39 -25.5t52.5 -10.5q31 0 54.5 10.5t41 25.5t25.5 32.5t8 29.5v666h295v-676q0 -59 -14 -118.5t-54 -106.5t-113 -78t-189 -31h-103q-104 0 -176 26t-116 71t-62.5 106.5t-18.5 130.5zM231 1413q0 72 46.5 117t115.5 45 q72 0 117 -45t45 -117q0 -70 -45 -115t-117 -45q-70 0 -116 45t-46 115zM666 1413q0 72 45 117t116 45q72 0 117 -45t45 -117q0 -70 -45 -115t-117 -45t-116.5 45t-44.5 115z" />
<glyph unicode="&#xfd;" horiz-adv-x="1183" d="M37 -559l117 246q39 -20 75 -37q33 -14 70 -25.5t68 -11.5q41 0 56 38t32 93l57 252q-47 23 -82 66.5t-57 97.5q-20 49 -48 122.5t-57.5 155.5t-60.5 166t-55.5 152.5t-41 115t-20.5 54.5l275 98l245 -711l199 713l276 -102l-376 -1321q-14 -49 -39 -96.5t-64 -84 t-94 -59t-131 -22.5q-49 0 -103.5 13t-99.5 28.5t-74.5 29t-31.5 13.5zM254 1233l446 377l183 -201l-502 -317z" />
<glyph unicode="&#xfe;" horiz-adv-x="1222" d="M223 -563v2175h295v-619q41 10 83 16.5t89 6.5q88 0 161 -36t126 -99.5t83 -152.5t30 -196q0 -131 -41 -240.5t-110 -188t-160 -122.5t-189 -44h-12q-16 0 -29.5 1t-30.5 3v-504h-295zM518 219q4 -6 21.5 -9t27.5 -3q39 0 78 28.5t69.5 74.5t49 103.5t18.5 116.5 q0 117 -29.5 168.5t-88.5 51.5q-39 0 -78 -17.5t-68 -34.5v-479z" />
<glyph unicode="&#xff;" horiz-adv-x="1183" d="M37 -559l117 246q39 -20 75 -37q33 -14 70 -25.5t68 -11.5q41 0 56 38t32 93l57 252q-47 23 -82 66.5t-57 97.5q-20 49 -48 122.5t-57.5 155.5t-60.5 166t-55.5 152.5t-41 115t-20.5 54.5l275 98l245 -711l199 713l276 -102l-376 -1321q-14 -49 -39 -96.5t-64 -84 t-94 -59t-131 -22.5q-49 0 -103.5 13t-99.5 28.5t-74.5 29t-31.5 13.5zM231 1413q0 72 46.5 117t115.5 45q72 0 117 -45t45 -117q0 -70 -45 -115t-117 -45q-70 0 -116 45t-46 115zM666 1413q0 72 45 117t116 45q72 0 117 -45t45 -117q0 -70 -45 -115t-117 -45t-116.5 45 t-44.5 115z" />
<glyph unicode="&#x152;" horiz-adv-x="2111" d="M147.5 811q6.5 154 54.5 299t138 254t222 167t306 40q127 -14 230 -76v53h932v-272h-619v-338h457v-258h-457v-408h619v-272h-932v61q-66 -41 -140.5 -63.5t-164.5 -22.5q-168 0 -292 73t-204 190.5t-118 268t-31.5 304.5zM492 772q0 -68 10 -158t41.5 -171t91.5 -135 t158 -52q100 0 160.5 56.5t92 137t42 172t10.5 160.5q0 70 -12.5 161t-46 170t-96 131t-163.5 48q-96 -4 -153.5 -59t-88 -135t-38.5 -168t-8 -158z" />
<glyph unicode="&#x153;" horiz-adv-x="1839" d="M150 489q0 100 25.5 196.5t82.5 170.5t148.5 119t224.5 45q104 0 183 -29.5t136 -83.5q59 53 136 84t171 31h15q102 -2 173 -34t118 -81t73.5 -107.5t39 -117.5t15.5 -111.5t3 -85.5v-79h-600q0 -33 18 -64t49 -55.5t70 -39t82 -14.5q53 0 104 13.5t92 29.5q47 18 90 43 l97 -219q-66 -37 -133 -63q-59 -25 -131 -44.5t-138 -19.5q-100 0 -188 32t-154 91q-59 -57 -142 -90t-198 -33q-119 0 -206 40t-144 110t-84.5 164t-27.5 202zM465 510q0 -147 37 -217t123 -70q78 0 117.5 64.5t39.5 218.5q0 49 -8 96t-26.5 84t-49 59.5t-75.5 22.5 q-90 0 -124 -71.5t-34 -186.5zM1098 614h305q-4 27 -14.5 54.5t-28 51t-41.5 38t-57 14.5q-41 0 -71 -16.5t-49.5 -40t-30.5 -51t-13 -50.5z" />
<glyph unicode="&#x178;" horiz-adv-x="1525" d="M72 1548h379l313 -585l313 585h377l-532 -917v-631h-314v633zM385 1962q0 72 46 117t116 45q72 0 117 -45t45 -117q0 -70 -45.5 -115t-116.5 -45q-70 0 -116 45t-46 115zM819 1962q0 72 45 117t117 45t117 -45t45 -117q0 -70 -45 -115t-117 -45t-117 45t-45 115z" />
<glyph unicode="&#x2c6;" horiz-adv-x="890" d="M55 1376l391 289l390 -289l-140 -166l-250 205l-249 -205z" />
<glyph unicode="&#x2dc;" horiz-adv-x="1015" d="M82 1251q25 82 65 150q35 57 90.5 104t135.5 47q31 0 63.5 -20.5t66.5 -44t68.5 -44t69.5 -20.5q14 0 31.5 21.5t34.5 50.5q18 31 36 72l191 -84l-10 -33q-27 -76 -66 -135q-35 -51 -87 -92t-124 -41q-49 0 -85 19.5t-66.5 44t-58 44t-58.5 19.5q-16 0 -33.5 -21.5 t-34.5 -48.5q-18 -31 -37 -70z" />
<glyph unicode="&#x2000;" horiz-adv-x="1087" />
<glyph unicode="&#x2001;" horiz-adv-x="2175" />
<glyph unicode="&#x2002;" horiz-adv-x="1087" />
<glyph unicode="&#x2003;" horiz-adv-x="2175" />
<glyph unicode="&#x2004;" horiz-adv-x="725" />
<glyph unicode="&#x2005;" horiz-adv-x="543" />
<glyph unicode="&#x2006;" horiz-adv-x="362" />
<glyph unicode="&#x2007;" horiz-adv-x="362" />
<glyph unicode="&#x2008;" horiz-adv-x="271" />
<glyph unicode="&#x2009;" horiz-adv-x="435" />
<glyph unicode="&#x200a;" horiz-adv-x="120" />
<glyph unicode="&#x2010;" horiz-adv-x="1032" d="M184 418v284h664v-284h-664z" />
<glyph unicode="&#x2011;" horiz-adv-x="1032" d="M184 418v284h664v-284h-664z" />
<glyph unicode="&#x2012;" horiz-adv-x="1032" d="M184 418v284h664v-284h-664z" />
<glyph unicode="&#x2013;" horiz-adv-x="1357" d="M199 428v279h960v-242v-37h-960z" />
<glyph unicode="&#x2014;" horiz-adv-x="2336" d="M199 428v279h1939v-242v-37h-1939z" />
<glyph unicode="&#x2018;" horiz-adv-x="968" d="M121 852l328 760l219 -76l-162 -684h-385z" />
<glyph unicode="&#x2019;" horiz-adv-x="968" d="M301 932l162 680h385l-330 -756z" />
<glyph unicode="&#x201a;" horiz-adv-x="968" d="M301 -436l162 680h385l-330 -756z" />
<glyph unicode="&#x201c;" horiz-adv-x="1517" d="M121 852l328 760l219 -76l-162 -684h-385zM670 852l327 760l220 -76l-162 -684h-385z" />
<glyph unicode="&#x201d;" horiz-adv-x="1517" d="M301 932l162 680h385l-330 -756zM850 932l162 680h385l-330 -756z" />
<glyph unicode="&#x201e;" horiz-adv-x="1515" d="M301 -436l162 680h385l-330 -756zM848 -436l162 680h385l-330 -756z" />
<glyph unicode="&#x2022;" horiz-adv-x="1878" d="M518 602q0 86 33 163t90 134t134 90t165 33q86 0 163 -33t134 -90t90 -134t33 -163q0 -88 -33 -165t-90 -134t-134 -90t-163 -33q-88 0 -165 33t-134 90t-90 134t-33 165z" />
<glyph unicode="&#x2026;" horiz-adv-x="2478" d="M348 180q0 43 16.5 81t45 66.5t66.5 45t81 16.5t81 -16.5t66.5 -45t45 -66.5t16.5 -81t-16.5 -81t-45 -66.5t-66.5 -45t-81 -16.5t-81 16.5t-66.5 45t-45 66.5t-16.5 81zM1028 180q0 43 16.5 81t45 66.5t66.5 45t81 16.5t81 -16.5t66.5 -45t45 -66.5t16.5 -81t-16.5 -81 t-45 -66.5t-66.5 -45t-81 -16.5t-81 16.5t-66.5 45t-45 66.5t-16.5 81zM1712 180q0 43 16.5 81t45 66.5t66.5 45t81 16.5t81 -16.5t66.5 -45t45 -66.5t16.5 -81t-16.5 -81t-45 -66.5t-66.5 -45t-81 -16.5t-81 16.5t-66.5 45t-45 66.5t-16.5 81z" />
<glyph unicode="&#x202f;" horiz-adv-x="435" />
<glyph unicode="&#x2039;" horiz-adv-x="1300" d="M111 498l440 534l235 -114l-294 -420l296 -412l-237 -119z" />
<glyph unicode="&#x203a;" horiz-adv-x="1300" d="M512 82l299 414l-295 417l236 115l438 -534l-438 -531z" />
<glyph unicode="&#x205f;" horiz-adv-x="543" />
<glyph unicode="&#x20ac;" horiz-adv-x="1581" d="M133 471l96 213h115q-2 16 -2 32.5v31.5v28.5t2 32.5h-211l109 215h147q14 43 39 97.5t61.5 109.5t84 105t108.5 85q102 57 189 79t180 22q70 0 142.5 -10.5t131.5 -22.5q70 -14 135 -33v-315q0 -2 -29.5 14t-81 37.5t-120 39t-146.5 17.5q-49 0 -99 -10t-99 -33 q-27 -12 -54.5 -31.5t-52 -44t-44 -52t-29.5 -54.5h671l-98 -215h-619q-2 -16 -3 -32.5t-1 -28.5q0 -14 1 -30t3 -34h572l-96 -213h-433q16 -51 58.5 -93t96.5 -72t114.5 -46t115.5 -16q76 0 144.5 17.5t119 39t80 37.5t29.5 14v-313q-66 -18 -135 -33q-59 -12 -132 -22.5 t-142 -10.5q-92 0 -179.5 20.5t-189.5 78.5q-61 33 -108.5 84t-84 106t-61.5 110.5t-39 98.5h-256z" />
<glyph unicode="&#x2122;" horiz-adv-x="1740" d="M262 1434v133h526v-133h-186v-629h-153v629h-187zM885 801v762h178q8 -16 24.5 -60.5t36.5 -97.5q6 -16 14.5 -43t16.5 -54.5t16.5 -54t12.5 -43.5q4 -10 6 -32.5t6 -44.5q4 -27 6 -60q2 33 6 60q4 23 6.5 44t6.5 31q4 16 12 43t16 55.5t16.5 55.5t14.5 43q20 55 36.5 98 t22.5 60h181v-762h-150v448v28.5t1 45.5t2 49.5t3 40.5q-2 -12 -7 -37.5t-9 -53.5t-9 -49.5t-8 -27.5l-79 -295h-123l-84 295q-2 6 -5 27.5t-7.5 49.5t-9.5 52.5t-7 36.5q2 -16 3 -39.5t2 -48.5t1 -45.5v-28.5v-448h-149z" />
<glyph unicode="&#x25fc;" horiz-adv-x="1024" d="M0 0v1024h1024v-1024h-1024z" />
</font>
</defs>
</svg>
